NithyaRanjanaNU-Regular.ufo
<glyph name="parenleft" format="2">
  <advance width="322"/>
  <unicode hex="0028"/>
  <outline>
    <contour>
      <point x="308" y="-135" type="curve"/>
      <point x="322" y="-119" type="line"/>
      <point x="234" y="-36"/>
      <point x="177" y="117"/>
      <point x="177" y="306" type="curve" smooth="yes"/>
      <point x="177" y="496"/>
      <point x="234" y="650"/>
      <point x="321" y="731" type="curve"/>
      <point x="308" y="747" type="line"/>
      <point x="167" y="666"/>
      <point x="70" y="509"/>
      <point x="70" y="308" type="curve" smooth="yes"/>
      <point x="70" y="108"/>
      <point x="167" y="-51"/>
    </contour>
  </outline>
</glyph>
<glyph name="asterisk" format="2">
  <advance width="458"/>
  <unicode hex="002A"/>
  <outline>
    <contour>
      <point x="342" y="394" type="curve" smooth="yes"/>
      <point x="364" y="412"/>
      <point x="366" y="437"/>
      <point x="343" y="466" type="curve" smooth="yes"/>
      <point x="324" y="489"/>
      <point x="282" y="511"/>
      <point x="221" y="545" type="curve"/>
      <point x="216" y="541" type="line"/>
      <point x="238" y="473"/>
      <point x="254" y="431"/>
      <point x="270" y="406" type="curve"/>
      <point x="294" y="376"/>
      <point x="320" y="375"/>
    </contour>
    <contour>
      <point x="113" y="394" type="curve" smooth="yes"/>
      <point x="135" y="375"/>
      <point x="161" y="376"/>
      <point x="185" y="406" type="curve"/>
      <point x="201" y="431"/>
      <point x="217" y="473"/>
      <point x="239" y="541" type="curve"/>
      <point x="234" y="545" type="line"/>
      <point x="173" y="511"/>
      <point x="131" y="489"/>
      <point x="112" y="466" type="curve" smooth="yes"/>
      <point x="89" y="437"/>
      <point x="91" y="412"/>
    </contour>
    <contour>
      <point x="237" y="529" type="curve"/>
      <point x="239" y="535" type="line"/>
      <point x="187" y="581"/>
      <point x="152" y="613"/>
      <point x="123" y="623" type="curve" smooth="yes"/>
      <point x="89" y="635"/>
      <point x="66" y="625"/>
      <point x="56" y="597" type="curve" smooth="yes"/>
      <point x="46" y="570"/>
      <point x="56" y="546"/>
      <point x="92" y="534" type="curve"/>
      <point x="121" y="527"/>
      <point x="166" y="527"/>
    </contour>
    <contour>
      <point x="225" y="522" type="curve"/>
      <point x="232" y="522" type="line"/>
      <point x="259" y="591"/>
      <point x="275" y="636"/>
      <point x="275" y="669" type="curve" smooth="yes"/>
      <point x="275" y="704"/>
      <point x="257" y="722"/>
      <point x="228" y="722" type="curve" smooth="yes"/>
      <point x="200" y="722"/>
      <point x="183" y="704"/>
      <point x="183" y="669" type="curve" smooth="yes"/>
      <point x="183" y="636"/>
      <point x="200" y="591"/>
    </contour>
    <contour>
      <point x="221" y="529" type="line"/>
      <point x="292" y="527"/>
      <point x="337" y="527"/>
      <point x="366" y="534" type="curve"/>
      <point x="402" y="546"/>
      <point x="412" y="570"/>
      <point x="402" y="597" type="curve" smooth="yes"/>
      <point x="392" y="625"/>
      <point x="369" y="635"/>
      <point x="335" y="623" type="curve" smooth="yes"/>
      <point x="306" y="613"/>
      <point x="271" y="581"/>
      <point x="219" y="535" type="curve"/>
    </contour>
  </outline>
</glyph>
<glyph name="period" format="2">
  <advance width="237"/>
  <unicode hex="002E"/>
  <outline>
    <contour>
      <point x="119" y="13" type="curve" smooth="yes"/>
      <point x="159" y="13"/>
      <point x="187" y="44"/>
      <point x="187" y="88" type="curve" smooth="yes"/>
      <point x="187" y="131"/>
      <point x="159" y="162"/>
      <point x="119" y="162" type="curve" smooth="yes"/>
      <point x="78" y="162"/>
      <point x="50" y="131"/>
      <point x="50" y="88" type="curve" smooth="yes"/>
      <point x="50" y="44"/>
      <point x="78" y="13"/>
    </contour>
  </outline>
</glyph>
<glyph name="slash" format="2">
  <advance width="439"/>
  <unicode hex="002F"/>
  <outline>
    <contour>
      <point x="70" y="-154" type="line"/>
      <point x="145" y="-154" type="line"/>
      <point x="404" y="785" type="line"/>
      <point x="329" y="785" type="line"/>
    </contour>
  </outline>
</glyph>
<glyph name="less" format="2">
  <advance width="483"/>
  <unicode hex="003C"/>
  <outline>
    <contour>
      <point x="433" y="69" type="line"/>
      <point x="433" y="154" type="line"/>
      <point x="144" y="292" type="line"/>
      <point x="433" y="429" type="line"/>
      <point x="433" y="514" type="line"/>
      <point x="50" y="324" type="line"/>
      <point x="50" y="261" type="line"/>
    </contour>
  </outline>
</glyph>
<glyph name="question" format="2">
  <advance width="421"/>
  <unicode hex="003F"/>
  <outline>
    <contour>
      <point x="164" y="209" type="curve"/>
      <point x="174" y="209" type="line"/>
      <point x="171" y="270"/>
      <point x="197" y="299"/>
      <point x="246" y="341" type="curve" smooth="yes"/>
      <point x="283" y="373" type="line" smooth="yes"/>
      <point x="333" y="416"/>
      <point x="358" y="441"/>
      <point x="358" y="489" type="curve" smooth="yes"/>
      <point x="358" y="569"/>
      <point x="262" y="668"/>
      <point x="169" y="668" type="curve" smooth="yes"/>
      <point x="107" y="668"/>
      <point x="55" y="636"/>
      <point x="20" y="594" type="curve"/>
      <point x="95" y="516" type="line"/>
      <point x="104" y="516" type="line"/>
      <point x="140" y="555"/>
      <point x="181" y="585"/>
      <point x="218" y="585" type="curve" smooth="yes"/>
      <point x="254" y="585"/>
      <point x="278" y="565"/>
      <point x="278" y="532" type="curve" smooth="yes"/>
      <point x="278" y="502"/>
      <point x="257" y="489"/>
      <point x="217" y="454" type="curve" smooth="yes"/>
      <point x="180" y="422" type="line" smooth="yes"/>
      <point x="136" y="384"/>
      <point x="115" y="360"/>
      <point x="115" y="316" type="curve" smooth="yes"/>
      <point x="115" y="282"/>
      <point x="143" y="240"/>
    </contour>
    <component base="period" xOffset="53"/>
  </outline>
</glyph>
<glyph name="braceleft" format="2">
  <advance width="363"/>
  <unicode hex="007B"/>
  <outline>
    <contour>
      <point x="323" y="-134" type="curve"/>
      <point x="323" y="-108" type="line"/>
      <point x="235" y="-107"/>
      <point x="218" y="-68"/>
      <point x="218" y="25" type="curve" smooth="yes"/>
      <point x="218" y="66"/>
      <point x="219" y="107"/>
      <point x="219" y="140" type="curve" smooth="yes"/>
      <point x="219" y="226"/>
      <point x="202" y="284"/>
      <point x="132" y="303" type="curve"/>
      <point x="132" y="307" type="line"/>
      <point x="30" y="307" type="line"/>
      <point x="30" y="297" type="line"/>
      <point x="108" y="291"/>
      <point x="118" y="253"/>
      <point x="118" y="163" type="curve" smooth="yes"/>
      <point x="118" y="29" type="line" smooth="yes"/>
      <point x="118" y="-83"/>
      <point x="158" y="-140"/>
    </contour>
    <contour>
      <point x="30" y="303" type="line"/>
      <point x="132" y="303" type="line"/>
      <point x="132" y="306" type="line"/>
      <point x="202" y="327"/>
      <point x="219" y="384"/>
      <point x="219" y="470" type="curve" smooth="yes"/>
      <point x="219" y="502"/>
      <point x="218" y="543"/>
      <point x="218" y="585" type="curve" smooth="yes"/>
      <point x="218" y="682"/>
      <point x="237" y="716"/>
      <point x="323" y="717" type="curve"/>
      <point x="323" y="744" type="line"/>
      <point x="158" y="749"/>
      <point x="118" y="693"/>
      <point x="118" y="580" type="curve" smooth="yes"/>
      <point x="118" y="447" type="line" smooth="yes"/>
      <point x="118" y="356"/>
      <point x="108" y="317"/>
      <point x="30" y="311" type="curve"/>
    </contour>
  </outline>
</glyph>
<glyph name="bar" format="2">
  <advance width="323"/>
  <unicode hex="007C"/>
  <outline>
    <contour>
      <point x="135" y="-154" type="line"/>
      <point x="208" y="-154" type="line"/>
      <point x="208" y="785" type="line"/>
      <point x="135" y="785" type="line"/>
    </contour>
  </outline>
</glyph>
<glyph name="bullet" format="2">
  <advance width="443"/>
  <unicode hex="2022"/>
  <anchor x="242" y="320" name="top2"/>
  <outline>
    <contour>
      <point x="221" y="203" type="curve" smooth="yes"/>
      <point x="297" y="203"/>
      <point x="343" y="248"/>
      <point x="343" y="323" type="curve" smooth="yes"/>
      <point x="343" y="398"/>
      <point x="297" y="444"/>
      <point x="221" y="444" type="curve" smooth="yes"/>
      <point x="151" y="444"/>
      <point x="100" y="395"/>
      <point x="100" y="323" type="curve" smooth="yes"/>
      <point x="100" y="253"/>
      <point x="151" y="203"/>
    </contour>
  </outline>
</glyph>
<glyph name="FlowerPunctuationMark.rj" format="2">
  <advance width="734"/>
  <unicode hex="2055"/>
  <outline>
    <contour>
      <point x="366" y="277" type="curve" smooth="yes"/>
      <point x="393" y="277"/>
      <point x="416" y="299"/>
      <point x="416" y="327" type="curve" smooth="yes"/>
      <point x="416" y="354"/>
      <point x="393" y="376"/>
      <point x="366" y="376" type="curve" smooth="yes"/>
      <point x="339" y="376"/>
      <point x="317" y="354"/>
      <point x="317" y="327" type="curve" smooth="yes"/>
      <point x="317" y="299"/>
      <point x="339" y="277"/>
    </contour>
    <component base="_petal1_part" xOffset="-76" yOffset="20"/>
    <component base="_petal1_part" xScale="0" xyScale="1" yxScale="-1" yScale="0" xOffset="667" yOffset="-128"/>
    <component base="_petal1_part" xScale="0" xyScale="-1" yxScale="1" yScale="0" xOffset="67" yOffset="775"/>
    <component base="_petal1_part" xScale="-1" yScale="-1" xOffset="810" yOffset="627"/>
  </outline>
</glyph>
<glyph name="dottedCircle" format="2">
  <advance width="636"/>
  <unicode hex="25CC"/>
  <anchor x="391" y="-26" name="bottom"/>
  <anchor x="324" y="-26" name="bottom2"/>
  <anchor x="360" y="-26" name="bottom3"/>
  <anchor x="54" y="654" name="top"/>
  <anchor x="528" y="654" name="top1"/>
  <anchor x="320" y="654" name="top2"/>
  <anchor x="54" y="646" name="top_alt"/>
  <outline>
    <contour>
      <point x="138" y="141" type="curve"/>
      <point x="158" y="155"/>
      <point x="196" y="171"/>
      <point x="221" y="179" type="curve"/>
      <point x="221" y="187" type="line"/>
      <point x="200" y="210"/>
      <point x="180" y="227"/>
      <point x="156" y="243" type="curve"/>
      <point x="130" y="234"/>
      <point x="95" y="220"/>
      <point x="73" y="205" type="curve"/>
      <point x="73" y="197" type="line"/>
      <point x="96" y="178"/>
      <point x="117" y="161"/>
    </contour>
    <contour>
      <point x="313" y="46" type="curve"/>
      <point x="333" y="60"/>
      <point x="371" y="76"/>
      <point x="395" y="84" type="curve"/>
      <point x="395" y="92" type="line"/>
      <point x="375" y="115"/>
      <point x="354" y="132"/>
      <point x="331" y="148" type="curve"/>
      <point x="305" y="139"/>
      <point x="270" y="125"/>
      <point x="249" y="110" type="curve"/>
      <point x="249" y="102" type="line"/>
      <point x="271" y="83"/>
      <point x="292" y="67"/>
    </contour>
    <contour>
      <point x="75" y="293" type="curve"/>
      <point x="95" y="307"/>
      <point x="133" y="323"/>
      <point x="157" y="331" type="curve"/>
      <point x="157" y="339" type="line"/>
      <point x="137" y="362"/>
      <point x="116" y="379"/>
      <point x="93" y="395" type="curve"/>
      <point x="67" y="386"/>
      <point x="32" y="372"/>
      <point x="11" y="357" type="curve"/>
      <point x="11" y="349" type="line"/>
      <point x="33" y="330"/>
      <point x="54" y="314"/>
    </contour>
    <contour>
      <point x="143" y="446" type="curve"/>
      <point x="163" y="460"/>
      <point x="201" y="476"/>
      <point x="225" y="484" type="curve"/>
      <point x="225" y="492" type="line"/>
      <point x="205" y="515"/>
      <point x="184" y="532"/>
      <point x="161" y="548" type="curve"/>
      <point x="135" y="539"/>
      <point x="100" y="525"/>
      <point x="79" y="510" type="curve"/>
      <point x="79" y="502" type="line"/>
      <point x="101" y="483"/>
      <point x="122" y="467"/>
    </contour>
    <contour>
      <point x="484" y="141" type="curve"/>
      <point x="504" y="155"/>
      <point x="542" y="171"/>
      <point x="566" y="179" type="curve"/>
      <point x="566" y="187" type="line"/>
      <point x="546" y="210"/>
      <point x="525" y="227"/>
      <point x="502" y="243" type="curve"/>
      <point x="476" y="234"/>
      <point x="441" y="220"/>
      <point x="420" y="205" type="curve"/>
      <point x="420" y="197" type="line"/>
      <point x="442" y="178"/>
      <point x="463" y="162"/>
    </contour>
    <contour>
      <point x="543" y="291" type="curve"/>
      <point x="563" y="305"/>
      <point x="601" y="321"/>
      <point x="625" y="329" type="curve"/>
      <point x="625" y="337" type="line"/>
      <point x="605" y="360"/>
      <point x="584" y="377"/>
      <point x="561" y="393" type="curve"/>
      <point x="535" y="384"/>
      <point x="500" y="370"/>
      <point x="479" y="355" type="curve"/>
      <point x="479" y="347" type="line"/>
      <point x="501" y="328"/>
      <point x="522" y="312"/>
    </contour>
    <contour>
      <point x="313" y="528" type="curve"/>
      <point x="333" y="542"/>
      <point x="371" y="558"/>
      <point x="395" y="566" type="curve"/>
      <point x="395" y="574" type="line"/>
      <point x="375" y="597"/>
      <point x="354" y="614"/>
      <point x="331" y="630" type="curve"/>
      <point x="305" y="621"/>
      <point x="270" y="607"/>
      <point x="249" y="592" type="curve"/>
      <point x="249" y="584" type="line"/>
      <point x="271" y="565"/>
      <point x="292" y="549"/>
    </contour>
    <contour>
      <point x="476" y="446" type="curve"/>
      <point x="496" y="460"/>
      <point x="534" y="476"/>
      <point x="558" y="484" type="curve"/>
      <point x="558" y="492" type="line"/>
      <point x="538" y="515"/>
      <point x="517" y="532"/>
      <point x="494" y="548" type="curve"/>
      <point x="468" y="539"/>
      <point x="433" y="525"/>
      <point x="412" y="510" type="curve"/>
      <point x="412" y="502" type="line"/>
      <point x="434" y="483"/>
      <point x="455" y="467"/>
    </contour>
  </outline>
</glyph>
<glyph name="vowelA.rj" format="2">
  <advance width="585"/>
  <unicode hex="11400"/>
  <anchor x="294" y="646" name="top2"/>
  <outline>
    <contour>
      <point x="619" y="-46" type="curve"/>
      <point x="629" y="-29" type="line"/>
      <point x="594" y="-9" type="line" smooth="yes"/>
      <point x="536" y="24"/>
      <point x="529" y="37"/>
      <point x="529" y="103" type="curve" smooth="yes"/>
      <point x="529" y="646" type="line"/>
      <point x="429" y="634" type="line"/>
      <point x="429" y="297" type="line" smooth="yes"/>
      <point x="429" y="177"/>
      <point x="381" y="125"/>
      <point x="279" y="125" type="curve" smooth="yes"/>
      <point x="250" y="125"/>
      <point x="221" y="132"/>
      <point x="195" y="142" type="curve"/>
      <point x="187" y="124" type="line"/>
      <point x="334" y="70"/>
      <point x="475" y="15"/>
    </contour>
    <contour>
      <point x="230" y="187" type="curve" smooth="yes"/>
      <point x="302" y="187"/>
      <point x="354" y="228"/>
      <point x="354" y="324" type="curve" smooth="yes"/>
      <point x="354" y="591" type="line"/>
      <point x="254" y="572" type="line"/>
      <point x="254" y="358" type="line" smooth="yes"/>
      <point x="254" y="302"/>
      <point x="224" y="272"/>
      <point x="165" y="272" type="curve" smooth="yes"/>
      <point x="125" y="272"/>
      <point x="83" y="284"/>
      <point x="23" y="328" type="curve"/>
      <point x="10" y="313" type="line"/>
      <point x="91" y="234"/>
      <point x="158" y="187"/>
    </contour>
    <contour>
      <point x="145" y="340" type="curve" smooth="yes"/>
      <point x="178" y="340"/>
      <point x="195" y="357"/>
      <point x="195" y="396" type="curve" smooth="yes"/>
      <point x="195" y="411"/>
      <point x="192" y="447"/>
      <point x="189" y="468" type="curve"/>
      <point x="165" y="429" type="line"/>
      <point x="210" y="422"/>
      <point x="236" y="423"/>
      <point x="270" y="403" type="curve"/>
      <point x="276" y="449" type="line"/>
      <point x="235" y="480"/>
      <point x="181" y="494"/>
      <point x="141" y="494" type="curve" smooth="yes"/>
      <point x="89" y="494"/>
      <point x="52" y="463"/>
      <point x="52" y="418" type="curve" smooth="yes"/>
      <point x="52" y="375"/>
      <point x="98" y="340"/>
    </contour>
    <contour>
      <point x="476" y="304" type="curve"/>
      <point x="490" y="335" type="line"/>
      <point x="408" y="398"/>
      <point x="348" y="434"/>
      <point x="311" y="449" type="curve"/>
      <point x="307" y="391" type="line"/>
      <point x="373" y="369"/>
      <point x="420" y="344"/>
    </contour>
    <contour>
      <point x="167" y="544" type="curve" smooth="yes"/>
      <point x="215" y="544"/>
      <point x="275" y="549"/>
      <point x="315" y="562" type="curve"/>
      <point x="326" y="569" type="line"/>
      <point x="489" y="569" type="line"/>
      <point x="529" y="646" type="line"/>
      <point x="522" y="654" type="line"/>
      <point x="4" y="654" type="line"/>
      <point x="0" y="646" type="line"/>
      <point x="24" y="582"/>
      <point x="78" y="544"/>
    </contour>
  </outline>
</glyph>
<glyph name="vowelI.rj" format="2">
  <advance width="617"/>
  <unicode hex="11402"/>
  <anchor x="303" y="646" name="top2"/>
  <outline>
    <contour>
      <point x="385" y="-26" type="line"/>
      <point x="393" y="-9" type="line"/>
      <point x="359" y="7" type="line" smooth="yes"/>
      <point x="191" y="86"/>
      <point x="147" y="127"/>
      <point x="147" y="197" type="curve" smooth="yes"/>
      <point x="147" y="236"/>
      <point x="183" y="263"/>
      <point x="233" y="269" type="curve"/>
      <point x="200" y="279" type="line"/>
      <point x="200" y="77" type="line"/>
      <point x="359" y="7" type="line"/>
      <point x="309" y="33"/>
      <point x="296" y="50"/>
      <point x="296" y="89" type="curve" smooth="yes"/>
      <point x="296" y="283" type="line"/>
      <point x="242" y="307"/>
      <point x="201" y="317"/>
      <point x="161" y="317" type="curve" smooth="yes"/>
      <point x="89" y="317"/>
      <point x="38" y="274"/>
      <point x="38" y="213" type="curve" smooth="yes"/>
      <point x="38" y="126"/>
      <point x="112" y="86"/>
      <point x="351" y="-12" type="curve" smooth="yes"/>
    </contour>
    <contour>
      <point x="606" y="-31" type="curve"/>
      <point x="617" y="-14" type="line"/>
      <point x="492" y="60"/>
      <point x="467" y="79"/>
      <point x="467" y="131" type="curve" smooth="yes"/>
      <point x="467" y="266" type="line"/>
      <point x="433" y="259" type="line"/>
      <point x="477" y="246"/>
      <point x="517" y="221"/>
      <point x="517" y="182" type="curve" smooth="yes"/>
      <point x="517" y="131"/>
      <point x="487" y="104"/>
      <point x="438" y="87" type="curve"/>
      <point x="531" y="21" type="line"/>
      <point x="575" y="45"/>
      <point x="606" y="79"/>
      <point x="606" y="143" type="curve" smooth="yes"/>
      <point x="606" y="220"/>
      <point x="524" y="280"/>
      <point x="382" y="317" type="curve"/>
      <point x="370" y="308" type="line"/>
      <point x="370" y="100" type="line"/>
      <point x="372" y="95" type="line"/>
      <point x="412" y="69"/>
      <point x="549" y="-1"/>
    </contour>
    <contour>
      <point x="229" y="355" type="curve" smooth="yes"/>
      <point x="297" y="355"/>
      <point x="344" y="402"/>
      <point x="344" y="474" type="curve" smooth="yes"/>
      <point x="344" y="589" type="line"/>
      <point x="247" y="570" type="line"/>
      <point x="247" y="511" type="line" smooth="yes"/>
      <point x="247" y="462"/>
      <point x="225" y="438"/>
      <point x="177" y="438" type="curve" smooth="yes"/>
      <point x="129" y="438"/>
      <point x="86" y="455"/>
      <point x="30" y="490" type="curve"/>
      <point x="16" y="475" type="line"/>
      <point x="96" y="389"/>
      <point x="162" y="355"/>
    </contour>
    <contour>
      <point x="171" y="544" type="curve" smooth="yes"/>
      <point x="229" y="544"/>
      <point x="272" y="554"/>
      <point x="315" y="567" type="curve"/>
      <point x="342" y="569" type="line"/>
      <point x="499" y="569" type="line"/>
      <point x="526" y="646" type="line"/>
      <point x="517" y="654" type="line"/>
      <point x="10" y="654" type="line"/>
      <point x="5" y="646" type="line"/>
      <point x="28" y="582"/>
      <point x="84" y="544"/>
    </contour>
    <contour>
      <point x="585" y="297" type="curve"/>
      <point x="595" y="313" type="line"/>
      <point x="532" y="357"/>
      <point x="526" y="367"/>
      <point x="526" y="410" type="curve" smooth="yes"/>
      <point x="526" y="646" type="line"/>
      <point x="429" y="596" type="line"/>
      <point x="429" y="383" type="line"/>
      <point x="465" y="360"/>
      <point x="536" y="325"/>
    </contour>
  </outline>
</glyph>
<glyph name="vowelIi.rj" format="2">
  <advance width="617"/>
  <unicode hex="11403"/>
  <anchor x="299" y="646" name="top2"/>
  <outline>
    <contour>
      <point x="195" y="-117" type="curve" smooth="yes"/>
      <point x="242" y="-117"/>
      <point x="274" y="-101"/>
      <point x="293" y="-83" type="curve"/>
      <point x="244" y="-48" type="line"/>
      <point x="224" y="-64"/>
      <point x="201" y="-72"/>
      <point x="182" y="-72" type="curve" smooth="yes"/>
      <point x="169" y="-72"/>
      <point x="161" y="-68"/>
      <point x="161" y="-59" type="curve" smooth="yes"/>
      <point x="161" y="-42"/>
      <point x="188" y="-28"/>
      <point x="221" y="-28" type="curve" smooth="yes"/>
      <point x="257" y="-28"/>
      <point x="313" y="-46"/>
      <point x="367" y="-77" type="curve"/>
      <point x="377" y="-62" type="line"/>
      <point x="301" y="-12"/>
      <point x="227" y="17"/>
      <point x="177" y="17" type="curve" smooth="yes"/>
      <point x="127" y="17"/>
      <point x="92" y="-8"/>
      <point x="92" y="-44" type="curve" smooth="yes"/>
      <point x="92" y="-80"/>
      <point x="141" y="-117"/>
    </contour>
    <component base="vowelI.rj"/>
  </outline>
</glyph>
<glyph name="vowelU.rj" format="2">
  <advance width="525"/>
  <unicode hex="11404"/>
  <anchor x="290" y="9" name="bottom"/>
  <anchor x="256" y="646" name="top2"/>
  <outline>
    <contour>
      <point x="342" y="31" type="curve" smooth="yes"/>
      <point x="430" y="31"/>
      <point x="495" y="91"/>
      <point x="495" y="174" type="curve" smooth="yes"/>
      <point x="495" y="246"/>
      <point x="401" y="337"/>
      <point x="326" y="337" type="curve" smooth="yes"/>
      <point x="272" y="337"/>
      <point x="220" y="298"/>
      <point x="194" y="237" type="curve"/>
      <point x="249" y="174" type="line"/>
      <point x="259" y="176" type="line"/>
      <point x="285" y="220"/>
      <point x="336" y="256"/>
      <point x="375" y="256" type="curve" smooth="yes"/>
      <point x="394" y="256"/>
      <point x="406" y="244"/>
      <point x="406" y="223" type="curve" smooth="yes"/>
      <point x="406" y="174"/>
      <point x="340" y="125"/>
      <point x="274" y="125" type="curve" smooth="yes"/>
      <point x="212" y="125"/>
      <point x="134" y="168"/>
      <point x="43" y="252" type="curve"/>
      <point x="28" y="237" type="line"/>
      <point x="145" y="98"/>
      <point x="248" y="31"/>
    </contour>
    <contour>
      <point x="249" y="174" type="curve"/>
      <point x="265" y="208" type="line"/>
      <point x="231" y="236"/>
      <point x="151" y="306"/>
      <point x="120" y="338" type="curve"/>
      <point x="154" y="274" type="line"/>
      <point x="164" y="342"/>
      <point x="227" y="395"/>
      <point x="305" y="395" type="curve" smooth="yes"/>
      <point x="355" y="395"/>
      <point x="405" y="377"/>
      <point x="454" y="356" type="curve"/>
      <point x="425" y="417" type="line"/>
      <point x="370" y="465"/>
      <point x="308" y="490"/>
      <point x="249" y="490" type="curve" smooth="yes"/>
      <point x="118" y="490"/>
      <point x="94" y="392"/>
      <point x="61" y="392" type="curve" smooth="yes"/>
      <point x="52" y="392"/>
      <point x="40" y="400"/>
      <point x="23" y="415" type="curve"/>
      <point x="9" y="402" type="line"/>
      <point x="75" y="326"/>
      <point x="164" y="243"/>
    </contour>
    <contour>
      <point x="181" y="547" type="curve" smooth="yes"/>
      <point x="253" y="547"/>
      <point x="354" y="561"/>
      <point x="390" y="574" type="curve"/>
      <point x="468" y="646" type="line"/>
      <point x="459" y="654" type="line"/>
      <point x="9" y="654" type="line"/>
      <point x="5" y="646" type="line"/>
      <point x="26" y="585"/>
      <point x="87" y="547"/>
    </contour>
    <contour>
      <point x="454" y="356" type="line"/>
      <point x="468" y="361" type="line"/>
      <point x="468" y="646" type="line"/>
      <point x="368" y="616" type="line"/>
      <point x="368" y="422" type="line"/>
    </contour>
  </outline>
</glyph>
<glyph name="vowelRuu.rj" format="2">
  <advance width="571"/>
  <unicode hex="11407"/>
  <anchor x="271" y="646" name="top2"/>
  <anchor x="403" y="35" name="bottom"/>
  <anchor x="403" y="40" name="bottom2"/>
  <anchor x="434" y="0" name="bottom3"/>
  <outline>
    <contour>
      <point x="351" y="-47" type="curve"/>
      <point x="360" y="-27" type="line"/>
      <point x="298" y="19" type="line"/>
      <point x="308" y="5" type="line"/>
      <point x="333" y="25"/>
      <point x="374" y="39"/>
      <point x="408" y="39" type="curve" smooth="yes"/>
      <point x="454" y="39"/>
      <point x="481" y="26"/>
      <point x="592" y="-26" type="curve"/>
      <point x="596" y="-8" type="line"/>
      <point x="506" y="45" type="line"/>
      <point x="455" y="67"/>
      <point x="425" y="84"/>
      <point x="375" y="84" type="curve" smooth="yes"/>
      <point x="313" y="84"/>
      <point x="285" y="43"/>
      <point x="252" y="43" type="curve" smooth="yes"/>
      <point x="241" y="43"/>
      <point x="231" y="48"/>
      <point x="217" y="55" type="curve"/>
      <point x="208" y="42" type="line"/>
      <point x="240" y="19"/>
      <point x="302" y="-18"/>
    </contour>
    <contour>
      <point x="596" y="-131" type="curve"/>
      <point x="605" y="-116" type="line"/>
      <point x="526" y="-77"/>
      <point x="481" y="-61"/>
      <point x="445" y="-61" type="curve" smooth="yes"/>
      <point x="407" y="-61"/>
      <point x="379" y="-74"/>
      <point x="346" y="-95" type="curve"/>
      <point x="390" y="-105" type="line"/>
      <point x="312" y="-53" type="line"/>
      <point x="327" y="-71" type="line"/>
      <point x="363" y="-43"/>
      <point x="392" y="-31"/>
      <point x="428" y="-31" type="curve" smooth="yes"/>
      <point x="460" y="-31"/>
      <point x="500" y="-40"/>
      <point x="536" y="-55" type="curve"/>
      <point x="544" y="-40" type="line"/>
      <point x="488" y="-9"/>
      <point x="442" y="6"/>
      <point x="397" y="6" type="curve" smooth="yes"/>
      <point x="334" y="6"/>
      <point x="318" y="-31"/>
      <point x="275" y="-31" type="curve" smooth="yes"/>
      <point x="264" y="-31"/>
      <point x="256" y="-28"/>
      <point x="244" y="-21" type="curve"/>
      <point x="234" y="-34" type="line"/>
      <point x="273" y="-60"/>
      <point x="317" y="-87"/>
      <point x="375" y="-123" type="curve"/>
      <point x="380" y="-123" type="line"/>
      <point x="410" y="-105"/>
      <point x="437" y="-97"/>
      <point x="471" y="-97" type="curve" smooth="yes"/>
      <point x="502" y="-97"/>
      <point x="528" y="-102"/>
    </contour>
    <component base="vowelRu_comp"/>
  </outline>
</glyph>
<glyph name="vowelLruu.rj" format="2">
  <advance width="539"/>
  <unicode hex="11409"/>
  <anchor x="251" y="646" name="top2"/>
  <anchor x="389" y="35" name="bottom"/>
  <anchor x="389" y="40" name="bottom2"/>
  <anchor x="420" y="0" name="bottom3"/>
  <outline>
    <contour>
      <point x="324" y="-47" type="curve"/>
      <point x="333" y="-27" type="line"/>
      <point x="271" y="19" type="line"/>
      <point x="281" y="5" type="line"/>
      <point x="306" y="25"/>
      <point x="347" y="39"/>
      <point x="381" y="39" type="curve" smooth="yes"/>
      <point x="427" y="39"/>
      <point x="467" y="26"/>
      <point x="578" y="-26" type="curve"/>
      <point x="569" y="-8" type="line"/>
      <point x="489" y="45" type="line"/>
      <point x="438" y="67"/>
      <point x="398" y="84"/>
      <point x="348" y="84" type="curve" smooth="yes"/>
      <point x="286" y="84"/>
      <point x="258" y="43"/>
      <point x="225" y="43" type="curve" smooth="yes"/>
      <point x="214" y="43"/>
      <point x="204" y="48"/>
      <point x="190" y="55" type="curve"/>
      <point x="181" y="42" type="line"/>
      <point x="213" y="19"/>
      <point x="275" y="-18"/>
    </contour>
    <contour>
      <point x="569" y="-131" type="curve"/>
      <point x="578" y="-116" type="line"/>
      <point x="499" y="-77"/>
      <point x="454" y="-61"/>
      <point x="418" y="-61" type="curve" smooth="yes"/>
      <point x="380" y="-61"/>
      <point x="352" y="-74"/>
      <point x="319" y="-95" type="curve"/>
      <point x="363" y="-105" type="line"/>
      <point x="285" y="-53" type="line"/>
      <point x="300" y="-71" type="line"/>
      <point x="336" y="-43"/>
      <point x="365" y="-31"/>
      <point x="401" y="-31" type="curve" smooth="yes"/>
      <point x="433" y="-31"/>
      <point x="473" y="-40"/>
      <point x="509" y="-55" type="curve"/>
      <point x="517" y="-40" type="line"/>
      <point x="461" y="-9"/>
      <point x="415" y="6"/>
      <point x="370" y="6" type="curve" smooth="yes"/>
      <point x="307" y="6"/>
      <point x="291" y="-31"/>
      <point x="248" y="-31" type="curve" smooth="yes"/>
      <point x="237" y="-31"/>
      <point x="229" y="-28"/>
      <point x="217" y="-21" type="curve"/>
      <point x="207" y="-34" type="line"/>
      <point x="246" y="-60"/>
      <point x="290" y="-87"/>
      <point x="348" y="-123" type="curve"/>
      <point x="353" y="-123" type="line"/>
      <point x="383" y="-105"/>
      <point x="410" y="-97"/>
      <point x="444" y="-97" type="curve" smooth="yes"/>
      <point x="475" y="-97"/>
      <point x="501" y="-102"/>
    </contour>
    <component base="vowelL_comp"/>
  </outline>
</glyph>
<glyph name="Gha.rj" format="2">
  <advance width="558"/>
  <unicode hex="11411"/>
  <anchor x="399" y="49" name="bottom2"/>
  <anchor x="394" y="30" name="bottom3"/>
  <anchor x="84" y="604" name="top"/>
  <anchor x="499" y="646" name="top1"/>
  <anchor x="287" y="646" name="top2"/>
  <outline>
    <contour>
      <point x="352" y="232" type="line"/>
      <point x="351" y="289" type="line" smooth="yes"/>
      <point x="350" y="337"/>
      <point x="331" y="348"/>
      <point x="258" y="373" type="curve"/>
      <point x="251" y="362" type="line"/>
      <point x="262" y="352"/>
      <point x="267" y="345"/>
      <point x="267" y="335" type="curve" smooth="yes"/>
      <point x="267" y="320"/>
      <point x="258" y="309"/>
      <point x="234" y="309" type="curve" smooth="yes"/>
      <point x="198" y="309"/>
      <point x="160" y="334"/>
      <point x="102" y="397" type="curve"/>
      <point x="153" y="331" type="line"/>
      <point x="191" y="392"/>
      <point x="235" y="416"/>
      <point x="290" y="416" type="curve" smooth="yes"/>
      <point x="359" y="416"/>
      <point x="421" y="387"/>
      <point x="534" y="311" type="curve"/>
      <point x="547" y="329" type="line"/>
      <point x="507" y="365"/>
      <point x="499" y="378"/>
      <point x="499" y="421" type="curve" smooth="yes"/>
      <point x="499" y="646" type="line"/>
      <point x="399" y="632" type="line"/>
      <point x="399" y="417" type="line"/>
      <point x="413" y="443" type="line"/>
      <point x="367" y="486"/>
      <point x="302" y="512"/>
      <point x="241" y="512" type="curve" smooth="yes"/>
      <point x="119" y="512"/>
      <point x="86" y="425"/>
      <point x="44" y="425" type="curve" smooth="yes"/>
      <point x="35" y="425"/>
      <point x="28" y="428"/>
      <point x="14" y="439" type="curve"/>
      <point x="0" y="425" type="line"/>
      <point x="55" y="363"/>
      <point x="153" y="272"/>
      <point x="230" y="269" type="curve"/>
    </contour>
    <contour>
      <point x="272" y="62" type="curve" smooth="yes"/>
      <point x="358" y="58"/>
      <point x="423" y="81"/>
      <point x="466" y="113" type="curve"/>
      <point x="415" y="211" type="line"/>
      <point x="383" y="178"/>
      <point x="286" y="146"/>
      <point x="200" y="151" type="curve" smooth="yes"/>
      <point x="154" y="153"/>
      <point x="132" y="163"/>
      <point x="133" y="182" type="curve" smooth="yes"/>
      <point x="135" y="207"/>
      <point x="178" y="226"/>
      <point x="273" y="226" type="curve" smooth="yes"/>
      <point x="299" y="226"/>
      <point x="318" y="225"/>
      <point x="343" y="223" type="curve"/>
      <point x="352" y="232" type="line"/>
      <point x="269" y="298" type="line"/>
      <point x="252" y="300"/>
      <point x="235" y="302"/>
      <point x="217" y="306" type="curve"/>
      <point x="201" y="306"/>
      <point x="184" y="325"/>
      <point x="169" y="323" type="curve" smooth="yes"/>
      <point x="106" y="312"/>
      <point x="50" y="280"/>
      <point x="50" y="218" type="curve" smooth="yes"/>
      <point x="50" y="146"/>
      <point x="174" y="67"/>
    </contour>
    <contour>
      <point x="399" y="165" type="line"/>
      <point x="499" y="165" type="line"/>
      <point x="499" y="265" type="line"/>
      <point x="409" y="309" type="line"/>
      <point x="399" y="304" type="line"/>
    </contour>
    <contour>
      <point x="326" y="438" type="line"/>
      <point x="326" y="605" type="line"/>
      <point x="226" y="605" type="line"/>
      <point x="226" y="454" type="line"/>
    </contour>
    <contour>
      <point x="152" y="556" type="curve" smooth="yes"/>
      <point x="219" y="556"/>
      <point x="276" y="567"/>
      <point x="301" y="586" type="curve"/>
      <point x="319" y="569" type="line"/>
      <point x="459" y="569" type="line"/>
      <point x="499" y="646" type="line"/>
      <point x="490" y="654" type="line"/>
      <point x="11" y="654" type="line"/>
      <point x="6" y="646" type="line"/>
      <point x="27" y="586"/>
      <point x="79" y="556"/>
    </contour>
    <component base="_terminal" xOffset="399" yOffset="-10"/>
  </outline>
</glyph>
<glyph name="Ca.rj" format="2">
  <advance width="501"/>
  <unicode hex="11414"/>
  <anchor x="346" y="69" name="bottom"/>
  <anchor x="346" y="49" name="bottom2"/>
  <anchor x="346" y="30" name="bottom3"/>
  <anchor x="84" y="594" name="top"/>
  <anchor x="446" y="646" name="top1"/>
  <anchor x="244" y="646" name="top2"/>
  <outline>
    <contour>
      <point x="285" y="125" type="curve" smooth="yes"/>
      <point x="319" y="125"/>
      <point x="361" y="133"/>
      <point x="388" y="153" type="curve"/>
      <point x="340" y="239" type="line"/>
      <point x="315" y="226"/>
      <point x="296" y="219"/>
      <point x="259" y="220" type="curve" smooth="yes"/>
      <point x="190" y="221"/>
      <point x="151" y="233"/>
      <point x="133" y="280" type="curve"/>
      <point x="112" y="234" type="line"/>
      <point x="148" y="223" type="line"/>
      <point x="165" y="320"/>
      <point x="216" y="377"/>
      <point x="296" y="377" type="curve" smooth="yes"/>
      <point x="339" y="377"/>
      <point x="382" y="361"/>
      <point x="434" y="335" type="curve"/>
      <point x="394" y="418" type="line"/>
      <point x="346" y="452"/>
      <point x="291" y="474"/>
      <point x="245" y="474" type="curve" smooth="yes"/>
      <point x="104" y="474"/>
      <point x="85" y="348"/>
      <point x="53" y="348" type="curve" smooth="yes"/>
      <point x="44" y="348"/>
      <point x="33" y="354"/>
      <point x="18" y="372" type="curve"/>
      <point x="0" y="359" type="line"/>
      <point x="85" y="206"/>
      <point x="169" y="125"/>
    </contour>
    <contour>
      <point x="245" y="171" type="curve"/>
      <point x="376" y="185" type="line"/>
      <point x="397" y="302" type="line"/>
      <point x="369" y="312"/>
      <point x="349" y="315"/>
      <point x="332" y="315" type="curve" smooth="yes"/>
      <point x="271" y="315"/>
      <point x="230" y="271"/>
      <point x="230" y="213" type="curve" smooth="yes"/>
      <point x="230" y="197"/>
      <point x="240" y="185"/>
    </contour>
    <contour>
      <point x="194" y="534" type="curve" smooth="yes"/>
      <point x="285" y="534"/>
      <point x="335" y="549"/>
      <point x="389" y="561" type="curve"/>
      <point x="446" y="646" type="line"/>
      <point x="437" y="654" type="line"/>
      <point x="6" y="654" type="line"/>
      <point x="1" y="646" type="line"/>
      <point x="32" y="575"/>
      <point x="90" y="534"/>
    </contour>
    <contour>
      <point x="346" y="216" type="line"/>
      <point x="446" y="216" type="line"/>
      <point x="446" y="646" type="line"/>
      <point x="346" y="618" type="line"/>
    </contour>
    <component base="_terminal" xOffset="346"/>
  </outline>
</glyph>
<glyph name="Nya.rj" format="2">
  <advance width="615"/>
  <unicode hex="11418"/>
  <anchor x="266" y="200" name="bottom"/>
  <anchor x="245" y="106" name="bottom2"/>
  <anchor x="500" y="12" name="bottom3"/>
  <anchor x="242" y="150" name="bottomRu"/>
  <anchor x="74" y="604" name="top"/>
  <anchor x="560" y="646" name="top1"/>
  <anchor x="324" y="646" name="top2"/>
  <outline>
    <contour>
      <point x="648" y="-26" type="curve"/>
      <point x="659" y="-9" type="line"/>
      <point x="601" y="29" type="line" smooth="yes"/>
      <point x="563" y="54"/>
      <point x="560" y="71"/>
      <point x="560" y="103" type="curve" smooth="yes"/>
      <point x="560" y="646" type="line"/>
      <point x="460" y="612" type="line"/>
      <point x="460" y="118" type="line"/>
      <point x="478" y="123" type="line"/>
      <point x="429" y="155"/>
      <point x="404" y="174"/>
      <point x="322" y="240" type="curve"/>
      <point x="290" y="185" type="line"/>
      <point x="317" y="167"/>
      <point x="633" y="-18"/>
    </contour>
    <contour>
      <point x="144" y="311" type="curve" smooth="yes"/>
      <point x="179" y="311"/>
      <point x="197" y="329"/>
      <point x="197" y="371" type="curve" smooth="yes"/>
      <point x="197" y="387"/>
      <point x="194" y="425"/>
      <point x="191" y="447" type="curve"/>
      <point x="165" y="406" type="line"/>
      <point x="213" y="398"/>
      <point x="241" y="399"/>
      <point x="277" y="378" type="curve"/>
      <point x="283" y="427" type="line"/>
      <point x="240" y="460"/>
      <point x="182" y="475"/>
      <point x="140" y="475" type="curve" smooth="yes"/>
      <point x="84" y="475"/>
      <point x="45" y="442"/>
      <point x="45" y="394" type="curve" smooth="yes"/>
      <point x="45" y="348"/>
      <point x="94" y="311"/>
    </contour>
    <contour>
      <point x="242" y="150" type="curve" smooth="yes"/>
      <point x="314" y="150"/>
      <point x="366" y="188"/>
      <point x="366" y="284" type="curve" smooth="yes"/>
      <point x="366" y="612" type="line"/>
      <point x="266" y="612" type="line"/>
      <point x="266" y="318" type="line" smooth="yes"/>
      <point x="266" y="262"/>
      <point x="236" y="232"/>
      <point x="177" y="232" type="curve" smooth="yes"/>
      <point x="137" y="232"/>
      <point x="95" y="244"/>
      <point x="35" y="288" type="curve"/>
      <point x="22" y="273" type="line"/>
      <point x="106" y="190"/>
      <point x="179" y="150"/>
    </contour>
    <contour>
      <point x="179" y="544" type="curve" smooth="yes"/>
      <point x="224" y="544"/>
      <point x="280" y="549"/>
      <point x="317" y="562" type="curve"/>
      <point x="328" y="569" type="line"/>
      <point x="520" y="569" type="line"/>
      <point x="560" y="646" type="line"/>
      <point x="553" y="654" type="line"/>
      <point x="6" y="654" type="line"/>
      <point x="2" y="646" type="line"/>
      <point x="27" y="582"/>
      <point x="85" y="544"/>
    </contour>
  </outline>
</glyph>
<glyph name="Ddha.rj" format="2">
  <advance width="590"/>
  <unicode hex="1141D"/>
  <anchor x="334" y="32" name="bottom"/>
  <anchor x="334" y="32" name="bottom1"/>
  <anchor x="329" y="39" name="bottom2"/>
  <anchor x="359" y="9" name="bottom3"/>
  <anchor x="379" y="49" name="bottomRu"/>
  <anchor x="97" y="584" name="top"/>
  <anchor x="533" y="646" name="top1"/>
  <anchor x="289" y="646" name="top2"/>
  <outline>
    <contour>
      <point x="151" y="223" type="curve"/>
      <point x="203" y="331"/>
      <point x="271" y="365"/>
      <point x="346" y="365" type="curve" smooth="yes"/>
      <point x="412" y="365"/>
      <point x="473" y="331"/>
      <point x="570" y="262" type="curve"/>
      <point x="584" y="278" type="line"/>
      <point x="547" y="316"/>
      <point x="533" y="338"/>
      <point x="533" y="377" type="curve" smooth="yes"/>
      <point x="533" y="646" type="line"/>
      <point x="433" y="634" type="line"/>
      <point x="433" y="363" type="line"/>
      <point x="456" y="388" type="line"/>
      <point x="392" y="449"/>
      <point x="330" y="469"/>
      <point x="278" y="469" type="curve" smooth="yes"/>
      <point x="142" y="469"/>
      <point x="98" y="352"/>
      <point x="60" y="352" type="curve" smooth="yes"/>
      <point x="47" y="352"/>
      <point x="37" y="358"/>
      <point x="18" y="374" type="curve"/>
      <point x="3" y="361" type="line"/>
      <point x="112" y="270"/>
      <point x="118" y="268"/>
    </contour>
    <contour>
      <point x="374" y="49" type="curve" smooth="yes"/>
      <point x="448" y="49"/>
      <point x="503" y="103"/>
      <point x="503" y="166" type="curve" smooth="yes"/>
      <point x="503" y="232"/>
      <point x="411" y="308"/>
      <point x="341" y="308" type="curve" smooth="yes"/>
      <point x="302" y="308"/>
      <point x="261" y="278"/>
      <point x="230" y="232" type="curve"/>
      <point x="321" y="174" type="line"/>
      <point x="346" y="205"/>
      <point x="376" y="233"/>
      <point x="399" y="233" type="curve" smooth="yes"/>
      <point x="413" y="233"/>
      <point x="421" y="226"/>
      <point x="421" y="214" type="curve" smooth="yes"/>
      <point x="421" y="180"/>
      <point x="373" y="145"/>
      <point x="319" y="145" type="curve" smooth="yes"/>
      <point x="223" y="145"/>
      <point x="147" y="244"/>
      <point x="106" y="311" type="curve"/>
      <point x="3" y="361" type="line"/>
      <point x="162" y="145"/>
      <point x="256" y="49"/>
    </contour>
    <contour>
      <point x="360" y="408" type="line"/>
      <point x="360" y="635" type="line"/>
      <point x="260" y="635" type="line"/>
      <point x="260" y="415" type="line"/>
    </contour>
    <contour>
      <point x="167" y="541" type="curve" smooth="yes"/>
      <point x="215" y="541"/>
      <point x="271" y="555"/>
      <point x="291" y="571" type="curve"/>
      <point x="294" y="569" type="line"/>
      <point x="498" y="569" type="line"/>
      <point x="533" y="646" type="line"/>
      <point x="524" y="654" type="line"/>
      <point x="6" y="654" type="line"/>
      <point x="0" y="644" type="line"/>
      <point x="22" y="584"/>
      <point x="79" y="541"/>
    </contour>
  </outline>
</glyph>
<glyph name="Tha.rj" format="2">
  <advance width="487"/>
  <unicode hex="11420"/>
  <anchor x="337" y="11" name="bottom"/>
  <anchor x="324" y="59" name="bottom2"/>
  <anchor x="278" y="9" name="bottom3"/>
  <anchor x="73" y="604" name="top"/>
  <anchor x="432" y="646" name="top1"/>
  <anchor x="233" y="646" name="top2"/>
  <outline>
    <contour>
      <point x="523" y="-38" type="curve"/>
      <point x="531" y="-20" type="line"/>
      <point x="477" y="11" type="line" smooth="yes"/>
      <point x="441" y="32"/>
      <point x="432" y="49"/>
      <point x="432" y="88" type="curve" smooth="yes"/>
      <point x="432" y="646" type="line"/>
      <point x="332" y="603" type="line"/>
      <point x="332" y="287" type="line"/>
      <point x="360" y="287" type="line"/>
      <point x="323" y="325"/>
      <point x="266" y="350"/>
      <point x="213" y="350" type="curve" smooth="yes"/>
      <point x="182" y="350"/>
      <point x="151" y="344"/>
      <point x="127" y="333" type="curve" smooth="yes"/>
      <point x="98" y="320" type="line"/>
      <point x="69" y="303"/>
      <point x="50" y="268"/>
      <point x="50" y="236" type="curve" smooth="yes"/>
      <point x="50" y="119"/>
      <point x="175" y="77"/>
    </contour>
    <contour>
      <point x="251" y="81" type="curve"/>
      <point x="261" y="98" type="line"/>
      <point x="190" y="130"/>
      <point x="163" y="164"/>
      <point x="163" y="209" type="curve" smooth="yes"/>
      <point x="163" y="249"/>
      <point x="200" y="277"/>
      <point x="253" y="277" type="curve" smooth="yes"/>
      <point x="278" y="277"/>
      <point x="312" y="272"/>
      <point x="346" y="256" type="curve"/>
      <point x="337" y="287" type="line"/>
      <point x="337" y="160" type="line"/>
      <point x="360" y="199" type="line"/>
      <point x="345" y="207"/>
      <point x="330" y="211"/>
      <point x="313" y="211" type="curve" smooth="yes"/>
      <point x="258" y="211"/>
      <point x="227" y="186"/>
      <point x="229" y="143" type="curve" smooth="yes"/>
      <point x="230" y="119"/>
      <point x="238" y="96"/>
    </contour>
    <contour>
      <point x="302" y="166" type="curve"/>
      <point x="312" y="190" type="line"/>
      <point x="258" y="214"/>
      <point x="217" y="239"/>
      <point x="175" y="284" type="curve"/>
      <point x="144" y="253" type="line"/>
      <point x="192" y="214"/>
      <point x="246" y="185"/>
    </contour>
    <contour>
      <point x="151" y="272" type="curve"/>
      <point x="170" y="297" type="line"/>
      <point x="157" y="316"/>
      <point x="152" y="333"/>
      <point x="152" y="349" type="curve" smooth="yes"/>
      <point x="152" y="390"/>
      <point x="180" y="419"/>
      <point x="241" y="419" type="curve" smooth="yes"/>
      <point x="278" y="419"/>
      <point x="323" y="403"/>
      <point x="349" y="380" type="curve"/>
      <point x="357" y="422" type="line"/>
      <point x="315" y="472"/>
      <point x="249" y="502"/>
      <point x="178" y="502" type="curve" smooth="yes"/>
      <point x="91" y="502"/>
      <point x="39" y="460"/>
      <point x="39" y="395" type="curve" smooth="yes"/>
      <point x="39" y="346"/>
      <point x="77" y="301"/>
    </contour>
    <contour>
      <point x="193" y="557" type="curve" smooth="yes"/>
      <point x="259" y="557"/>
      <point x="331" y="567"/>
      <point x="385" y="587" type="curve"/>
      <point x="432" y="646" type="line"/>
      <point x="423" y="654" type="line"/>
      <point x="5" y="654" type="line"/>
      <point x="0" y="646" type="line"/>
      <point x="34" y="586"/>
      <point x="104" y="557"/>
    </contour>
  </outline>
</glyph>
<glyph name="Da.rj" format="2">
  <advance width="523"/>
  <unicode hex="11421"/>
  <anchor x="378" y="129" name="bottom"/>
  <anchor x="378" y="19" name="bottom2"/>
  <anchor x="378" y="0" name="bottom3"/>
  <anchor x="94" y="594" name="top"/>
  <anchor x="459" y="646" name="top1"/>
  <anchor x="254" y="646" name="top2"/>
  <outline>
    <contour>
      <point x="140" y="240" type="curve"/>
      <point x="172" y="334"/>
      <point x="240" y="393"/>
      <point x="317" y="393" type="curve" smooth="yes"/>
      <point x="363" y="393"/>
      <point x="411" y="377"/>
      <point x="451" y="351" type="curve"/>
      <point x="459" y="355" type="line"/>
      <point x="459" y="646" type="line"/>
      <point x="359" y="634" type="line"/>
      <point x="359" y="423" type="line"/>
      <point x="416" y="408" type="line"/>
      <point x="361" y="466"/>
      <point x="316" y="489"/>
      <point x="253" y="489" type="curve" smooth="yes"/>
      <point x="131" y="489"/>
      <point x="78" y="367"/>
      <point x="51" y="367" type="curve" smooth="yes"/>
      <point x="42" y="367"/>
      <point x="31" y="374"/>
      <point x="14" y="389" type="curve"/>
      <point x="-1" y="377" type="line"/>
      <point x="87" y="293"/>
      <point x="114" y="273"/>
    </contour>
    <contour>
      <point x="318" y="87" type="curve" smooth="yes"/>
      <point x="367" y="87"/>
      <point x="409" y="105"/>
      <point x="439" y="136" type="curve"/>
      <point x="478" y="165" type="line"/>
      <point x="478" y="211" type="line" smooth="yes"/>
      <point x="478" y="273"/>
      <point x="401" y="339"/>
      <point x="335" y="339" type="curve" smooth="yes"/>
      <point x="295" y="339"/>
      <point x="252" y="314"/>
      <point x="218" y="255" type="curve"/>
      <point x="307" y="210" type="line"/>
      <point x="334" y="243"/>
      <point x="358" y="264"/>
      <point x="378" y="264" type="curve" smooth="yes"/>
      <point x="389" y="264"/>
      <point x="395" y="258"/>
      <point x="395" y="248" type="curve" smooth="yes"/>
      <point x="395" y="220"/>
      <point x="345" y="179"/>
      <point x="287" y="179" type="curve" smooth="yes"/>
      <point x="205" y="179"/>
      <point x="141" y="228"/>
      <point x="105" y="326" type="curve"/>
      <point x="-1" y="377" type="line"/>
      <point x="113" y="183"/>
      <point x="209" y="87"/>
    </contour>
    <contour>
      <point x="188" y="539" type="curve" smooth="yes"/>
      <point x="268" y="539"/>
      <point x="360" y="553"/>
      <point x="395" y="574" type="curve"/>
      <point x="459" y="646" type="line"/>
      <point x="450" y="654" type="line"/>
      <point x="-4" y="654" type="line"/>
      <point x="-9" y="646" type="line"/>
      <point x="13" y="581"/>
      <point x="91" y="539"/>
    </contour>
    <component base="_terminal" xOffset="378" yOffset="-30"/>
  </outline>
</glyph>
<glyph name="Na.rj" format="2">
  <advance width="487"/>
  <unicode hex="11423"/>
  <anchor x="332" y="69" name="bottom"/>
  <anchor x="332" y="49" name="bottom2"/>
  <anchor x="332" y="30" name="bottom3"/>
  <anchor x="94" y="594" name="top"/>
  <anchor x="432" y="646" name="top1"/>
  <anchor x="234" y="646" name="top2"/>
  <outline>
    <contour>
      <point x="174" y="153" type="curve" smooth="yes"/>
      <point x="227" y="153"/>
      <point x="246" y="179"/>
      <point x="246" y="237" type="curve" smooth="yes"/>
      <point x="246" y="382" type="line"/>
      <point x="224" y="332" type="line"/>
      <point x="271" y="327"/>
      <point x="318" y="308"/>
      <point x="363" y="274" type="curve"/>
      <point x="372" y="321" type="line"/>
      <point x="310" y="389"/>
      <point x="250" y="423"/>
      <point x="160" y="423" type="curve" smooth="yes"/>
      <point x="81" y="423"/>
      <point x="25" y="371"/>
      <point x="25" y="298" type="curve" smooth="yes"/>
      <point x="25" y="219"/>
      <point x="93" y="153"/>
    </contour>
    <contour>
      <point x="181" y="529" type="curve" smooth="yes"/>
      <point x="264" y="529"/>
      <point x="330" y="540"/>
      <point x="389" y="566" type="curve"/>
      <point x="432" y="646" type="line"/>
      <point x="423" y="654" type="line"/>
      <point x="5" y="654" type="line"/>
      <point x="0" y="646" type="line"/>
      <point x="28" y="567"/>
      <point x="88" y="529"/>
    </contour>
    <contour>
      <point x="332" y="209" type="line"/>
      <point x="432" y="209" type="line"/>
      <point x="432" y="646" type="line"/>
      <point x="332" y="594" type="line"/>
    </contour>
    <component base="_terminal" xOffset="332"/>
  </outline>
</glyph>
<glyph name="Nha.rj" format="2">
  <advance width="526"/>
  <unicode hex="11424"/>
  <anchor x="237" y="110" name="bottom"/>
  <anchor x="237" y="49" name="bottom2"/>
  <anchor x="246" y="8" name="bottom3"/>
  <anchor x="471" y="646" name="top1"/>
  <anchor x="277" y="646" name="top2"/>
  <anchor x="99" y="594" name="top_alt"/>
  <outline>
    <contour>
      <point x="282" y="177" type="curve"/>
      <point x="325" y="189" type="line"/>
      <point x="258" y="238" type="line"/>
      <point x="200" y="255"/>
      <point x="166" y="282"/>
      <point x="166" y="320" type="curve" smooth="yes"/>
      <point x="166" y="374"/>
      <point x="216" y="406"/>
      <point x="300" y="406" type="curve" smooth="yes"/>
      <point x="345" y="406"/>
      <point x="401" y="395"/>
      <point x="464" y="370" type="curve"/>
      <point x="391" y="446" type="line"/>
      <point x="347" y="474"/>
      <point x="285" y="490"/>
      <point x="225" y="490" type="curve" smooth="yes"/>
      <point x="107" y="490"/>
      <point x="38" y="438"/>
      <point x="40" y="358" type="curve" smooth="yes"/>
      <point x="42" y="276"/>
      <point x="111" y="228"/>
    </contour>
    <contour>
      <point x="130" y="51" type="curve" smooth="yes"/>
      <point x="163" y="51"/>
      <point x="178" y="71"/>
      <point x="178" y="108" type="curve" smooth="yes"/>
      <point x="178" y="165" type="line"/>
      <point x="122" y="130" type="line"/>
      <point x="165" y="130"/>
      <point x="203" y="112"/>
      <point x="250" y="79" type="curve"/>
      <point x="252" y="118" type="line"/>
      <point x="206" y="169"/>
      <point x="161" y="194"/>
      <point x="115" y="194" type="curve" smooth="yes"/>
      <point x="71" y="194"/>
      <point x="40" y="166"/>
      <point x="40" y="126" type="curve" smooth="yes"/>
      <point x="40" y="85"/>
      <point x="81" y="51"/>
    </contour>
    <contour>
      <point x="384" y="-26" type="curve"/>
      <point x="394" y="-9" type="line"/>
      <point x="341" y="22"/>
      <point x="337" y="28"/>
      <point x="337" y="63" type="curve" smooth="yes"/>
      <point x="337" y="191" type="line"/>
      <point x="237" y="203" type="line"/>
      <point x="237" y="48" type="line"/>
      <point x="285" y="20"/>
      <point x="324" y="3"/>
    </contour>
    <contour>
      <point x="544" y="-26" type="curve"/>
      <point x="554" y="-11" type="line"/>
      <point x="503" y="22"/>
      <point x="499" y="28"/>
      <point x="499" y="63" type="curve" smooth="yes"/>
      <point x="499" y="191" type="line"/>
      <point x="399" y="191" type="line"/>
      <point x="399" y="55" type="line"/>
      <point x="447" y="27"/>
      <point x="483" y="7"/>
    </contour>
    <contour>
      <point x="337" y="172" type="line"/>
      <point x="337" y="227" type="line" smooth="yes"/>
      <point x="337" y="269"/>
      <point x="349" y="286"/>
      <point x="379" y="286" type="curve" smooth="yes"/>
      <point x="391" y="286"/>
      <point x="399" y="280"/>
      <point x="399" y="265" type="curve" smooth="yes"/>
      <point x="399" y="186" type="line"/>
      <point x="499" y="186" type="line"/>
      <point x="499" y="234" type="line" smooth="yes"/>
      <point x="499" y="284"/>
      <point x="407" y="350"/>
      <point x="341" y="350" type="curve" smooth="yes"/>
      <point x="270" y="350"/>
      <point x="237" y="314"/>
      <point x="237" y="241" type="curve" smooth="yes"/>
      <point x="237" y="223" type="line"/>
    </contour>
    <contour>
      <point x="183" y="553" type="curve" smooth="yes"/>
      <point x="256" y="553"/>
      <point x="381" y="561"/>
      <point x="434" y="572" type="curve"/>
      <point x="471" y="646" type="line"/>
      <point x="462" y="654" type="line"/>
      <point x="5" y="654" type="line"/>
      <point x="0" y="646" type="line"/>
      <point x="15" y="584"/>
      <point x="75" y="553"/>
    </contour>
    <contour>
      <point x="464" y="370" type="line"/>
      <point x="471" y="375" type="line"/>
      <point x="471" y="646" type="line"/>
      <point x="371" y="611" type="line"/>
      <point x="371" y="439" type="line"/>
    </contour>
  </outline>
</glyph>
<glyph name="Pha.rj" format="2">
  <advance width="708"/>
  <unicode hex="11426"/>
  <anchor x="367" y="36" name="bottom"/>
  <anchor x="394" y="33" name="bottom2"/>
  <anchor x="336" y="30" name="bottom3"/>
  <anchor x="79" y="604" name="top"/>
  <anchor x="656" y="646" name="top1"/>
  <anchor x="371" y="646" name="top2"/>
  <outline>
    <contour>
      <point x="696" y="100" type="curve"/>
      <point x="708" y="117" type="line"/>
      <point x="663" y="150"/>
      <point x="656" y="167"/>
      <point x="656" y="210" type="curve" smooth="yes"/>
      <point x="656" y="646" type="line"/>
      <point x="556" y="639" type="line"/>
      <point x="556" y="210" type="line"/>
      <point x="567" y="232" type="line"/>
      <point x="524" y="260"/>
      <point x="468" y="309"/>
      <point x="442" y="332" type="curve"/>
      <point x="423" y="271" type="line"/>
      <point x="513" y="210"/>
      <point x="583" y="170"/>
    </contour>
    <contour>
      <point x="419" y="569" type="line"/>
      <point x="627" y="569" type="line"/>
      <point x="656" y="646" type="line"/>
      <point x="648" y="654" type="line"/>
      <point x="419" y="654" type="line"/>
    </contour>
    <component base="Pa.rj"/>
  </outline>
</glyph>
<glyph name="Ba.rj" format="2">
  <advance width="481"/>
  <unicode hex="11427"/>
  <anchor x="327" y="36" name="bottom"/>
  <anchor x="326" y="49" name="bottom2"/>
  <anchor x="316" y="29" name="bottom3"/>
  <anchor x="74" y="604" name="top"/>
  <anchor x="426" y="646" name="top1"/>
  <anchor x="234" y="646" name="top2"/>
  <outline>
    <contour>
      <point x="515" y="-26" type="curve"/>
      <point x="525" y="-8" type="line"/>
      <point x="470" y="27" type="line" smooth="yes"/>
      <point x="434" y="50"/>
      <point x="426" y="64"/>
      <point x="426" y="104" type="curve" smooth="yes"/>
      <point x="426" y="646" type="line"/>
      <point x="326" y="602" type="line"/>
      <point x="326" y="407" type="line"/>
      <point x="348" y="408" type="line"/>
      <point x="316" y="449"/>
      <point x="260" y="474"/>
      <point x="195" y="474" type="curve" smooth="yes"/>
      <point x="97" y="474"/>
      <point x="31" y="415"/>
      <point x="31" y="325" type="curve" smooth="yes"/>
      <point x="31" y="226"/>
      <point x="96" y="167"/>
      <point x="366" y="42" type="curve" smooth="yes"/>
      <point x="420" y="17"/>
      <point x="471" y="-7"/>
    </contour>
    <contour>
      <point x="227" y="133" type="curve"/>
      <point x="263" y="140" type="line"/>
      <point x="191" y="175"/>
      <point x="149" y="229"/>
      <point x="149" y="285" type="curve" smooth="yes"/>
      <point x="149" y="345"/>
      <point x="189" y="380"/>
      <point x="257" y="380" type="curve" smooth="yes"/>
      <point x="281" y="380"/>
      <point x="304" y="375"/>
      <point x="336" y="363" type="curve"/>
      <point x="326" y="390" type="line"/>
      <point x="326" y="247" type="line"/>
      <point x="374" y="284" type="line"/>
      <point x="345" y="294"/>
      <point x="328" y="297"/>
      <point x="310" y="297" type="curve" smooth="yes"/>
      <point x="248" y="297"/>
      <point x="213" y="254"/>
      <point x="213" y="201" type="curve" smooth="yes"/>
      <point x="213" y="179"/>
      <point x="217" y="158"/>
    </contour>
    <contour>
      <point x="173" y="542" type="curve" smooth="yes"/>
      <point x="252" y="542"/>
      <point x="311" y="550"/>
      <point x="379" y="571" type="curve"/>
      <point x="426" y="646" type="line"/>
      <point x="417" y="654" type="line"/>
      <point x="-4" y="654" type="line"/>
      <point x="-9" y="646" type="line"/>
      <point x="18" y="576"/>
      <point x="82" y="542"/>
    </contour>
  </outline>
</glyph>
<glyph name="Mha.rj" format="2">
  <advance width="733"/>
  <unicode hex="1142A"/>
  <anchor x="414" y="19" name="bottom"/>
  <anchor x="414" y="69" name="bottom2"/>
  <anchor x="415" y="29" name="bottom3"/>
  <anchor x="514" y="646" name="top1"/>
  <anchor x="377" y="646" name="top2"/>
  <anchor x="74" y="603" name="top_alt"/>
  <outline>
    <contour>
      <point x="783" y="-26" type="curve"/>
      <point x="793" y="-8" type="line"/>
      <point x="749" y="17" type="line" smooth="yes"/>
      <point x="709" y="40"/>
      <point x="694" y="61"/>
      <point x="694" y="102" type="curve" smooth="yes"/>
      <point x="694" y="192" type="line" smooth="yes"/>
      <point x="694" y="243"/>
      <point x="674" y="265"/>
      <point x="614" y="293" type="curve" smooth="yes"/>
      <point x="555" y="321"/>
      <point x="506" y="342"/>
      <point x="467" y="358" type="curve"/>
      <point x="465" y="305" type="line"/>
      <point x="484" y="300"/>
      <point x="511" y="291"/>
      <point x="537" y="281" type="curve" smooth="yes"/>
      <point x="583" y="263"/>
      <point x="594" y="253"/>
      <point x="594" y="211" type="curve" smooth="yes"/>
      <point x="594" y="69" type="line"/>
      <point x="627" y="50"/>
      <point x="701" y="12"/>
    </contour>
    <contour>
      <point x="280" y="52" type="curve" smooth="yes"/>
      <point x="321" y="52"/>
      <point x="344" y="74"/>
      <point x="344" y="113" type="curve" smooth="yes"/>
      <point x="344" y="200" type="line"/>
      <point x="256" y="225" type="line"/>
      <point x="185" y="225"/>
      <point x="139" y="200"/>
      <point x="139" y="150" type="curve" smooth="yes"/>
      <point x="139" y="99"/>
      <point x="203" y="52"/>
    </contour>
    <contour>
      <point x="465" y="80" type="curve"/>
      <point x="472" y="109" type="line"/>
      <point x="431" y="168"/>
      <point x="362" y="217"/>
      <point x="308" y="232" type="curve"/>
      <point x="313" y="148" type="line"/>
      <point x="354" y="146"/>
      <point x="404" y="123"/>
    </contour>
    <contour>
      <point x="344" y="182" type="line"/>
      <point x="344" y="337" type="line"/>
      <point x="249" y="337" type="line"/>
      <point x="249" y="199" type="line"/>
    </contour>
    <contour>
      <point x="196" y="278" type="curve"/>
      <point x="195" y="284" type="line"/>
      <point x="144" y="300"/>
      <point x="114" y="328"/>
      <point x="114" y="358" type="curve" smooth="yes"/>
      <point x="114" y="410"/>
      <point x="160" y="446"/>
      <point x="225" y="446" type="curve" smooth="yes"/>
      <point x="254" y="446"/>
      <point x="290" y="442"/>
      <point x="336" y="430" type="curve"/>
      <point x="307" y="465" type="line"/>
      <point x="269" y="499"/>
      <point x="229" y="516"/>
      <point x="168" y="516" type="curve" smooth="yes"/>
      <point x="85" y="516"/>
      <point x="27" y="467"/>
      <point x="27" y="399" type="curve" smooth="yes"/>
      <point x="27" y="324"/>
      <point x="83" y="284"/>
    </contour>
    <contour>
      <point x="196" y="278" type="line"/>
      <point x="217" y="307"/>
      <point x="262" y="331"/>
      <point x="308" y="331" type="curve" smooth="yes"/>
      <point x="359" y="331"/>
      <point x="393" y="324"/>
      <point x="443" y="309" type="curve"/>
      <point x="446" y="354" type="line"/>
      <point x="383" y="382"/>
      <point x="314" y="403"/>
      <point x="261" y="403" type="curve" smooth="yes"/>
      <point x="188" y="403"/>
      <point x="139" y="377"/>
      <point x="114" y="323" type="curve"/>
    </contour>
    <contour>
      <point x="183" y="562" type="curve" smooth="yes"/>
      <point x="204" y="562"/>
      <point x="292" y="566"/>
      <point x="325" y="573" type="curve"/>
      <point x="343" y="646" type="line"/>
      <point x="334" y="654" type="line"/>
      <point x="5" y="654" type="line"/>
      <point x="0" y="646" type="line"/>
      <point x="25" y="584"/>
      <point x="85" y="562"/>
    </contour>
    <contour>
      <point x="336" y="430" type="line"/>
      <point x="343" y="435" type="line"/>
      <point x="343" y="611" type="line"/>
      <point x="243" y="611" type="line"/>
      <point x="243" y="461" type="line"/>
    </contour>
    <contour>
      <point x="414" y="198" type="line"/>
      <point x="514" y="198" type="line"/>
      <point x="514" y="608" type="line"/>
      <point x="414" y="608" type="line"/>
    </contour>
    <contour>
      <point x="236" y="569" type="line"/>
      <point x="667" y="569" type="line"/>
      <point x="670" y="576" type="line"/>
      <point x="628" y="654" type="line"/>
      <point x="236" y="654" type="line"/>
    </contour>
    <component base="_terminal" xOffset="414"/>
  </outline>
</glyph>
<glyph name="Ra.rj" format="2">
  <advance width="460"/>
  <unicode hex="1142C"/>
  <anchor x="305" y="30" name="bottom3"/>
  <anchor x="84" y="594" name="top"/>
  <anchor x="405" y="646" name="top1"/>
  <anchor x="222" y="646" name="top2"/>
  <anchor x="305" y="40" name="bottom2"/>
  <outline>
    <contour>
      <point x="224" y="172" type="curve" smooth="yes"/>
      <point x="287" y="172"/>
      <point x="349" y="203"/>
      <point x="349" y="260" type="curve"/>
      <point x="320" y="400" type="line"/>
      <point x="295" y="423"/>
      <point x="253" y="440"/>
      <point x="217" y="440" type="curve" smooth="yes"/>
      <point x="106" y="440"/>
      <point x="100" y="341"/>
      <point x="56" y="341" type="curve" smooth="yes"/>
      <point x="45" y="341"/>
      <point x="31" y="349"/>
      <point x="18" y="365" type="curve"/>
      <point x="0" y="352" type="line"/>
      <point x="62" y="224"/>
      <point x="135" y="172"/>
    </contour>
    <contour>
      <point x="305" y="213" type="line"/>
      <point x="405" y="213" type="line"/>
      <point x="405" y="646" type="line"/>
      <point x="305" y="618" type="line"/>
    </contour>
    <contour>
      <point x="197" y="532" type="curve" smooth="yes"/>
      <point x="250" y="532"/>
      <point x="316" y="544"/>
      <point x="371" y="571" type="curve"/>
      <point x="405" y="646" type="line"/>
      <point x="396" y="654" type="line"/>
      <point x="5" y="654" type="line"/>
      <point x="0" y="646" type="line"/>
      <point x="26" y="570"/>
      <point x="111" y="532"/>
    </contour>
    <component base="_terminal" xOffset="305"/>
  </outline>
</glyph>
<glyph name="Rha.rj" format="2">
  <advance width="498"/>
  <unicode hex="1142D"/>
  <anchor x="220" y="110" name="bottom"/>
  <anchor x="190" y="57" name="bottom2"/>
  <anchor x="195" y="9" name="bottom3"/>
  <anchor x="94" y="614" name="top"/>
  <anchor x="435" y="646" name="top1"/>
  <anchor x="259" y="646" name="top2"/>
  <outline>
    <contour>
      <point x="261" y="123" type="curve"/>
      <point x="239" y="180" type="line"/>
      <point x="186" y="199"/>
      <point x="155" y="244"/>
      <point x="155" y="300" type="curve" smooth="yes"/>
      <point x="155" y="363"/>
      <point x="201" y="401"/>
      <point x="278" y="401" type="curve" smooth="yes"/>
      <point x="319" y="401"/>
      <point x="370" y="390"/>
      <point x="428" y="365" type="curve"/>
      <point x="361" y="441" type="line"/>
      <point x="321" y="469"/>
      <point x="264" y="490"/>
      <point x="209" y="490" type="curve" smooth="yes"/>
      <point x="100" y="490"/>
      <point x="38" y="430"/>
      <point x="40" y="338" type="curve" smooth="yes"/>
      <point x="42" y="252"/>
      <point x="105" y="176"/>
    </contour>
    <contour>
      <point x="373" y="-31" type="curve"/>
      <point x="381" y="-13" type="line"/>
      <point x="337" y="9" type="line" smooth="yes"/>
      <point x="309" y="23"/>
      <point x="301" y="37"/>
      <point x="301" y="70" type="curve" smooth="yes"/>
      <point x="301" y="188" type="line"/>
      <point x="206" y="178" type="line"/>
      <point x="206" y="117"/>
      <point x="191" y="99"/>
      <point x="145" y="99" type="curve" smooth="yes"/>
      <point x="129" y="99"/>
      <point x="109" y="104"/>
      <point x="73" y="117" type="curve"/>
      <point x="65" y="98" type="line"/>
      <point x="147" y="61"/>
      <point x="329" y="-15"/>
    </contour>
    <contour>
      <point x="552" y="-31" type="curve"/>
      <point x="562" y="-13" type="line"/>
      <point x="518" y="12" type="line" smooth="yes"/>
      <point x="478" y="35"/>
      <point x="463" y="56"/>
      <point x="463" y="97" type="curve" smooth="yes"/>
      <point x="463" y="200" type="line"/>
      <point x="363" y="200" type="line"/>
      <point x="363" y="60" type="line"/>
      <point x="396" y="41"/>
      <point x="470" y="7"/>
    </contour>
    <contour>
      <point x="301" y="147" type="line"/>
      <point x="301" y="211" type="line" smooth="yes"/>
      <point x="301" y="258"/>
      <point x="314" y="281"/>
      <point x="342" y="281" type="curve" smooth="yes"/>
      <point x="354" y="281"/>
      <point x="363" y="272"/>
      <point x="363" y="257" type="curve" smooth="yes"/>
      <point x="363" y="181" type="line"/>
      <point x="463" y="181" type="line"/>
      <point x="463" y="228" type="line" smooth="yes"/>
      <point x="463" y="281"/>
      <point x="366" y="345"/>
      <point x="300" y="345" type="curve" smooth="yes"/>
      <point x="238" y="345"/>
      <point x="201" y="305"/>
      <point x="201" y="236" type="curve" smooth="yes"/>
      <point x="201" y="168" type="line"/>
    </contour>
    <contour>
      <point x="177" y="552" type="curve" smooth="yes"/>
      <point x="250" y="552"/>
      <point x="339" y="562"/>
      <point x="392" y="575" type="curve"/>
      <point x="435" y="646" type="line"/>
      <point x="426" y="654" type="line"/>
      <point x="5" y="654" type="line"/>
      <point x="0" y="646" type="line"/>
      <point x="15" y="587"/>
      <point x="69" y="552"/>
    </contour>
    <contour>
      <point x="428" y="365" type="line"/>
      <point x="435" y="370" type="line"/>
      <point x="435" y="646" type="line"/>
      <point x="335" y="611" type="line"/>
      <point x="335" y="434" type="line"/>
    </contour>
  </outline>
</glyph>
<glyph name="matraA.rj" format="2">
  <advance width="199"/>
  <unicode hex="11435"/>
  <anchor x="144" y="648" name="top1"/>
  <anchor x="-173" y="646" name="top2"/>
  <anchor x="44" y="35" name="bottom"/>
  <anchor x="44" y="40" name="bottom2"/>
  <anchor x="75" y="0" name="bottom3"/>
  <outline>
    <contour>
      <point x="44" y="213" type="line"/>
      <point x="144" y="213" type="line"/>
      <point x="144" y="648" type="line"/>
      <point x="44" y="608" type="line"/>
    </contour>
    <contour>
      <point x="-128" y="569" type="line"/>
      <point x="114" y="569" type="line"/>
      <point x="144" y="648" type="line"/>
      <point x="135" y="654" type="line"/>
      <point x="-128" y="654" type="line"/>
    </contour>
    <component base="_terminal" xOffset="44"/>
  </outline>
</glyph>
<glyph name="matraI.rj" format="2">
  <advance width="174"/>
  <unicode hex="11436"/>
  <anchor x="44" y="35" name="bottom"/>
  <anchor x="44" y="40" name="bottom2"/>
  <anchor x="75" y="0" name="bottom3"/>
  <outline>
    <contour>
      <point x="144" y="614" type="line"/>
      <point x="106" y="630"/>
      <point x="88" y="648"/>
      <point x="88" y="678" type="curve" smooth="yes"/>
      <point x="88" y="705"/>
      <point x="112" y="723"/>
      <point x="146" y="723" type="curve" smooth="yes"/>
      <point x="184" y="723"/>
      <point x="231" y="691"/>
      <point x="248" y="638" type="curve"/>
      <point x="290" y="654" type="line"/>
      <point x="256" y="780"/>
      <point x="178" y="814"/>
      <point x="117" y="814" type="curve" smooth="yes"/>
      <point x="50" y="814"/>
      <point x="5" y="777"/>
      <point x="5" y="723" type="curve" smooth="yes"/>
      <point x="5" y="696"/>
      <point x="20" y="666"/>
      <point x="51" y="646" type="curve"/>
    </contour>
    <contour>
      <point x="44" y="213" type="line"/>
      <point x="144" y="213" type="line"/>
      <point x="144" y="614" type="line"/>
      <point x="44" y="654" type="line"/>
    </contour>
    <component base="_terminal" xOffset="44"/>
  </outline>
</glyph>
<glyph name="matraE.rj" format="2">
  <unicode hex="1143E"/>
  <anchor x="112" y="606" name="_top"/>
  <outline>
    <contour>
      <point x="82" y="471" type="curve" smooth="yes"/>
      <point x="102" y="471"/>
      <point x="118" y="483"/>
      <point x="118" y="504" type="curve" smooth="yes"/>
      <point x="118" y="521"/>
      <point x="105" y="533"/>
      <point x="86" y="533" type="curve" smooth="yes"/>
      <point x="70" y="533"/>
      <point x="58" y="523"/>
      <point x="57" y="507" type="curve"/>
      <point x="66" y="485" type="line"/>
      <point x="100" y="481" type="line"/>
      <point x="83" y="490"/>
      <point x="73" y="505"/>
      <point x="73" y="526" type="curve" smooth="yes"/>
      <point x="73" y="553"/>
      <point x="95" y="572"/>
      <point x="133" y="574" type="curve"/>
      <point x="112" y="606" type="line"/>
      <point x="56" y="602"/>
      <point x="33" y="564"/>
      <point x="33" y="524" type="curve" smooth="yes"/>
      <point x="33" y="488"/>
      <point x="58" y="471"/>
    </contour>
  </outline>
</glyph>
<glyph name="Chandrabindu.rj" format="2">
  <unicode hex="11443"/>
  <anchor x="219" y="646" name="_top2"/>
  <outline>
    <contour>
      <point x="210" y="753" type="curve" smooth="yes"/>
      <point x="268" y="753"/>
      <point x="301" y="780"/>
      <point x="301" y="818" type="curve" smooth="yes"/>
      <point x="301" y="892"/>
      <point x="212" y="893"/>
      <point x="212" y="916" type="curve" smooth="yes"/>
      <point x="212" y="931"/>
      <point x="236" y="931"/>
      <point x="236" y="946" type="curve" smooth="yes"/>
      <point x="236" y="959"/>
      <point x="218" y="966"/>
      <point x="218" y="975" type="curve" smooth="yes"/>
      <point x="218" y="979"/>
      <point x="220" y="984"/>
      <point x="230" y="989" type="curve"/>
      <point x="226" y="1000" type="line"/>
      <point x="200" y="996"/>
      <point x="189" y="986"/>
      <point x="189" y="975" type="curve" smooth="yes"/>
      <point x="189" y="965"/>
      <point x="201" y="961"/>
      <point x="201" y="952" type="curve" smooth="yes"/>
      <point x="201" y="937"/>
      <point x="167" y="934"/>
      <point x="167" y="911" type="curve" smooth="yes"/>
      <point x="167" y="869"/>
      <point x="258" y="878"/>
      <point x="258" y="827" type="curve" smooth="yes"/>
      <point x="258" y="805"/>
      <point x="239" y="792"/>
      <point x="208" y="792" type="curve" smooth="yes"/>
      <point x="183" y="792"/>
      <point x="166" y="802"/>
      <point x="166" y="818" type="curve" smooth="yes"/>
      <point x="166" y="827"/>
      <point x="173" y="833"/>
      <point x="183" y="833" type="curve" smooth="yes"/>
      <point x="198" y="833"/>
      <point x="204" y="825"/>
      <point x="200" y="814" type="curve"/>
      <point x="209" y="810" type="line"/>
      <point x="219" y="813"/>
      <point x="225" y="822"/>
      <point x="225" y="831" type="curve" smooth="yes"/>
      <point x="225" y="848"/>
      <point x="207" y="862"/>
      <point x="180" y="862" type="curve" smooth="yes"/>
      <point x="145" y="862"/>
      <point x="123" y="844"/>
      <point x="123" y="815" type="curve" smooth="yes"/>
      <point x="123" y="780"/>
      <point x="159" y="753"/>
    </contour>
    <contour>
      <point x="256" y="683" type="curve" smooth="yes"/>
      <point x="302" y="683"/>
      <point x="343" y="696"/>
      <point x="372" y="723" type="curve"/>
      <point x="323" y="769" type="line"/>
      <point x="295" y="739"/>
      <point x="257" y="723"/>
      <point x="214" y="723" type="curve" smooth="yes"/>
      <point x="173" y="723"/>
      <point x="131" y="737"/>
      <point x="99" y="765" type="curve"/>
      <point x="85" y="752" type="line"/>
      <point x="128" y="707"/>
      <point x="193" y="683"/>
    </contour>
  </outline>
</glyph>
<glyph name="Om.rj" format="2">
  <advance width="576"/>
  <unicode hex="11449"/>
  <anchor x="421" y="35" name="bottom"/>
  <anchor x="421" y="40" name="bottom2"/>
  <anchor x="452" y="0" name="bottom3"/>
  <outline>
    <contour>
      <point x="234" y="85" type="curve" smooth="yes"/>
      <point x="306" y="85"/>
      <point x="356" y="124"/>
      <point x="356" y="220" type="curve" smooth="yes"/>
      <point x="356" y="629" type="line"/>
      <point x="256" y="610" type="line"/>
      <point x="256" y="244" type="line" smooth="yes"/>
      <point x="256" y="188"/>
      <point x="226" y="158"/>
      <point x="167" y="158" type="curve" smooth="yes"/>
      <point x="125" y="158"/>
      <point x="96" y="168"/>
      <point x="37" y="203" type="curve"/>
      <point x="25" y="187" type="line"/>
      <point x="92" y="123"/>
      <point x="168" y="85"/>
    </contour>
    <contour>
      <point x="145" y="220" type="curve" smooth="yes"/>
      <point x="178" y="220"/>
      <point x="195" y="237"/>
      <point x="195" y="276" type="curve" smooth="yes"/>
      <point x="195" y="291"/>
      <point x="192" y="327"/>
      <point x="189" y="348" type="curve"/>
      <point x="165" y="309" type="line"/>
      <point x="210" y="306"/>
      <point x="244" y="297"/>
      <point x="270" y="283" type="curve"/>
      <point x="276" y="329" type="line"/>
      <point x="239" y="357"/>
      <point x="187" y="374"/>
      <point x="138" y="374" type="curve" smooth="yes"/>
      <point x="88" y="374"/>
      <point x="52" y="344"/>
      <point x="52" y="302" type="curve" smooth="yes"/>
      <point x="52" y="260"/>
      <point x="95" y="220"/>
    </contour>
    <contour>
      <point x="256" y="382" type="curve"/>
      <point x="269" y="387" type="line"/>
      <point x="269" y="466"/>
      <point x="239" y="504"/>
      <point x="174" y="504" type="curve" smooth="yes"/>
      <point x="146" y="504"/>
      <point x="130" y="501"/>
      <point x="101" y="501" type="curve" smooth="yes"/>
      <point x="77" y="501"/>
      <point x="58" y="511"/>
      <point x="44" y="530" type="curve"/>
      <point x="30" y="522" type="line"/>
      <point x="47" y="456"/>
      <point x="80" y="424"/>
      <point x="131" y="424" type="curve" smooth="yes"/>
      <point x="159" y="424"/>
      <point x="179" y="426"/>
      <point x="201" y="426" type="curve" smooth="yes"/>
      <point x="241" y="426"/>
      <point x="256" y="412"/>
    </contour>
    <contour>
      <point x="480" y="197" type="curve"/>
      <point x="493" y="231" type="line"/>
      <point x="425" y="280"/>
      <point x="373" y="309"/>
      <point x="311" y="332" type="curve"/>
      <point x="309" y="274" type="line"/>
      <point x="375" y="254"/>
      <point x="423" y="235"/>
    </contour>
    <contour>
      <point x="169" y="554" type="curve" smooth="yes"/>
      <point x="217" y="554"/>
      <point x="277" y="559"/>
      <point x="317" y="572" type="curve"/>
      <point x="328" y="569" type="line"/>
      <point x="481" y="569" type="line"/>
      <point x="521" y="646" type="line"/>
      <point x="514" y="654" type="line"/>
      <point x="12" y="654" type="line"/>
      <point x="8" y="646" type="line"/>
      <point x="32" y="587"/>
      <point x="86" y="554"/>
    </contour>
    <contour>
      <point x="421" y="176" type="line"/>
      <point x="521" y="176" type="line"/>
      <point x="521" y="646" type="line"/>
      <point x="421" y="634" type="line"/>
    </contour>
    <component base="_terminal" xOffset="421"/>
    <component base="Chandrabindu.rj" xOffset="62"/>
  </outline>
</glyph>
<glyph name="Three.rj" format="2">
  <advance width="557"/>
  <unicode hex="11453"/>
  <outline>
    <contour>
      <point x="391" y="-24" type="curve" smooth="yes"/>
      <point x="437" y="-24"/>
      <point x="471" y="5"/>
      <point x="471" y="51" type="curve" smooth="yes"/>
      <point x="471" y="85"/>
      <point x="442" y="119"/>
      <point x="324" y="196" type="curve" smooth="yes"/>
      <point x="190" y="283"/>
      <point x="163" y="338"/>
      <point x="163" y="427" type="curve" smooth="yes"/>
      <point x="163" y="497"/>
      <point x="205" y="553"/>
      <point x="258" y="572" type="curve" smooth="yes"/>
      <point x="272" y="578" type="line" smooth="yes"/>
      <point x="280" y="581"/>
      <point x="297" y="583"/>
      <point x="305" y="583" type="curve" smooth="yes"/>
      <point x="365" y="583"/>
      <point x="408" y="549"/>
      <point x="408" y="500" type="curve" smooth="yes"/>
      <point x="408" y="455"/>
      <point x="373" y="425"/>
      <point x="315" y="419" type="curve"/>
      <point x="315" y="401" type="line"/>
      <point x="361" y="395"/>
      <point x="388" y="376"/>
      <point x="388" y="350" type="curve" smooth="yes"/>
      <point x="388" y="326"/>
      <point x="368" y="309"/>
      <point x="339" y="309" type="curve" smooth="yes"/>
      <point x="328" y="309"/>
      <point x="315" y="312"/>
      <point x="304" y="316" type="curve"/>
      <point x="296" y="302" type="line"/>
      <point x="330" y="273"/>
      <point x="370" y="255"/>
      <point x="405" y="255" type="curve" smooth="yes"/>
      <point x="458" y="255"/>
      <point x="487" y="278"/>
      <point x="487" y="322" type="curve" smooth="yes"/>
      <point x="487" y="361"/>
      <point x="447" y="390"/>
      <point x="379" y="401" type="curve"/>
      <point x="402" y="372" type="line"/>
      <point x="473" y="378"/>
      <point x="503" y="411"/>
      <point x="503" y="462" type="curve" smooth="yes"/>
      <point x="503" y="561"/>
      <point x="378" y="654"/>
      <point x="252" y="654" type="curve" smooth="yes"/>
      <point x="126" y="654"/>
      <point x="35" y="585"/>
      <point x="35" y="471" type="curve" smooth="yes"/>
      <point x="35" y="362"/>
      <point x="103" y="294"/>
      <point x="258" y="191" type="curve" smooth="yes"/>
      <point x="336" y="139"/>
      <point x="358" y="113"/>
      <point x="358" y="82" type="curve" smooth="yes"/>
      <point x="358" y="59"/>
      <point x="339" y="43"/>
      <point x="313" y="43" type="curve" smooth="yes"/>
      <point x="301" y="43"/>
      <point x="290" y="46"/>
      <point x="273" y="54" type="curve"/>
      <point x="263" y="39" type="line"/>
      <point x="305" y="1"/>
      <point x="351" y="-24"/>
    </contour>
    <contour>
      <point x="289" y="451" type="curve" smooth="yes"/>
      <point x="327" y="451"/>
      <point x="354" y="477"/>
      <point x="354" y="514" type="curve" smooth="yes"/>
      <point x="354" y="567"/>
      <point x="289" y="601"/>
      <point x="196" y="595" type="curve"/>
      <point x="179" y="580" type="line"/>
      <point x="237" y="580"/>
      <point x="278" y="556"/>
      <point x="278" y="521" type="curve" smooth="yes"/>
      <point x="278" y="504"/>
      <point x="265" y="493"/>
      <point x="247" y="493" type="curve" smooth="yes"/>
      <point x="240" y="493"/>
      <point x="233" y="494"/>
      <point x="225" y="497" type="curve"/>
      <point x="217" y="483" type="line"/>
      <point x="235" y="463"/>
      <point x="261" y="451"/>
    </contour>
  </outline>
</glyph>
<glyph name="Four.rj" format="2">
  <advance width="552"/>
  <unicode hex="11454"/>
  <outline>
    <contour>
      <point x="348" y="21" type="curve" smooth="yes"/>
      <point x="449" y="21"/>
      <point x="516" y="94"/>
      <point x="516" y="201" type="curve" smooth="yes"/>
      <point x="516" y="312"/>
      <point x="423" y="422"/>
      <point x="329" y="422" type="curve" smooth="yes"/>
      <point x="268" y="422"/>
      <point x="226" y="382"/>
      <point x="186" y="313" type="curve"/>
      <point x="226" y="314" type="line"/>
      <point x="138" y="418" type="line"/>
      <point x="149" y="391" type="line"/>
      <point x="181" y="480"/>
      <point x="248" y="524"/>
      <point x="324" y="524" type="curve" smooth="yes"/>
      <point x="385" y="524"/>
      <point x="443" y="496"/>
      <point x="500" y="440" type="curve"/>
      <point x="517" y="457" type="line"/>
      <point x="444" y="564"/>
      <point x="364" y="621"/>
      <point x="265" y="621" type="curve" smooth="yes"/>
      <point x="161" y="621"/>
      <point x="89" y="577"/>
      <point x="51" y="474" type="curve" smooth="yes"/>
      <point x="45" y="457"/>
      <point x="47" y="443"/>
      <point x="61" y="429" type="curve" smooth="yes"/>
      <point x="124" y="362"/>
      <point x="194" y="290"/>
      <point x="258" y="230" type="curve"/>
      <point x="269" y="232" type="line"/>
      <point x="307" y="281"/>
      <point x="352" y="313"/>
      <point x="385" y="313" type="curve" smooth="yes"/>
      <point x="412" y="323"/>
      <point x="428" y="303"/>
      <point x="428" y="258" type="curve" smooth="yes"/>
      <point x="428" y="189"/>
      <point x="356" y="127"/>
      <point x="283" y="127" type="curve" smooth="yes"/>
      <point x="210" y="127"/>
      <point x="163" y="164"/>
      <point x="54" y="270" type="curve"/>
      <point x="35" y="255" type="line"/>
      <point x="153" y="98"/>
      <point x="233" y="21"/>
    </contour>
  </outline>
</glyph>
<glyph name="Seven.rj" format="2">
  <advance width="461"/>
  <unicode hex="11457"/>
  <anchor x="296" y="35" name="bottom"/>
  <anchor x="296" y="40" name="bottom2"/>
  <anchor x="327" y="0" name="bottom3"/>
  <outline>
    <contour>
      <point x="114" y="413" type="line"/>
      <point x="123" y="419" type="line"/>
      <point x="123" y="473"/>
      <point x="148" y="499"/>
      <point x="189" y="499" type="curve" smooth="yes"/>
      <point x="237" y="499"/>
      <point x="278" y="472"/>
      <point x="307" y="425" type="curve"/>
      <point x="343" y="442" type="line"/>
      <point x="278" y="559"/>
      <point x="205" y="616"/>
      <point x="120" y="616" type="curve" smooth="yes"/>
      <point x="39" y="616"/>
      <point x="0" y="569"/>
      <point x="0" y="472" type="curve"/>
    </contour>
    <contour>
      <point x="296" y="213" type="line"/>
      <point x="396" y="213" type="line"/>
      <point x="396" y="608" type="line"/>
      <point x="306" y="654" type="line"/>
      <point x="296" y="646" type="line"/>
    </contour>
    <component base="_terminal" xOffset="296"/>
  </outline>
</glyph>
<glyph name="Jihvamuliya.rj" format="2">
  <advance width="527"/>
  <unicode hex="11460"/>
  <outline>
    <contour>
      <point x="322" y="351" type="line"/>
      <point x="500" y="469" type="line"/>
      <point x="498" y="477" type="line"/>
      <point x="421" y="554" type="line"/>
      <point x="8" y="554" type="line"/>
      <point x="3" y="535" type="line"/>
      <point x="196" y="383" type="line"/>
      <point x="284" y="382" type="line"/>
    </contour>
    <contour>
      <point x="85" y="218" type="line"/>
      <point x="498" y="218" type="line"/>
      <point x="503" y="237" type="line"/>
      <point x="310" y="389" type="line"/>
      <point x="222" y="400" type="line"/>
      <point x="184" y="421" type="line"/>
      <point x="6" y="303" type="line"/>
      <point x="8" y="295" type="line"/>
    </contour>
    <contour>
      <point x="172" y="309" type="line"/>
      <point x="266" y="360" type="line"/>
      <point x="333" y="309" type="line"/>
    </contour>
    <contour>
      <point x="240" y="412" type="line"/>
      <point x="173" y="463" type="line"/>
      <point x="334" y="463" type="line"/>
    </contour>
  </outline>
</glyph>
<glyph name="Upadhmaniya.rj" format="2">
  <advance width="530"/>
  <unicode hex="11461"/>
  <outline>
    <contour>
      <point x="227" y="328" type="curve" smooth="yes"/>
      <point x="284" y="328"/>
      <point x="314" y="358"/>
      <point x="314" y="402" type="curve"/>
      <point x="257" y="418" type="line"/>
      <point x="280" y="372"/>
      <point x="335" y="328"/>
      <point x="403" y="328" type="curve" smooth="yes"/>
      <point x="471" y="328"/>
      <point x="506" y="367"/>
      <point x="506" y="424" type="curve" smooth="yes"/>
      <point x="506" y="498"/>
      <point x="445" y="524"/>
      <point x="383" y="526" type="curve"/>
      <point x="374" y="516" type="line"/>
      <point x="384" y="500"/>
      <point x="395" y="474"/>
      <point x="395" y="454" type="curve" smooth="yes"/>
      <point x="395" y="430"/>
      <point x="387" y="405"/>
      <point x="349" y="405" type="curve" smooth="yes"/>
      <point x="308" y="405"/>
      <point x="283" y="444"/>
      <point x="267" y="499" type="curve"/>
      <point x="236" y="489" type="line"/>
      <point x="244" y="411"/>
      <point x="211" y="393"/>
      <point x="181" y="393" type="curve" smooth="yes"/>
      <point x="158" y="393"/>
      <point x="139" y="410"/>
      <point x="139" y="437" type="curve" smooth="yes"/>
      <point x="139" y="455"/>
      <point x="148" y="470"/>
      <point x="158" y="477" type="curve"/>
      <point x="158" y="484" type="line"/>
      <point x="116" y="507"/>
      <point x="76" y="526"/>
      <point x="36" y="542" type="curve"/>
      <point x="21" y="528"/>
      <point x="15" y="509"/>
      <point x="15" y="486" type="curve" smooth="yes"/>
      <point x="15" y="448"/>
      <point x="62" y="404"/>
      <point x="105" y="376" type="curve" smooth="yes"/>
      <point x="140" y="353"/>
      <point x="186" y="328"/>
    </contour>
  </outline>
</glyph>
<glyph name="BaBhaYa.rj" format="2">
  <advance width="671"/>
  <anchor x="516" y="39" name="bottom"/>
  <anchor x="545" y="27" name="bottom2"/>
  <anchor x="593" y="-26" name="bottom3"/>
  <anchor x="616" y="646" name="top1"/>
  <anchor x="330" y="646" name="top2"/>
  <anchor x="78" y="611" name="top_alt"/>
  <outline>
    <contour>
      <point x="289" y="-57" type="curve"/>
      <point x="301" y="-40" type="line"/>
      <point x="225" y="22"/>
      <point x="171" y="72"/>
      <point x="113" y="132" type="curve"/>
      <point x="93" y="110" type="line"/>
      <point x="149" y="75" type="line"/>
      <point x="171" y="149"/>
      <point x="230" y="206"/>
      <point x="301" y="206" type="curve" smooth="yes"/>
      <point x="334" y="206"/>
      <point x="374" y="193"/>
      <point x="397" y="163" type="curve"/>
      <point x="395" y="192" type="line"/>
      <point x="358" y="247"/>
      <point x="303" y="276"/>
      <point x="248" y="276" type="curve" smooth="yes"/>
      <point x="121" y="276"/>
      <point x="107" y="167"/>
      <point x="55" y="167" type="curve" smooth="yes"/>
      <point x="44" y="167"/>
      <point x="30" y="174"/>
      <point x="16" y="186" type="curve"/>
      <point x="0" y="168" type="line"/>
      <point x="101" y="78"/>
      <point x="167" y="26"/>
    </contour>
    <contour>
      <point x="705" y="-56" type="curve"/>
      <point x="606" y="21" type="line"/>
      <point x="543" y="63"/>
      <point x="488" y="85"/>
      <point x="436" y="85" type="curve" smooth="yes"/>
      <point x="389" y="85"/>
      <point x="354" y="65"/>
      <point x="342" y="30" type="curve"/>
      <point x="396" y="11" type="line"/>
      <point x="276" y="88" type="line"/>
      <point x="300" y="54" type="line"/>
      <point x="322" y="100"/>
      <point x="356" y="122"/>
      <point x="403" y="122" type="curve" smooth="yes"/>
      <point x="412" y="122"/>
      <point x="419" y="121"/>
      <point x="430" y="119" type="curve"/>
      <point x="436" y="124" type="line"/>
      <point x="360" y="176" type="line"/>
      <point x="285" y="183"/>
      <point x="235" y="138"/>
      <point x="215" y="87" type="curve"/>
      <point x="216" y="78" type="line"/>
      <point x="273" y="44"/>
      <point x="319" y="15"/>
      <point x="403" y="-30" type="curve"/>
      <point x="419" y="-25" type="line"/>
      <point x="438" y="5"/>
      <point x="466" y="19"/>
      <point x="500" y="19" type="curve" smooth="yes"/>
      <point x="545" y="19"/>
      <point x="607" y="-8"/>
    </contour>
    <contour>
      <point x="436" y="124" type="line"/>
      <point x="436" y="343" type="line"/>
      <point x="336" y="343" type="line"/>
      <point x="336" y="134" type="line"/>
    </contour>
    <contour>
      <point x="219" y="320" type="curve"/>
      <point x="295" y="337" type="line"/>
      <point x="199" y="355"/>
      <point x="161" y="377"/>
      <point x="161" y="414" type="curve" smooth="yes"/>
      <point x="161" y="448"/>
      <point x="191" y="470"/>
      <point x="252" y="470" type="curve" smooth="yes"/>
      <point x="290" y="470"/>
      <point x="335" y="463"/>
      <point x="361" y="451" type="curve"/>
      <point x="341" y="477" type="line"/>
      <point x="341" y="402" type="line"/>
      <point x="350" y="414" type="line"/>
      <point x="328" y="420"/>
      <point x="305" y="423"/>
      <point x="291" y="423" type="curve" smooth="yes"/>
      <point x="241" y="423"/>
      <point x="211" y="397"/>
      <point x="211" y="353" type="curve" smooth="yes"/>
      <point x="211" y="342"/>
      <point x="214" y="329"/>
    </contour>
    <contour>
      <point x="341" y="288" type="curve"/>
      <point x="436" y="322" type="line"/>
      <point x="436" y="626" type="line"/>
      <point x="336" y="586" type="line"/>
      <point x="336" y="483" type="line"/>
      <point x="350" y="505" type="line"/>
      <point x="297" y="524"/>
      <point x="245" y="533"/>
      <point x="198" y="533" type="curve" smooth="yes"/>
      <point x="104" y="533"/>
      <point x="48" y="496"/>
      <point x="48" y="434" type="curve" smooth="yes"/>
      <point x="48" y="358"/>
      <point x="133" y="319"/>
    </contour>
    <contour>
      <point x="181" y="569" type="curve" smooth="yes"/>
      <point x="265" y="569"/>
      <point x="341" y="576"/>
      <point x="398" y="591" type="curve"/>
      <point x="436" y="646" type="line"/>
      <point x="427" y="654" type="line"/>
      <point x="12" y="654" type="line"/>
      <point x="8" y="646" type="line"/>
      <point x="34" y="595"/>
      <point x="90" y="569"/>
    </contour>
    <contour>
      <point x="516" y="178" type="line"/>
      <point x="616" y="178" type="line"/>
      <point x="616" y="646" type="line"/>
      <point x="516" y="608" type="line"/>
    </contour>
    <contour>
      <point x="338" y="569" type="line"/>
      <point x="586" y="569" type="line"/>
      <point x="616" y="646" type="line"/>
      <point x="607" y="654" type="line"/>
      <point x="338" y="654" type="line"/>
    </contour>
    <component base="_terminal" xOffset="516" yOffset="-30"/>
  </outline>
</glyph>
<glyph name="BaCha.rj" format="2">
  <advance width="482"/>
  <anchor x="337" y="3" name="bottom"/>
  <anchor x="315" y="51" name="bottom2"/>
  <anchor x="326" y="-15" name="bottom3"/>
  <anchor x="74" y="624" name="top"/>
  <anchor x="427" y="646" name="top1"/>
  <anchor x="227" y="646" name="top2"/>
  <outline>
    <contour>
      <point x="427" y="221" type="line"/>
      <point x="427" y="646" type="line"/>
      <point x="332" y="608" type="line"/>
      <point x="332" y="445" type="line"/>
      <point x="361" y="440" type="line"/>
      <point x="323" y="479"/>
      <point x="259" y="507"/>
      <point x="189" y="507" type="curve" smooth="yes"/>
      <point x="95" y="507"/>
      <point x="39" y="461"/>
      <point x="39" y="389" type="curve" smooth="yes"/>
      <point x="39" y="332"/>
      <point x="86" y="285"/>
      <point x="166" y="265" type="curve"/>
      <point x="337" y="241" type="line"/>
    </contour>
    <contour>
      <point x="166" y="32" type="curve" smooth="yes"/>
      <point x="197" y="32"/>
      <point x="223" y="39"/>
      <point x="249" y="54" type="curve"/>
      <point x="233" y="84" type="line"/>
      <point x="209" y="73"/>
      <point x="195" y="68"/>
      <point x="182" y="68" type="curve" smooth="yes"/>
      <point x="152" y="68"/>
      <point x="135" y="82"/>
      <point x="135" y="106" type="curve" smooth="yes"/>
      <point x="135" y="133"/>
      <point x="155" y="149"/>
      <point x="189" y="149" type="curve"/>
      <point x="151" y="200" type="line"/>
      <point x="91" y="200"/>
      <point x="56" y="169"/>
      <point x="56" y="117" type="curve" smooth="yes"/>
      <point x="56" y="67"/>
      <point x="102" y="32"/>
    </contour>
    <contour>
      <point x="237" y="97" type="curve"/>
      <point x="249" y="123" type="line"/>
      <point x="219" y="139"/>
      <point x="176" y="172"/>
      <point x="141" y="203" type="curve"/>
      <point x="181" y="148" type="line"/>
      <point x="189" y="198"/>
      <point x="232" y="234"/>
      <point x="283" y="234" type="curve" smooth="yes"/>
      <point x="307" y="234"/>
      <point x="327" y="229"/>
      <point x="361" y="214" type="curve"/>
      <point x="371" y="248" type="line"/>
      <point x="146" y="271" type="line"/>
      <point x="121" y="250"/>
      <point x="105" y="226"/>
      <point x="87" y="226" type="curve" smooth="yes"/>
      <point x="82" y="226"/>
      <point x="71" y="229"/>
      <point x="55" y="238" type="curve"/>
      <point x="42" y="221" type="line"/>
      <point x="112" y="168"/>
      <point x="180" y="126"/>
    </contour>
    <contour>
      <point x="297" y="32" type="curve"/>
      <point x="331" y="41" type="line"/>
      <point x="282" y="49"/>
      <point x="258" y="66"/>
      <point x="258" y="90" type="curve" smooth="yes"/>
      <point x="258" y="114"/>
      <point x="278" y="128"/>
      <point x="312" y="128" type="curve" smooth="yes"/>
      <point x="330" y="128"/>
      <point x="353" y="124"/>
      <point x="372" y="118" type="curve"/>
      <point x="337" y="136" type="line"/>
      <point x="337" y="74" type="line"/>
      <point x="376" y="88" type="line"/>
      <point x="361" y="91"/>
      <point x="347" y="94"/>
      <point x="337" y="94" type="curve" smooth="yes"/>
      <point x="308" y="94"/>
      <point x="291" y="79"/>
      <point x="291" y="53" type="curve" smooth="yes"/>
      <point x="291" y="48"/>
      <point x="293" y="40"/>
    </contour>
    <contour>
      <point x="222" y="127" type="curve"/>
      <point x="370" y="131" type="line"/>
      <point x="361" y="179" type="line"/>
      <point x="351" y="190"/>
      <point x="321" y="199"/>
      <point x="298" y="199" type="curve" smooth="yes"/>
      <point x="253" y="199"/>
      <point x="222" y="169"/>
    </contour>
    <contour>
      <point x="506" y="-37" type="curve"/>
      <point x="512" y="-22" type="line"/>
      <point x="484" y="-8" type="line" smooth="yes"/>
      <point x="432" y="18"/>
      <point x="427" y="35"/>
      <point x="427" y="82" type="curve" smooth="yes"/>
      <point x="427" y="306" type="line"/>
      <point x="332" y="306" type="line"/>
      <point x="332" y="146" type="line"/>
      <point x="357" y="148" type="line"/>
      <point x="336" y="158"/>
      <point x="305" y="165"/>
      <point x="274" y="165" type="curve" smooth="yes"/>
      <point x="212" y="165"/>
      <point x="175" y="138"/>
      <point x="175" y="103" type="curve" smooth="yes"/>
      <point x="175" y="36"/>
      <point x="324" y="9"/>
    </contour>
    <contour>
      <point x="226" y="247" type="curve"/>
      <point x="236" y="276" type="line"/>
      <point x="183" y="289"/>
      <point x="152" y="318"/>
      <point x="152" y="356" type="curve" smooth="yes"/>
      <point x="152" y="401"/>
      <point x="186" y="425"/>
      <point x="243" y="425" type="curve" smooth="yes"/>
      <point x="283" y="425"/>
      <point x="319" y="413"/>
      <point x="352" y="391" type="curve"/>
      <point x="332" y="421" type="line"/>
      <point x="332" y="357" type="line"/>
      <point x="351" y="361" type="line"/>
      <point x="328" y="369"/>
      <point x="306" y="374"/>
      <point x="292" y="374" type="curve" smooth="yes"/>
      <point x="240" y="374"/>
      <point x="211" y="345"/>
      <point x="211" y="297" type="curve" smooth="yes"/>
      <point x="211" y="277"/>
      <point x="216" y="265"/>
    </contour>
    <contour>
      <point x="173" y="562" type="curve" smooth="yes"/>
      <point x="257" y="562"/>
      <point x="333" y="573"/>
      <point x="390" y="591" type="curve"/>
      <point x="427" y="646" type="line"/>
      <point x="418" y="654" type="line"/>
      <point x="4" y="654" type="line"/>
      <point x="0" y="646" type="line"/>
      <point x="26" y="595"/>
      <point x="82" y="562"/>
    </contour>
  </outline>
</glyph>
<glyph name="BaDha.rj" format="2">
  <advance width="483"/>
  <anchor x="338" y="-15" name="bottom"/>
  <anchor x="310" y="46" name="bottom2"/>
  <anchor x="338" y="-27" name="bottom3"/>
  <anchor x="428" y="646" name="top1"/>
  <anchor x="217" y="646" name="top2"/>
  <anchor x="76" y="611" name="top_alt"/>
  <outline>
    <contour>
      <point x="490" y="-37" type="curve"/>
      <point x="495" y="-21" type="line"/>
      <point x="469" y="-8" type="line" smooth="yes"/>
      <point x="435" y="9"/>
      <point x="428" y="20"/>
      <point x="428" y="51" type="curve" smooth="yes"/>
      <point x="428" y="355" type="line"/>
      <point x="328" y="355" type="line"/>
      <point x="328" y="203" type="line"/>
      <point x="352" y="199" type="line"/>
      <point x="193" y="241" type="line"/>
      <point x="105" y="248"/>
      <point x="43" y="212"/>
      <point x="43" y="154" type="curve" smooth="yes"/>
      <point x="43" y="63"/>
      <point x="160" y="35"/>
    </contour>
    <contour>
      <point x="312" y="39" type="line"/>
      <point x="216" y="58"/>
      <point x="156" y="88"/>
      <point x="156" y="126" type="curve" smooth="yes"/>
      <point x="156" y="162"/>
      <point x="190" y="184"/>
      <point x="247" y="184" type="curve" smooth="yes"/>
      <point x="287" y="184"/>
      <point x="323" y="175"/>
      <point x="356" y="157" type="curve"/>
      <point x="328" y="179" type="line"/>
      <point x="328" y="127" type="line"/>
      <point x="351" y="125" type="line"/>
      <point x="335" y="134"/>
      <point x="316" y="138"/>
      <point x="292" y="138" type="curve" smooth="yes"/>
      <point x="244" y="138"/>
      <point x="215" y="116"/>
      <point x="215" y="78" type="curve" smooth="yes"/>
      <point x="215" y="65"/>
      <point x="220" y="54"/>
      <point x="230" y="41" type="curve"/>
    </contour>
    <contour>
      <point x="341" y="199" type="curve"/>
      <point x="341" y="218" type="line"/>
      <point x="261" y="221"/>
      <point x="216" y="240"/>
      <point x="183" y="286" type="curve"/>
      <point x="148" y="291"/>
      <point x="89" y="312"/>
      <point x="63" y="330" type="curve"/>
      <point x="58" y="328" type="line"/>
      <point x="63" y="267"/>
      <point x="143" y="228"/>
    </contour>
    <contour>
      <point x="226" y="305" type="curve"/>
      <point x="287" y="324" type="line"/>
      <point x="191" y="344"/>
      <point x="153" y="365"/>
      <point x="153" y="403" type="curve" smooth="yes"/>
      <point x="153" y="439"/>
      <point x="187" y="461"/>
      <point x="244" y="461" type="curve" smooth="yes"/>
      <point x="282" y="461"/>
      <point x="327" y="452"/>
      <point x="353" y="437" type="curve"/>
      <point x="333" y="467" type="line"/>
      <point x="333" y="400" type="line"/>
      <point x="349" y="399" type="line"/>
      <point x="327" y="406"/>
      <point x="304" y="410"/>
      <point x="290" y="410" type="curve" smooth="yes"/>
      <point x="240" y="410"/>
      <point x="211" y="383"/>
      <point x="211" y="336" type="curve" smooth="yes"/>
      <point x="211" y="323"/>
      <point x="217" y="312"/>
    </contour>
    <contour>
      <point x="335" y="282" type="curve"/>
      <point x="428" y="286" type="line"/>
      <point x="428" y="646" type="line"/>
      <point x="333" y="606" type="line"/>
      <point x="333" y="475" type="line"/>
      <point x="340" y="496" type="line"/>
      <point x="287" y="517"/>
      <point x="237" y="528"/>
      <point x="190" y="528" type="curve" smooth="yes"/>
      <point x="96" y="528"/>
      <point x="40" y="491"/>
      <point x="40" y="423" type="curve" smooth="yes"/>
      <point x="40" y="354"/>
      <point x="137" y="308"/>
    </contour>
    <contour>
      <point x="173" y="563" type="curve" smooth="yes"/>
      <point x="257" y="563"/>
      <point x="333" y="574"/>
      <point x="390" y="592" type="curve"/>
      <point x="428" y="646" type="line"/>
      <point x="419" y="654" type="line"/>
      <point x="4" y="654" type="line"/>
      <point x="0" y="646" type="line"/>
      <point x="26" y="595"/>
      <point x="82" y="563"/>
    </contour>
  </outline>
</glyph>
<glyph name="BaDhaRa.rj" format="2">
  <advance width="483"/>
  <anchor x="325" y="25" name="bottom"/>
  <anchor x="332" y="-27" name="bottom2"/>
  <anchor x="303" y="-10" name="bottom3"/>
  <anchor x="428" y="646" name="top1"/>
  <anchor x="210" y="646" name="top2"/>
  <anchor x="69" y="617" name="top_alt"/>
  <outline>
    <contour>
      <point x="335" y="330" type="curve"/>
      <point x="428" y="342" type="line"/>
      <point x="428" y="646" type="line"/>
      <point x="333" y="606" type="line"/>
      <point x="333" y="498" type="line"/>
      <point x="340" y="520" type="line"/>
      <point x="296" y="534"/>
      <point x="247" y="541"/>
      <point x="190" y="541" type="curve" smooth="yes"/>
      <point x="96" y="541"/>
      <point x="40" y="511"/>
      <point x="40" y="454" type="curve" smooth="yes"/>
      <point x="40" y="387"/>
      <point x="137" y="357"/>
    </contour>
    <contour>
      <point x="520" y="-66" type="curve"/>
      <point x="528" y="-48" type="line"/>
      <point x="476" y="-20" type="line" smooth="yes"/>
      <point x="442" y="-2"/>
      <point x="428" y="19"/>
      <point x="428" y="60" type="curve" smooth="yes"/>
      <point x="428" y="183" type="line"/>
      <point x="328" y="183" type="line"/>
      <point x="328" y="152" type="line" smooth="yes"/>
      <point x="328" y="109"/>
      <point x="302" y="92"/>
      <point x="264" y="90" type="curve" smooth="yes"/>
      <point x="208" y="88"/>
      <point x="126" y="116"/>
      <point x="64" y="138" type="curve"/>
      <point x="54" y="116" type="line"/>
      <point x="186" y="58"/>
      <point x="372" y="-13"/>
    </contour>
    <contour>
      <point x="312" y="140" type="line"/>
      <point x="216" y="156"/>
      <point x="156" y="180"/>
      <point x="156" y="211" type="curve" smooth="yes"/>
      <point x="156" y="240"/>
      <point x="190" y="259"/>
      <point x="247" y="259" type="curve" smooth="yes"/>
      <point x="287" y="259"/>
      <point x="323" y="251"/>
      <point x="356" y="237" type="curve"/>
      <point x="328" y="255" type="line"/>
      <point x="328" y="212" type="line"/>
      <point x="351" y="210" type="line"/>
      <point x="335" y="217"/>
      <point x="316" y="221"/>
      <point x="292" y="221" type="curve" smooth="yes"/>
      <point x="244" y="221"/>
      <point x="215" y="203"/>
      <point x="215" y="172" type="curve" smooth="yes"/>
      <point x="215" y="161"/>
      <point x="220" y="152"/>
      <point x="230" y="141" type="curve"/>
    </contour>
    <contour>
      <point x="355" y="102" type="curve"/>
      <point x="428" y="149" type="line"/>
      <point x="428" y="399" type="line"/>
      <point x="328" y="399" type="line"/>
      <point x="328" y="274" type="line"/>
      <point x="352" y="271" type="line"/>
      <point x="193" y="306" type="line"/>
      <point x="105" y="311"/>
      <point x="43" y="281"/>
      <point x="43" y="234" type="curve" smooth="yes"/>
      <point x="43" y="171"/>
      <point x="127" y="144"/>
    </contour>
    <contour>
      <point x="341" y="271" type="curve"/>
      <point x="341" y="286" type="line"/>
      <point x="261" y="290"/>
      <point x="216" y="305"/>
      <point x="183" y="342" type="curve"/>
      <point x="148" y="346"/>
      <point x="89" y="364"/>
      <point x="63" y="379" type="curve"/>
      <point x="58" y="377" type="line"/>
      <point x="63" y="327"/>
      <point x="143" y="295"/>
    </contour>
    <contour>
      <point x="226" y="359" type="curve"/>
      <point x="287" y="373" type="line"/>
      <point x="191" y="391"/>
      <point x="153" y="407"/>
      <point x="153" y="438" type="curve" smooth="yes"/>
      <point x="153" y="468"/>
      <point x="187" y="485"/>
      <point x="244" y="485" type="curve" smooth="yes"/>
      <point x="282" y="485"/>
      <point x="327" y="478"/>
      <point x="353" y="466" type="curve"/>
      <point x="333" y="492" type="line"/>
      <point x="333" y="436" type="line"/>
      <point x="349" y="435" type="line"/>
      <point x="327" y="441"/>
      <point x="304" y="444"/>
      <point x="290" y="444" type="curve" smooth="yes"/>
      <point x="240" y="444"/>
      <point x="211" y="422"/>
      <point x="211" y="383" type="curve" smooth="yes"/>
      <point x="211" y="372"/>
      <point x="217" y="364"/>
    </contour>
    <contour>
      <point x="173" y="569" type="curve" smooth="yes"/>
      <point x="257" y="569"/>
      <point x="333" y="580"/>
      <point x="390" y="598" type="curve"/>
      <point x="428" y="646" type="line"/>
      <point x="419" y="654" type="line"/>
      <point x="4" y="654" type="line"/>
      <point x="0" y="646" type="line"/>
      <point x="26" y="595"/>
      <point x="82" y="569"/>
    </contour>
  </outline>
</glyph>
<glyph name="BaGha.rj" format="2">
  <advance width="575"/>
  <anchor x="424" y="-35" name="bottom"/>
  <anchor x="492" y="-26" name="bottom3"/>
  <anchor x="517" y="646" name="top1"/>
  <anchor x="277" y="646" name="top2"/>
  <anchor x="58" y="613" name="top_alt"/>
  <outline>
    <contour>
      <point x="379" y="121" type="line"/>
      <point x="379" y="156" type="line" smooth="yes"/>
      <point x="379" y="188"/>
      <point x="361" y="194"/>
      <point x="298" y="212" type="curve"/>
      <point x="292" y="204" type="line"/>
      <point x="302" y="199"/>
      <point x="307" y="193"/>
      <point x="307" y="187" type="curve" smooth="yes"/>
      <point x="307" y="178"/>
      <point x="298" y="169"/>
      <point x="278" y="169" type="curve" smooth="yes"/>
      <point x="248" y="169"/>
      <point x="215" y="187"/>
      <point x="164" y="227" type="curve"/>
      <point x="213" y="187" type="line"/>
      <point x="246" y="226"/>
      <point x="288" y="243"/>
      <point x="337" y="243" type="curve" smooth="yes"/>
      <point x="386" y="243"/>
      <point x="447" y="225"/>
      <point x="546" y="160" type="curve"/>
      <point x="558" y="175" type="line"/>
      <point x="524" y="203"/>
      <point x="517" y="211"/>
      <point x="517" y="238" type="curve" smooth="yes"/>
      <point x="517" y="646" type="line"/>
      <point x="422" y="601" type="line"/>
      <point x="422" y="259" type="line"/>
      <point x="440" y="257" type="line"/>
      <point x="405" y="285"/>
      <point x="351" y="314"/>
      <point x="298" y="314" type="curve" smooth="yes"/>
      <point x="194" y="314"/>
      <point x="170" y="247"/>
      <point x="133" y="247" type="curve" smooth="yes"/>
      <point x="125" y="247"/>
      <point x="116" y="249"/>
      <point x="103" y="257" type="curve"/>
      <point x="93" y="244" type="line"/>
      <point x="140" y="204"/>
      <point x="208" y="150"/>
      <point x="275" y="149" type="curve"/>
    </contour>
    <contour>
      <point x="319" y="-4" type="curve" smooth="yes"/>
      <point x="393" y="-6"/>
      <point x="456" y="7"/>
      <point x="501" y="33" type="curve"/>
      <point x="434" y="107" type="line"/>
      <point x="399" y="82"/>
      <point x="314" y="62"/>
      <point x="248" y="65" type="curve" smooth="yes"/>
      <point x="206" y="66"/>
      <point x="191" y="75"/>
      <point x="192" y="84" type="curve" smooth="yes"/>
      <point x="193" y="104"/>
      <point x="237" y="116"/>
      <point x="311" y="116" type="curve" smooth="yes"/>
      <point x="336" y="116"/>
      <point x="354" y="116"/>
      <point x="379" y="114" type="curve"/>
      <point x="379" y="127" type="line"/>
      <point x="309" y="163" type="line"/>
      <point x="294" y="165"/>
      <point x="247" y="166"/>
      <point x="232" y="168" type="curve"/>
      <point x="206" y="192" type="line"/>
      <point x="152" y="185"/>
      <point x="120" y="155"/>
      <point x="120" y="112" type="curve" smooth="yes"/>
      <point x="120" y="55"/>
      <point x="211" y="2"/>
    </contour>
    <contour>
      <point x="612" y="-56" type="curve"/>
      <point x="619" y="-37" type="line"/>
      <point x="590" y="-25" type="line" smooth="yes"/>
      <point x="537" y="-3"/>
      <point x="519" y="13"/>
      <point x="519" y="62" type="curve" smooth="yes"/>
      <point x="519" y="130" type="line"/>
      <point x="435" y="167" type="line"/>
      <point x="424" y="163" type="line"/>
      <point x="424" y="17" type="line"/>
      <point x="494" y="-14"/>
      <point x="532" y="-29"/>
    </contour>
    <contour>
      <point x="184" y="294" type="curve"/>
      <point x="251" y="312" type="line"/>
      <point x="166" y="334"/>
      <point x="132" y="360"/>
      <point x="132" y="396" type="curve" smooth="yes"/>
      <point x="132" y="433"/>
      <point x="160" y="455"/>
      <point x="208" y="455" type="curve" smooth="yes"/>
      <point x="234" y="455"/>
      <point x="260" y="448"/>
      <point x="289" y="434" type="curve"/>
      <point x="258" y="484" type="line"/>
      <point x="258" y="386" type="line"/>
      <point x="286" y="395" type="line"/>
      <point x="267" y="402"/>
      <point x="251" y="405"/>
      <point x="237" y="405" type="curve" smooth="yes"/>
      <point x="197" y="405"/>
      <point x="173" y="381"/>
      <point x="173" y="340" type="curve" smooth="yes"/>
      <point x="173" y="326"/>
      <point x="177" y="312"/>
    </contour>
    <contour>
      <point x="289" y="266" type="curve"/>
      <point x="349" y="266" type="line"/>
      <point x="349" y="654" type="line"/>
      <point x="254" y="619" type="line"/>
      <point x="254" y="489" type="line"/>
      <point x="296" y="471" type="line"/>
      <point x="249" y="510"/>
      <point x="209" y="525"/>
      <point x="158" y="525" type="curve" smooth="yes"/>
      <point x="75" y="525"/>
      <point x="26" y="484"/>
      <point x="26" y="419" type="curve" smooth="yes"/>
      <point x="26" y="344"/>
      <point x="101" y="284"/>
    </contour>
    <contour>
      <point x="142" y="572" type="curve" smooth="yes"/>
      <point x="189" y="572"/>
      <point x="253" y="576"/>
      <point x="284" y="586" type="curve"/>
      <point x="349" y="654" type="line"/>
      <point x="4" y="654" type="line"/>
      <point x="0" y="646" type="line"/>
      <point x="20" y="596"/>
      <point x="67" y="572"/>
    </contour>
    <contour>
      <point x="291" y="579" type="line"/>
      <point x="478" y="579" type="line"/>
      <point x="517" y="646" type="line"/>
      <point x="508" y="654" type="line"/>
      <point x="291" y="654" type="line"/>
    </contour>
  </outline>
</glyph>
<glyph name="BaJa.rj" format="2">
  <advance width="579"/>
  <anchor x="260" y="-25" name="bottom"/>
  <anchor x="300" y="-20" name="bottom2"/>
  <anchor x="523" y="0" name="bottom3"/>
  <anchor x="391" y="646" name="top1"/>
  <anchor x="267" y="646" name="top2"/>
  <anchor x="90" y="606" name="top_alt"/>
  <outline>
    <contour>
      <point x="282" y="-12" type="curve" smooth="yes"/>
      <point x="359" y="-12"/>
      <point x="408" y="40"/>
      <point x="408" y="102" type="curve" smooth="yes"/>
      <point x="408" y="172"/>
      <point x="345" y="235"/>
      <point x="273" y="235" type="curve" smooth="yes"/>
      <point x="223" y="235"/>
      <point x="179" y="204"/>
      <point x="154" y="153" type="curve"/>
      <point x="193" y="149" type="line"/>
      <point x="106" y="212" type="line"/>
      <point x="125" y="173" type="line"/>
      <point x="134" y="232"/>
      <point x="195" y="271"/>
      <point x="269" y="271" type="curve" smooth="yes"/>
      <point x="330" y="271"/>
      <point x="383" y="245"/>
      <point x="452" y="190" type="curve"/>
      <point x="465" y="236" type="line"/>
      <point x="419" y="275"/>
      <point x="384" y="302"/>
      <point x="351" y="320" type="curve"/>
      <point x="213" y="342" type="line"/>
      <point x="196" y="301" type="line"/>
      <point x="130" y="328" type="line"/>
      <point x="86" y="313"/>
      <point x="45" y="268"/>
      <point x="37" y="230" type="curve" smooth="yes"/>
      <point x="35" y="220"/>
      <point x="35" y="211"/>
      <point x="42" y="206" type="curve" smooth="yes"/>
      <point x="84" y="176"/>
      <point x="165" y="122"/>
      <point x="212" y="98" type="curve"/>
      <point x="221" y="98" type="line"/>
      <point x="252" y="137"/>
      <point x="289" y="160"/>
      <point x="313" y="160" type="curve" smooth="yes"/>
      <point x="326" y="160"/>
      <point x="332" y="154"/>
      <point x="332" y="142" type="curve" smooth="yes"/>
      <point x="332" y="103"/>
      <point x="275" y="67"/>
      <point x="214" y="67" type="curve" smooth="yes"/>
      <point x="164" y="67"/>
      <point x="115" y="91"/>
      <point x="29" y="158" type="curve"/>
      <point x="17" y="145" type="line"/>
      <point x="108" y="43"/>
      <point x="202" y="-12"/>
    </contour>
    <contour>
      <point x="194" y="291" type="curve"/>
      <point x="217" y="309" type="line"/>
      <point x="166" y="321"/>
      <point x="141" y="344"/>
      <point x="141" y="379" type="curve" smooth="yes"/>
      <point x="141" y="418"/>
      <point x="171" y="441"/>
      <point x="221" y="441" type="curve" smooth="yes"/>
      <point x="250" y="441"/>
      <point x="288" y="430"/>
      <point x="314" y="412" type="curve"/>
      <point x="298" y="440" type="line"/>
      <point x="298" y="373" type="line"/>
      <point x="307" y="386" type="line"/>
      <point x="288" y="392"/>
      <point x="270" y="396"/>
      <point x="258" y="396" type="curve" smooth="yes"/>
      <point x="216" y="396"/>
      <point x="186" y="372"/>
      <point x="186" y="332" type="curve" smooth="yes"/>
      <point x="186" y="316"/>
      <point x="187" y="307"/>
    </contour>
    <contour>
      <point x="391" y="260" type="line"/>
      <point x="391" y="604" type="line"/>
      <point x="296" y="604" type="line"/>
      <point x="296" y="462" type="line"/>
      <point x="322" y="454" type="line"/>
      <point x="283" y="494"/>
      <point x="228" y="514"/>
      <point x="165" y="514" type="curve" smooth="yes"/>
      <point x="79" y="514"/>
      <point x="28" y="475"/>
      <point x="28" y="409" type="curve" smooth="yes"/>
      <point x="28" y="357"/>
      <point x="76" y="311"/>
      <point x="156" y="291" type="curve"/>
      <point x="305" y="278" type="line"/>
    </contour>
    <contour>
      <point x="445" y="166" type="line"/>
      <point x="545" y="166" type="line"/>
      <point x="545" y="316" type="line"/>
      <point x="453" y="351" type="line"/>
      <point x="445" y="347" type="line"/>
    </contour>
    <contour>
      <point x="189" y="562" type="curve" smooth="yes"/>
      <point x="331" y="562"/>
      <point x="406" y="573"/>
      <point x="535" y="596" type="curve"/>
      <point x="538" y="601" type="line"/>
      <point x="510" y="654" type="line"/>
      <point x="4" y="654" type="line"/>
      <point x="0" y="646" type="line"/>
      <point x="24" y="590"/>
      <point x="89" y="562"/>
    </contour>
    <component base="_terminal" xOffset="445"/>
  </outline>
</glyph>
<glyph name="BaJha.rj" format="2">
  <advance width="578"/>
  <anchor x="264" y="71" name="bottom"/>
  <anchor x="245" y="63" name="bottom2"/>
  <anchor x="265" y="12" name="bottom3"/>
  <anchor x="528" y="646" name="top1"/>
  <anchor x="282" y="646" name="top2"/>
  <anchor x="85" y="618" name="top_alt"/>
  <outline>
    <contour>
      <point x="569" y="13" type="curve"/>
      <point x="578" y="30" type="line"/>
      <point x="533" y="55"/>
      <point x="528" y="68"/>
      <point x="528" y="111" type="curve" smooth="yes"/>
      <point x="528" y="646" type="line"/>
      <point x="433" y="619" type="line"/>
      <point x="433" y="97" type="line"/>
      <point x="444" y="107" type="line"/>
      <point x="392" y="133"/>
      <point x="347" y="159"/>
      <point x="313" y="182" type="curve"/>
      <point x="298" y="125" type="line"/>
      <point x="368" y="93"/>
      <point x="440" y="64"/>
    </contour>
    <contour>
      <point x="420" y="-26" type="curve"/>
      <point x="430" y="-7" type="line"/>
      <point x="398" y="11" type="line" smooth="yes"/>
      <point x="367" y="28"/>
      <point x="355" y="45"/>
      <point x="355" y="72" type="curve" smooth="yes"/>
      <point x="355" y="150" type="line"/>
      <point x="303" y="235" type="line"/>
      <point x="288" y="247"/>
      <point x="265" y="253"/>
      <point x="239" y="253" type="curve" smooth="yes"/>
      <point x="166" y="253"/>
      <point x="159" y="157"/>
      <point x="106" y="159" type="curve" smooth="yes"/>
      <point x="97" y="159"/>
      <point x="84" y="164"/>
      <point x="70" y="172" type="curve"/>
      <point x="56" y="150" type="line"/>
      <point x="166" y="79"/>
      <point x="299" y="25"/>
    </contour>
    <contour>
      <point x="264" y="129" type="line"/>
      <point x="354" y="129" type="line"/>
      <point x="354" y="290" type="line"/>
      <point x="264" y="290" type="line"/>
    </contour>
    <contour>
      <point x="330" y="579" type="line"/>
      <point x="462" y="579" type="line"/>
      <point x="528" y="646" type="line"/>
      <point x="521" y="654" type="line"/>
      <point x="318" y="654" type="line"/>
    </contour>
    <component base="_BaMaComp" xOffset="30"/>
  </outline>
</glyph>
<glyph name="BaNa.rj" format="2">
  <advance width="483"/>
  <anchor x="328" y="9" name="bottom"/>
  <anchor x="328" y="69" name="bottom2"/>
  <anchor x="358" y="9" name="bottom3"/>
  <anchor x="428" y="646" name="top1"/>
  <anchor x="217" y="646" name="top2"/>
  <anchor x="83" y="605" name="top_alt"/>
  <outline>
    <contour>
      <point x="171" y="42" type="curve" smooth="yes"/>
      <point x="209" y="42"/>
      <point x="231" y="64"/>
      <point x="231" y="100" type="curve" smooth="yes"/>
      <point x="231" y="201" type="line"/>
      <point x="171" y="158" type="line"/>
      <point x="226" y="158"/>
      <point x="282" y="145"/>
      <point x="342" y="111" type="curve"/>
      <point x="350" y="160" type="line"/>
      <point x="281" y="208"/>
      <point x="217" y="234"/>
      <point x="155" y="234" type="curve" smooth="yes"/>
      <point x="93" y="234"/>
      <point x="49" y="198"/>
      <point x="49" y="147" type="curve" smooth="yes"/>
      <point x="49" y="85"/>
      <point x="100" y="42"/>
    </contour>
    <component base="_terminal" xOffset="328"/>
    <component base="_BaPre1" xOffset="21"/>
  </outline>
</glyph>
<glyph name="BaTa.rj" format="2">
  <advance width="473"/>
  <anchor x="460" y="-26" name="bottom3"/>
  <anchor x="64" y="624" name="top"/>
  <anchor x="418" y="646" name="top1"/>
  <anchor x="207" y="646" name="top2"/>
  <anchor x="318" y="40" name="bottom2"/>
  <outline>
    <contour>
      <point x="195" y="562" type="curve" smooth="yes"/>
      <point x="279" y="562"/>
      <point x="324" y="573"/>
      <point x="381" y="591" type="curve"/>
      <point x="418" y="646" type="line"/>
      <point x="409" y="654" type="line"/>
      <point x="4" y="654" type="line"/>
      <point x="0" y="646" type="line"/>
      <point x="22" y="593"/>
      <point x="95" y="562"/>
    </contour>
    <component base="_BaTa" xOffset="11"/>
  </outline>
</glyph>
<glyph name="BhaBha.rj" format="2">
  <advance width="590"/>
  <anchor x="534" y="-26" name="bottom3"/>
  <anchor x="104" y="581" name="top"/>
  <anchor x="534" y="646" name="top1"/>
  <anchor x="253" y="646" name="top2"/>
  <outline>
    <contour>
      <point x="336" y="-26" type="curve"/>
      <point x="355" y="-7" type="line"/>
      <point x="256" y="90"/>
      <point x="177" y="173"/>
      <point x="115" y="280" type="curve"/>
      <point x="137" y="186" type="line"/>
      <point x="278" y="212"/>
      <point x="225" y="376"/>
      <point x="364" y="376" type="curve" smooth="yes"/>
      <point x="407" y="376"/>
      <point x="433" y="353"/>
      <point x="456" y="322" type="curve"/>
      <point x="451" y="397" type="line"/>
      <point x="415" y="438"/>
      <point x="373" y="469"/>
      <point x="307" y="469" type="curve" smooth="yes"/>
      <point x="158" y="469"/>
      <point x="134" y="317"/>
      <point x="61" y="317" type="curve" smooth="yes"/>
      <point x="53" y="317"/>
      <point x="39" y="323"/>
      <point x="27" y="333" type="curve"/>
      <point x="10" y="316" type="line"/>
      <point x="113" y="178"/>
      <point x="201" y="94"/>
    </contour>
    <contour>
      <point x="428" y="12" type="curve"/>
      <point x="444" y="29" type="line"/>
      <point x="404" y="69"/>
      <point x="338" y="149"/>
      <point x="313" y="179" type="curve"/>
      <point x="305" y="156" type="line"/>
      <point x="342" y="127" type="line"/>
      <point x="372" y="133"/>
      <point x="387" y="164"/>
      <point x="391" y="195" type="curve" smooth="yes"/>
      <point x="396" y="227"/>
      <point x="403" y="239"/>
      <point x="417" y="239" type="curve" smooth="yes"/>
      <point x="428" y="239"/>
      <point x="440" y="232"/>
      <point x="454" y="219" type="curve"/>
      <point x="458" y="258" type="line"/>
      <point x="434" y="284"/>
      <point x="409" y="300"/>
      <point x="381" y="300" type="curve" smooth="yes"/>
      <point x="307" y="300"/>
      <point x="306" y="209"/>
      <point x="271" y="209" type="curve" smooth="yes"/>
      <point x="265" y="209"/>
      <point x="260" y="211"/>
      <point x="250" y="218" type="curve"/>
      <point x="236" y="202" type="line"/>
      <point x="279" y="156"/>
      <point x="365" y="63"/>
    </contour>
    <contour>
      <point x="624" y="-26" type="curve"/>
      <point x="634" y="-9" type="line"/>
      <point x="578" y="26" type="line" smooth="yes"/>
      <point x="542" y="48"/>
      <point x="534" y="63"/>
      <point x="534" y="103" type="curve" smooth="yes"/>
      <point x="534" y="256" type="line"/>
      <point x="439" y="256" type="line"/>
      <point x="439" y="84" type="line"/>
      <point x="472" y="57"/>
      <point x="542" y="15"/>
    </contour>
    <contour>
      <point x="193" y="536" type="curve" smooth="yes"/>
      <point x="313" y="536"/>
      <point x="427" y="550"/>
      <point x="493" y="573" type="curve"/>
      <point x="534" y="646" type="line"/>
      <point x="525" y="654" type="line"/>
      <point x="5" y="654" type="line"/>
      <point x="0" y="646" type="line"/>
      <point x="27" y="572"/>
      <point x="97" y="536"/>
    </contour>
    <contour>
      <point x="439" y="243" type="line"/>
      <point x="534" y="243" type="line"/>
      <point x="534" y="646" type="line"/>
      <point x="434" y="618" type="line"/>
      <point x="434" y="395" type="line"/>
      <point x="439" y="372" type="line"/>
    </contour>
  </outline>
</glyph>
<glyph name="BhaBha.rj.ss01" format="2">
  <advance width="473"/>
  <anchor x="86" y="602" name="top"/>
  <anchor x="418" y="646" name="top1"/>
  <anchor x="228" y="646" name="top2"/>
  <anchor x="318" y="35" name="bottom"/>
  <anchor x="318" y="40" name="bottom2"/>
  <anchor x="349" y="0" name="bottom3"/>
  <outline>
    <contour>
      <point x="287" y="-28" type="curve"/>
      <point x="299" y="-10" type="line"/>
      <point x="261" y="18"/>
      <point x="163" y="82"/>
      <point x="130" y="115" type="curve"/>
      <point x="113" y="92" type="line"/>
      <point x="175" y="50" type="line"/>
      <point x="209" y="64"/>
      <point x="219" y="80"/>
      <point x="229" y="119" type="curve" smooth="yes"/>
      <point x="239" y="158"/>
      <point x="249" y="180"/>
      <point x="277" y="180" type="curve" smooth="yes"/>
      <point x="297" y="180"/>
      <point x="314" y="169"/>
      <point x="337" y="140" type="curve"/>
      <point x="331" y="203" type="line"/>
      <point x="297" y="235"/>
      <point x="266" y="245"/>
      <point x="235" y="245" type="curve" smooth="yes"/>
      <point x="139" y="245"/>
      <point x="133" y="144"/>
      <point x="83" y="144" type="curve" smooth="yes"/>
      <point x="74" y="144"/>
      <point x="58" y="151"/>
      <point x="48" y="159" type="curve"/>
      <point x="32" y="140" type="line"/>
      <point x="103" y="81"/>
      <point x="219" y="10"/>
    </contour>
    <contour>
      <point x="196" y="262" type="curve"/>
      <point x="212" y="284" type="line"/>
      <point x="171" y="312"/>
      <point x="131" y="348"/>
      <point x="95" y="381" type="curve"/>
      <point x="145" y="309" type="line"/>
      <point x="193" y="325"/>
      <point x="207" y="339"/>
      <point x="219" y="383" type="curve" smooth="yes"/>
      <point x="230" y="422"/>
      <point x="241" y="444"/>
      <point x="271" y="444" type="curve" smooth="yes"/>
      <point x="293" y="444"/>
      <point x="312" y="433"/>
      <point x="337" y="404" type="curve"/>
      <point x="330" y="467" type="line"/>
      <point x="293" y="499"/>
      <point x="259" y="509"/>
      <point x="225" y="509" type="curve" smooth="yes"/>
      <point x="120" y="509"/>
      <point x="110" y="408"/>
      <point x="56" y="408" type="curve" smooth="yes"/>
      <point x="46" y="408"/>
      <point x="32" y="416"/>
      <point x="21" y="424" type="curve"/>
      <point x="3" y="405" type="line"/>
      <point x="70" y="346"/>
      <point x="132" y="300"/>
    </contour>
    <contour>
      <point x="318" y="174" type="line"/>
      <point x="418" y="174" type="line"/>
      <point x="418" y="646" type="line"/>
      <point x="318" y="619" type="line"/>
    </contour>
    <contour>
      <point x="160" y="556" type="curve" smooth="yes"/>
      <point x="239" y="556"/>
      <point x="333" y="566"/>
      <point x="382" y="588" type="curve"/>
      <point x="418" y="646" type="line"/>
      <point x="410" y="654" type="line"/>
      <point x="4" y="654" type="line"/>
      <point x="0" y="647" type="line"/>
      <point x="24" y="584"/>
      <point x="76" y="556"/>
    </contour>
    <component base="_terminal" xOffset="318"/>
  </outline>
</glyph>
<glyph name="BhaDa.rj" format="2">
  <advance width="492"/>
  <anchor x="344" y="-1" name="bottom"/>
  <anchor x="344" y="19" name="bottom2"/>
  <anchor x="344" y="-10" name="bottom3"/>
  <anchor x="100" y="617" name="top"/>
  <anchor x="438" y="646" name="top1"/>
  <anchor x="228" y="646" name="top2"/>
  <outline>
    <contour>
      <point x="153" y="312" type="curve"/>
      <point x="169" y="330" type="line"/>
      <point x="152" y="346"/>
      <point x="123" y="380"/>
      <point x="97" y="415" type="curve"/>
      <point x="80" y="394" type="line"/>
      <point x="120" y="364" type="line"/>
      <point x="214" y="364"/>
      <point x="203" y="419"/>
      <point x="270" y="419" type="curve" smooth="yes"/>
      <point x="300" y="419"/>
      <point x="337" y="400"/>
      <point x="359" y="373" type="curve"/>
      <point x="360" y="433" type="line"/>
      <point x="309" y="484"/>
      <point x="269" y="506"/>
      <point x="218" y="506" type="curve" smooth="yes"/>
      <point x="134" y="506"/>
      <point x="97" y="444"/>
      <point x="58" y="444" type="curve" smooth="yes"/>
      <point x="48" y="444"/>
      <point x="39" y="449"/>
      <point x="24" y="460" type="curve"/>
      <point x="7" y="443" type="line"/>
      <point x="51" y="393"/>
      <point x="110" y="342"/>
    </contour>
    <contour>
      <point x="185" y="556" type="curve" smooth="yes"/>
      <point x="264" y="556"/>
      <point x="353" y="566"/>
      <point x="402" y="588" type="curve"/>
      <point x="438" y="646" type="line"/>
      <point x="430" y="654" type="line"/>
      <point x="9" y="654" type="line"/>
      <point x="5" y="647" type="line"/>
      <point x="29" y="584"/>
      <point x="101" y="556"/>
    </contour>
    <contour>
      <point x="438" y="252" type="line"/>
      <point x="438" y="646" type="line"/>
      <point x="338" y="617" type="line"/>
      <point x="338" y="308" type="line"/>
    </contour>
    <component base="_DaPost1" xOffset="26"/>
  </outline>
</glyph>
<glyph name="BhaNa.rj" format="2">
  <advance width="579"/>
  <anchor x="534" y="-10" name="bottom3"/>
  <anchor x="92" y="589" name="top"/>
  <anchor x="524" y="646" name="top1"/>
  <anchor x="278" y="646" name="top2"/>
  <anchor x="424" y="40" name="bottom2"/>
  <outline>
    <contour>
      <point x="366" y="-26" type="curve"/>
      <point x="382" y="-4" type="line"/>
      <point x="259" y="93"/>
      <point x="196" y="173"/>
      <point x="125" y="280" type="curve"/>
      <point x="137" y="186" type="line"/>
      <point x="259" y="203"/>
      <point x="205" y="386"/>
      <point x="334" y="386" type="curve" smooth="yes"/>
      <point x="384" y="386"/>
      <point x="414" y="363"/>
      <point x="440" y="332" type="curve"/>
      <point x="435" y="407" type="line"/>
      <point x="396" y="448"/>
      <point x="336" y="479"/>
      <point x="277" y="479" type="curve" smooth="yes"/>
      <point x="146" y="479"/>
      <point x="116" y="317"/>
      <point x="61" y="317" type="curve" smooth="yes"/>
      <point x="53" y="317"/>
      <point x="39" y="323"/>
      <point x="27" y="333" type="curve"/>
      <point x="10" y="316" type="line"/>
      <point x="123" y="178"/>
      <point x="208" y="94"/>
    </contour>
    <contour>
      <point x="334" y="146" type="curve" smooth="yes"/>
      <point x="367" y="146"/>
      <point x="382" y="166"/>
      <point x="382" y="203" type="curve" smooth="yes"/>
      <point x="382" y="220"/>
      <point x="381" y="245"/>
      <point x="379" y="270" type="curve"/>
      <point x="331" y="235" type="line"/>
      <point x="374" y="235"/>
      <point x="412" y="219"/>
      <point x="459" y="186" type="curve"/>
      <point x="461" y="223" type="line"/>
      <point x="411" y="279"/>
      <point x="370" y="299"/>
      <point x="324" y="299" type="curve" smooth="yes"/>
      <point x="281" y="299"/>
      <point x="249" y="270"/>
      <point x="249" y="227" type="curve" smooth="yes"/>
      <point x="249" y="183"/>
      <point x="288" y="146"/>
    </contour>
    <contour>
      <point x="203" y="536" type="curve" smooth="yes"/>
      <point x="294" y="536"/>
      <point x="427" y="548"/>
      <point x="483" y="573" type="curve"/>
      <point x="524" y="646" type="line"/>
      <point x="515" y="654" type="line"/>
      <point x="15" y="654" type="line"/>
      <point x="10" y="646" type="line"/>
      <point x="37" y="572"/>
      <point x="100" y="536"/>
    </contour>
    <contour>
      <point x="424" y="203" type="line"/>
      <point x="524" y="203" type="line"/>
      <point x="524" y="646" type="line"/>
      <point x="424" y="618" type="line"/>
    </contour>
    <component base="_terminal" xOffset="424"/>
  </outline>
</glyph>
<glyph name="BhaNna.rj" format="2">
  <advance width="597"/>
  <anchor x="442" y="-41" name="bottom"/>
  <anchor x="448" y="53" name="bottom2"/>
  <anchor x="533" y="-26" name="bottom3"/>
  <anchor x="75" y="631" name="top"/>
  <anchor x="542" y="646" name="top1"/>
  <anchor x="272" y="646" name="top2"/>
  <outline>
    <contour>
      <point x="283" y="-19" type="line"/>
      <point x="291" y="2" type="line"/>
      <point x="269" y="11" type="line" smooth="yes"/>
      <point x="164" y="54"/>
      <point x="127" y="89"/>
      <point x="127" y="137" type="curve" smooth="yes"/>
      <point x="127" y="175"/>
      <point x="150" y="206"/>
      <point x="203" y="206" type="curve" smooth="yes"/>
      <point x="226" y="206"/>
      <point x="248" y="198"/>
      <point x="270" y="188" type="curve"/>
      <point x="282" y="221" type="line"/>
      <point x="258" y="251"/>
      <point x="207" y="279"/>
      <point x="139" y="279" type="curve" smooth="yes"/>
      <point x="55" y="279"/>
      <point x="14" y="230"/>
      <point x="14" y="172" type="curve" smooth="yes"/>
      <point x="14" y="99"/>
      <point x="77" y="57"/>
      <point x="234" y="-1" type="curve" smooth="yes"/>
    </contour>
    <contour>
      <point x="182" y="298" type="curve"/>
      <point x="194" y="313" type="line"/>
      <point x="152" y="350"/>
      <point x="125" y="378"/>
      <point x="97" y="411" type="curve"/>
      <point x="119" y="365" type="line"/>
      <point x="147" y="369"/>
      <point x="167" y="381"/>
      <point x="182" y="413" type="curve" smooth="yes"/>
      <point x="193" y="436"/>
      <point x="199" y="445"/>
      <point x="216" y="445" type="curve" smooth="yes"/>
      <point x="233" y="445"/>
      <point x="246" y="434"/>
      <point x="258" y="421" type="curve"/>
      <point x="262" y="471" type="line"/>
      <point x="233" y="506"/>
      <point x="202" y="522"/>
      <point x="168" y="522" type="curve" smooth="yes"/>
      <point x="92" y="522"/>
      <point x="79" y="448"/>
      <point x="49" y="448" type="curve" smooth="yes"/>
      <point x="42" y="448"/>
      <point x="33" y="452"/>
      <point x="21" y="462" type="curve"/>
      <point x="5" y="445" type="line"/>
      <point x="58" y="391"/>
      <point x="135" y="330"/>
    </contour>
    <contour>
      <point x="320" y="54" type="curve" smooth="yes"/>
      <point x="342" y="54"/>
      <point x="354" y="67"/>
      <point x="354" y="90" type="curve" smooth="yes"/>
      <point x="354" y="609" type="line"/>
      <point x="254" y="609" type="line"/>
      <point x="254" y="202" type="line"/>
      <point x="259" y="194" type="line"/>
      <point x="259" y="134" type="line"/>
      <point x="275" y="175" type="line"/>
      <point x="242" y="175"/>
      <point x="213" y="150"/>
      <point x="213" y="121" type="curve" smooth="yes"/>
      <point x="213" y="92"/>
      <point x="257" y="54"/>
    </contour>
    <contour>
      <point x="142" y="572" type="curve" smooth="yes"/>
      <point x="189" y="572"/>
      <point x="286" y="581"/>
      <point x="317" y="591" type="curve"/>
      <point x="337" y="654" type="line"/>
      <point x="4" y="654" type="line"/>
      <point x="0" y="646" type="line"/>
      <point x="20" y="596"/>
      <point x="67" y="572"/>
    </contour>
    <component base="_Danda2" xOffset="-55"/>
  </outline>
</glyph>
<glyph name="BhaVa.rj.ss01" format="2">
  <advance width="474"/>
  <anchor x="82" y="600" name="top"/>
  <anchor x="418" y="646" name="top1"/>
  <anchor x="218" y="646" name="top2"/>
  <anchor x="323" y="-26" name="bottom"/>
  <anchor x="293" y="27" name="bottom2"/>
  <anchor x="313" y="-45" name="bottom3"/>
  <outline>
    <contour>
      <point x="196" y="262" type="curve"/>
      <point x="212" y="284" type="line"/>
      <point x="171" y="312"/>
      <point x="131" y="348"/>
      <point x="95" y="381" type="curve"/>
      <point x="145" y="309" type="line"/>
      <point x="193" y="325"/>
      <point x="207" y="339"/>
      <point x="219" y="383" type="curve" smooth="yes"/>
      <point x="230" y="422"/>
      <point x="241" y="444"/>
      <point x="271" y="444" type="curve" smooth="yes"/>
      <point x="293" y="444"/>
      <point x="312" y="433"/>
      <point x="337" y="404" type="curve"/>
      <point x="330" y="467" type="line"/>
      <point x="293" y="499"/>
      <point x="259" y="509"/>
      <point x="225" y="509" type="curve" smooth="yes"/>
      <point x="120" y="509"/>
      <point x="110" y="408"/>
      <point x="56" y="408" type="curve" smooth="yes"/>
      <point x="46" y="408"/>
      <point x="32" y="416"/>
      <point x="21" y="424" type="curve"/>
      <point x="3" y="405" type="line"/>
      <point x="70" y="346"/>
      <point x="132" y="300"/>
    </contour>
    <contour>
      <point x="318" y="174" type="line"/>
      <point x="418" y="174" type="line"/>
      <point x="418" y="646" type="line"/>
      <point x="318" y="619" type="line"/>
    </contour>
    <contour>
      <point x="160" y="556" type="curve" smooth="yes"/>
      <point x="239" y="556"/>
      <point x="333" y="566"/>
      <point x="382" y="588" type="curve"/>
      <point x="418" y="646" type="line"/>
      <point x="410" y="654" type="line"/>
      <point x="4" y="654" type="line"/>
      <point x="0" y="647" type="line"/>
      <point x="24" y="584"/>
      <point x="76" y="556"/>
    </contour>
    <component base="_VaPost2" xOffset="54" yOffset="-35"/>
  </outline>
</glyph>
<glyph name="BhaYa_alt_U.rj" format="2">
  <advance width="746"/>
  <anchor x="591" y="130" name="bottom"/>
  <anchor x="368" y="646" name="top2"/>
  <anchor x="591" y="59" name="bottom2"/>
  <anchor x="591" y="9" name="bottom3"/>
  <outline>
    <contour>
      <point x="336" y="2" type="curve"/>
      <point x="352" y="23" type="line"/>
      <point x="262" y="102"/>
      <point x="196" y="162"/>
      <point x="129" y="256" type="curve"/>
      <point x="169" y="166" type="line"/>
      <point x="205" y="300"/>
      <point x="259" y="365"/>
      <point x="334" y="365" type="curve" smooth="yes"/>
      <point x="371" y="365"/>
      <point x="408" y="347"/>
      <point x="434" y="317" type="curve"/>
      <point x="428" y="389" type="line"/>
      <point x="389" y="430"/>
      <point x="333" y="464"/>
      <point x="274" y="464" type="curve" smooth="yes"/>
      <point x="141" y="464"/>
      <point x="105" y="297"/>
      <point x="51" y="297" type="curve" smooth="yes"/>
      <point x="43" y="297"/>
      <point x="29" y="303"/>
      <point x="17" y="313" type="curve"/>
      <point x="0" y="296" type="line"/>
      <point x="117" y="175"/>
      <point x="207" y="100"/>
    </contour>
    <contour>
      <point x="203" y="536" type="curve" smooth="yes"/>
      <point x="294" y="536"/>
      <point x="421" y="548"/>
      <point x="477" y="573" type="curve"/>
      <point x="518" y="646" type="line"/>
      <point x="509" y="654" type="line"/>
      <point x="15" y="654" type="line"/>
      <point x="10" y="646" type="line"/>
      <point x="37" y="572"/>
      <point x="100" y="536"/>
    </contour>
    <component base="_YaPost1" xOffset="214"/>
  </outline>
</glyph>
<glyph name="Bha_alt_U_Uu.rj" format="2">
  <advance width="505"/>
  <anchor x="350" y="195" name="bottom"/>
  <anchor x="350" y="49" name="bottom2"/>
  <anchor x="94" y="584" name="top"/>
  <anchor x="450" y="646" name="top1"/>
  <anchor x="254" y="646" name="top2"/>
  <anchor x="381" y="0" name="bottom3"/>
  <outline>
    <contour>
      <point x="224" y="105" type="curve"/>
      <point x="243" y="121" type="line"/>
      <point x="186" y="182"/>
      <point x="146" y="231"/>
      <point x="108" y="300" type="curve"/>
      <point x="133" y="211" type="line"/>
      <point x="283" y="251"/>
      <point x="185" y="377"/>
      <point x="310" y="377" type="curve" smooth="yes"/>
      <point x="328" y="377"/>
      <point x="351" y="365"/>
      <point x="380" y="331" type="curve"/>
      <point x="375" y="408" type="line"/>
      <point x="329" y="447"/>
      <point x="285" y="464"/>
      <point x="247" y="464" type="curve" smooth="yes"/>
      <point x="114" y="464"/>
      <point x="124" y="349"/>
      <point x="52" y="349" type="curve" smooth="yes"/>
      <point x="44" y="349"/>
      <point x="30" y="355"/>
      <point x="18" y="365" type="curve"/>
      <point x="0" y="349" type="line"/>
      <point x="70" y="250"/>
      <point x="142" y="179"/>
    </contour>
    <contour>
      <point x="184" y="536" type="curve" smooth="yes"/>
      <point x="275" y="536"/>
      <point x="353" y="548"/>
      <point x="409" y="573" type="curve"/>
      <point x="450" y="646" type="line"/>
      <point x="441" y="654" type="line"/>
      <point x="6" y="654" type="line"/>
      <point x="1" y="646" type="line"/>
      <point x="28" y="572"/>
      <point x="88" y="536"/>
    </contour>
    <contour>
      <point x="350" y="203" type="line"/>
      <point x="450" y="203" type="line"/>
      <point x="450" y="646" type="line"/>
      <point x="350" y="618" type="line"/>
    </contour>
    <component base="_terminal" xOffset="350"/>
  </outline>
</glyph>
<glyph name="CaNya.rj" format="2">
  <advance width="683"/>
  <anchor x="343" y="21" name="bottom"/>
  <anchor x="459" y="-91" name="bottom2"/>
  <anchor x="522" y="-56" name="bottom3"/>
  <anchor x="95" y="616" name="top"/>
  <anchor x="628" y="646" name="top1"/>
  <anchor x="344" y="646" name="top2"/>
  <outline>
    <contour>
      <point x="718" y="-86" type="curve"/>
      <point x="727" y="-67" type="line"/>
      <point x="678" y="-39" type="line" smooth="yes"/>
      <point x="631" y="-12"/>
      <point x="628" y="-1"/>
      <point x="628" y="42" type="curve" smooth="yes"/>
      <point x="628" y="646" type="line"/>
      <point x="528" y="615" type="line"/>
      <point x="528" y="18" type="line"/>
      <point x="539" y="28" type="line"/>
      <point x="487" y="54"/>
      <point x="442" y="80"/>
      <point x="408" y="103" type="curve"/>
      <point x="393" y="46" type="line"/>
      <point x="463" y="14"/>
      <point x="589" y="-38"/>
    </contour>
    <contour>
      <point x="307" y="-28" type="curve" smooth="yes"/>
      <point x="390" y="-28"/>
      <point x="433" y="9"/>
      <point x="437" y="100" type="curve"/>
      <point x="411" y="68" type="line"/>
      <point x="438" y="68" type="line"/>
      <point x="438" y="326" type="line"/>
      <point x="343" y="326" type="line"/>
      <point x="343" y="132" type="line" smooth="yes"/>
      <point x="343" y="63"/>
      <point x="317" y="29"/>
      <point x="244" y="29" type="curve" smooth="yes"/>
      <point x="194" y="29"/>
      <point x="150" y="41"/>
      <point x="77" y="73" type="curve"/>
      <point x="67" y="56" type="line"/>
      <point x="159" y="0"/>
      <point x="241" y="-28"/>
    </contour>
    <contour>
      <point x="215" y="76" type="curve" smooth="yes"/>
      <point x="251" y="76"/>
      <point x="273" y="98"/>
      <point x="273" y="136" type="curve" smooth="yes"/>
      <point x="273" y="191" type="line"/>
      <point x="238" y="149" type="line"/>
      <point x="285" y="149"/>
      <point x="348" y="123"/>
      <point x="373" y="97" type="curve"/>
      <point x="395" y="132" type="line"/>
      <point x="336" y="185"/>
      <point x="266" y="216"/>
      <point x="207" y="216" type="curve" smooth="yes"/>
      <point x="151" y="216"/>
      <point x="118" y="191"/>
      <point x="118" y="150" type="curve" smooth="yes"/>
      <point x="118" y="110"/>
      <point x="162" y="76"/>
    </contour>
    <contour>
      <point x="381" y="574" type="line"/>
      <point x="588" y="574" type="line"/>
      <point x="628" y="646" type="line"/>
      <point x="621" y="654" type="line"/>
      <point x="381" y="654" type="line"/>
    </contour>
    <component base="_CaPre1"/>
  </outline>
</glyph>
<glyph name="CaVa.rj" format="2">
  <advance width="493"/>
  <anchor x="343" y="-10" name="bottom"/>
  <anchor x="316" y="61" name="bottom2"/>
  <anchor x="333" y="-10" name="bottom3"/>
  <anchor x="95" y="616" name="top"/>
  <anchor x="438" y="646" name="top1"/>
  <anchor x="230" y="646" name="top2"/>
  <outline>
    <contour>
      <point x="503" y="-26" type="curve"/>
      <point x="509" y="-10" type="line"/>
      <point x="481" y="4" type="line" smooth="yes"/>
      <point x="447" y="21"/>
      <point x="438" y="35"/>
      <point x="438" y="74" type="curve" smooth="yes"/>
      <point x="438" y="259" type="line"/>
      <point x="203" y="282" type="line"/>
      <point x="123" y="296"/>
      <point x="66" y="257"/>
      <point x="66" y="189" type="curve" smooth="yes"/>
      <point x="66" y="100"/>
      <point x="163" y="59"/>
    </contour>
    <contour>
      <point x="343" y="70" type="line"/>
      <point x="363" y="78" type="line"/>
      <point x="365" y="141"/>
      <point x="331" y="171"/>
      <point x="246" y="178" type="curve"/>
      <point x="241" y="165" type="line"/>
      <point x="260" y="153"/>
      <point x="272" y="135"/>
      <point x="272" y="116" type="curve" smooth="yes"/>
      <point x="272" y="104"/>
      <point x="263" y="93"/>
      <point x="247" y="93" type="curve" smooth="yes"/>
      <point x="210" y="93"/>
      <point x="179" y="129"/>
      <point x="179" y="169" type="curve" smooth="yes"/>
      <point x="179" y="210"/>
      <point x="212" y="237"/>
      <point x="268" y="237" type="curve" smooth="yes"/>
      <point x="296" y="237"/>
      <point x="327" y="229"/>
      <point x="352" y="216" type="curve"/>
      <point x="343" y="233" type="line"/>
    </contour>
    <contour>
      <point x="163" y="256" type="curve"/>
      <point x="263" y="257" type="line"/>
      <point x="387" y="256" type="line"/>
      <point x="338" y="336" type="line"/>
      <point x="316" y="316"/>
      <point x="259" y="306"/>
      <point x="240" y="306" type="curve" smooth="yes"/>
      <point x="184" y="306"/>
      <point x="155" y="318"/>
      <point x="137" y="347" type="curve"/>
      <point x="119" y="321" type="line"/>
      <point x="148" y="311" type="line"/>
      <point x="162" y="392"/>
      <point x="215" y="432"/>
      <point x="288" y="432" type="curve" smooth="yes"/>
      <point x="323" y="432"/>
      <point x="352" y="422"/>
      <point x="393" y="396" type="curve"/>
      <point x="396" y="442" type="line"/>
      <point x="333" y="488"/>
      <point x="286" y="507"/>
      <point x="231" y="507" type="curve" smooth="yes"/>
      <point x="110" y="507"/>
      <point x="82" y="402"/>
      <point x="51" y="402" type="curve" smooth="yes"/>
      <point x="43" y="402"/>
      <point x="33" y="408"/>
      <point x="20" y="420" type="curve"/>
      <point x="6" y="408" type="line"/>
      <point x="58" y="333"/>
      <point x="108" y="284"/>
    </contour>
    <contour>
      <point x="229" y="259" type="curve"/>
      <point x="339" y="292" type="line"/>
      <point x="360" y="373" type="line"/>
      <point x="343" y="379"/>
      <point x="325" y="382"/>
      <point x="311" y="382" type="curve" smooth="yes"/>
      <point x="254" y="382"/>
      <point x="221" y="348"/>
      <point x="221" y="290" type="curve" smooth="yes"/>
      <point x="221" y="279"/>
      <point x="223" y="270"/>
    </contour>
    <contour>
      <point x="343" y="226" type="line"/>
      <point x="438" y="226" type="line"/>
      <point x="438" y="646" type="line"/>
      <point x="343" y="624" type="line"/>
    </contour>
    <contour>
      <point x="173" y="562" type="curve" smooth="yes"/>
      <point x="257" y="562"/>
      <point x="343" y="573"/>
      <point x="400" y="591" type="curve"/>
      <point x="438" y="646" type="line"/>
      <point x="429" y="654" type="line"/>
      <point x="4" y="654" type="line"/>
      <point x="0" y="646" type="line"/>
      <point x="26" y="595"/>
      <point x="82" y="562"/>
    </contour>
  </outline>
</glyph>
<glyph name="ChaCha.rj" format="2">
  <advance width="514"/>
  <anchor x="369" y="4" name="bottom"/>
  <anchor x="346" y="44" name="bottom2"/>
  <anchor x="370" y="-25" name="bottom3"/>
  <anchor x="459" y="646" name="top1"/>
  <anchor x="254" y="646" name="top2"/>
  <anchor x="109" y="604" name="top_alt"/>
  <outline>
    <contour>
      <point x="538" y="-46" type="curve"/>
      <point x="544" y="-30" type="line"/>
      <point x="516" y="-16" type="line" smooth="yes"/>
      <point x="465" y="9"/>
      <point x="459" y="26"/>
      <point x="459" y="73" type="curve" smooth="yes"/>
      <point x="459" y="306" type="line"/>
      <point x="364" y="306" type="line"/>
      <point x="364" y="146" type="line"/>
      <point x="385" y="148" type="line"/>
      <point x="363" y="158"/>
      <point x="330" y="165"/>
      <point x="298" y="165" type="curve" smooth="yes"/>
      <point x="233" y="165"/>
      <point x="194" y="143"/>
      <point x="194" y="105" type="curve" smooth="yes"/>
      <point x="194" y="35"/>
      <point x="323" y="11"/>
    </contour>
    <contour>
      <point x="184" y="32" type="curve" smooth="yes"/>
      <point x="216" y="32"/>
      <point x="244" y="39"/>
      <point x="272" y="54" type="curve"/>
      <point x="254" y="84" type="line"/>
      <point x="230" y="73"/>
      <point x="214" y="68"/>
      <point x="201" y="68" type="curve" smooth="yes"/>
      <point x="169" y="68"/>
      <point x="151" y="82"/>
      <point x="151" y="106" type="curve" smooth="yes"/>
      <point x="151" y="133"/>
      <point x="172" y="149"/>
      <point x="208" y="149" type="curve"/>
      <point x="168" y="200" type="line"/>
      <point x="105" y="200"/>
      <point x="68" y="169"/>
      <point x="68" y="117" type="curve" smooth="yes"/>
      <point x="68" y="67"/>
      <point x="116" y="32"/>
    </contour>
    <contour>
      <point x="322" y="32" type="curve"/>
      <point x="358" y="39" type="line"/>
      <point x="306" y="47"/>
      <point x="281" y="64"/>
      <point x="281" y="90" type="curve" smooth="yes"/>
      <point x="281" y="114"/>
      <point x="302" y="128"/>
      <point x="338" y="128" type="curve" smooth="yes"/>
      <point x="357" y="128"/>
      <point x="381" y="124"/>
      <point x="401" y="118" type="curve"/>
      <point x="369" y="136" type="line"/>
      <point x="369" y="74" type="line"/>
      <point x="406" y="88" type="line"/>
      <point x="389" y="91"/>
      <point x="375" y="94"/>
      <point x="364" y="94" type="curve" smooth="yes"/>
      <point x="334" y="94"/>
      <point x="316" y="79"/>
      <point x="316" y="53" type="curve" smooth="yes"/>
      <point x="316" y="48"/>
      <point x="318" y="40"/>
    </contour>
    <contour>
      <point x="258" y="97" type="curve"/>
      <point x="272" y="123" type="line"/>
      <point x="240" y="139"/>
      <point x="195" y="172"/>
      <point x="158" y="203" type="curve"/>
      <point x="200" y="148" type="line"/>
      <point x="209" y="205"/>
      <point x="249" y="238"/>
      <point x="307" y="238" type="curve" smooth="yes"/>
      <point x="332" y="238"/>
      <point x="354" y="233"/>
      <point x="389" y="218" type="curve"/>
      <point x="429" y="263" type="line"/>
      <point x="283" y="263" type="line"/>
      <point x="257" y="305" type="line"/>
      <point x="175" y="305"/>
      <point x="138" y="225"/>
      <point x="103" y="225" type="curve" smooth="yes"/>
      <point x="94" y="225"/>
      <point x="85" y="228"/>
      <point x="67" y="238" type="curve"/>
      <point x="53" y="221" type="line"/>
      <point x="127" y="168"/>
      <point x="199" y="126"/>
    </contour>
    <contour>
      <point x="243" y="127" type="curve"/>
      <point x="399" y="131" type="line"/>
      <point x="389" y="179" type="line"/>
      <point x="379" y="190"/>
      <point x="347" y="199"/>
      <point x="323" y="199" type="curve" smooth="yes"/>
      <point x="276" y="199"/>
      <point x="243" y="169"/>
    </contour>
    <component base="_ChaPre1" xOffset="21"/>
  </outline>
</glyph>
<glyph name="ChaLa.rj" format="2">
  <advance width="514"/>
  <anchor x="359" y="46" name="bottom"/>
  <anchor x="443" y="-11" name="bottom3"/>
  <anchor x="459" y="646" name="top1"/>
  <anchor x="244" y="646" name="top2"/>
  <anchor x="109" y="604" name="top_alt"/>
  <outline>
    <contour>
      <point x="392" y="227" type="curve"/>
      <point x="459" y="240" type="line"/>
      <point x="459" y="646" type="line"/>
      <point x="364" y="601" type="line"/>
      <point x="364" y="369" type="line"/>
      <point x="380" y="371" type="line"/>
      <point x="356" y="383"/>
      <point x="321" y="390"/>
      <point x="285" y="390" type="curve" smooth="yes"/>
      <point x="219" y="390"/>
      <point x="172" y="360"/>
      <point x="172" y="322" type="curve" smooth="yes"/>
      <point x="172" y="276"/>
      <point x="225" y="253"/>
    </contour>
    <contour>
      <point x="161" y="248" type="curve" smooth="yes"/>
      <point x="195" y="248"/>
      <point x="225" y="255"/>
      <point x="254" y="268" type="curve"/>
      <point x="242" y="298" type="line"/>
      <point x="219" y="290"/>
      <point x="199" y="286"/>
      <point x="184" y="286" type="curve" smooth="yes"/>
      <point x="148" y="286"/>
      <point x="126" y="300"/>
      <point x="126" y="324" type="curve" smooth="yes"/>
      <point x="126" y="352"/>
      <point x="150" y="372"/>
      <point x="184" y="372" type="curve"/>
      <point x="147" y="427" type="line"/>
      <point x="82" y="427"/>
      <point x="38" y="390"/>
      <point x="38" y="337" type="curve" smooth="yes"/>
      <point x="38" y="281"/>
      <point x="84" y="248"/>
    </contour>
    <contour>
      <point x="242" y="314" type="curve"/>
      <point x="256" y="343" type="line"/>
      <point x="222" y="361"/>
      <point x="172" y="398"/>
      <point x="133" y="433" type="curve"/>
      <point x="170" y="380" type="line"/>
      <point x="191" y="439"/>
      <point x="237" y="468"/>
      <point x="295" y="468" type="curve" smooth="yes"/>
      <point x="322" y="468"/>
      <point x="347" y="461"/>
      <point x="382" y="442" type="curve"/>
      <point x="395" y="484" type="line"/>
      <point x="345" y="517"/>
      <point x="304" y="535"/>
      <point x="246" y="535" type="curve" smooth="yes"/>
      <point x="141" y="535"/>
      <point x="105" y="459"/>
      <point x="67" y="459" type="curve" smooth="yes"/>
      <point x="59" y="459"/>
      <point x="52" y="462"/>
      <point x="35" y="471" type="curve"/>
      <point x="22" y="453" type="line"/>
      <point x="101" y="394"/>
      <point x="178" y="346"/>
    </contour>
    <contour>
      <point x="310" y="254" type="curve"/>
      <point x="363" y="262" type="line"/>
      <point x="298" y="272"/>
      <point x="266" y="288"/>
      <point x="266" y="312" type="curve" smooth="yes"/>
      <point x="266" y="338"/>
      <point x="293" y="349"/>
      <point x="327" y="349" type="curve" smooth="yes"/>
      <point x="347" y="349"/>
      <point x="374" y="345"/>
      <point x="396" y="340" type="curve"/>
      <point x="367" y="358" type="line"/>
      <point x="367" y="296" type="line"/>
      <point x="400" y="309" type="line"/>
      <point x="383" y="313"/>
      <point x="367" y="315"/>
      <point x="356" y="315" type="curve" smooth="yes"/>
      <point x="323" y="315"/>
      <point x="303" y="300"/>
      <point x="303" y="274" type="curve" smooth="yes"/>
      <point x="303" y="269"/>
      <point x="305" y="261"/>
    </contour>
    <contour>
      <point x="224" y="352" type="curve"/>
      <point x="392" y="357" type="line"/>
      <point x="382" y="408" type="line"/>
      <point x="370" y="419"/>
      <point x="337" y="429"/>
      <point x="310" y="429" type="curve" smooth="yes"/>
      <point x="262" y="429"/>
      <point x="224" y="392"/>
    </contour>
    <contour>
      <point x="172" y="573" type="curve" smooth="yes"/>
      <point x="261" y="573"/>
      <point x="366" y="583"/>
      <point x="398" y="594" type="curve"/>
      <point x="459" y="646" type="line"/>
      <point x="450" y="654" type="line"/>
      <point x="4" y="654" type="line"/>
      <point x="0" y="648" type="line"/>
      <point x="19" y="599"/>
      <point x="80" y="573"/>
    </contour>
    <component base="_LaPost" xOffset="37"/>
  </outline>
</glyph>
<glyph name="ChaNa.rj" format="2">
  <advance width="499"/>
  <anchor x="344" y="9" name="bottom"/>
  <anchor x="344" y="69" name="bottom2"/>
  <anchor x="374" y="9" name="bottom3"/>
  <anchor x="444" y="646" name="top1"/>
  <anchor x="250" y="646" name="top2"/>
  <anchor x="94" y="604" name="top_alt"/>
  <outline>
    <contour>
      <point x="367" y="217" type="curve"/>
      <point x="444" y="240" type="line"/>
      <point x="444" y="646" type="line"/>
      <point x="349" y="601" type="line"/>
      <point x="349" y="369" type="line"/>
      <point x="365" y="371" type="line"/>
      <point x="341" y="383"/>
      <point x="306" y="390"/>
      <point x="270" y="390" type="curve" smooth="yes"/>
      <point x="204" y="390"/>
      <point x="157" y="360"/>
      <point x="157" y="322" type="curve" smooth="yes"/>
      <point x="157" y="276"/>
      <point x="200" y="250"/>
    </contour>
    <contour>
      <point x="146" y="248" type="curve" smooth="yes"/>
      <point x="180" y="248"/>
      <point x="210" y="255"/>
      <point x="239" y="268" type="curve"/>
      <point x="227" y="298" type="line"/>
      <point x="204" y="290"/>
      <point x="184" y="286"/>
      <point x="169" y="286" type="curve" smooth="yes"/>
      <point x="133" y="286"/>
      <point x="111" y="300"/>
      <point x="111" y="324" type="curve" smooth="yes"/>
      <point x="111" y="352"/>
      <point x="135" y="372"/>
      <point x="169" y="372" type="curve"/>
      <point x="132" y="427" type="line"/>
      <point x="67" y="427"/>
      <point x="23" y="390"/>
      <point x="23" y="337" type="curve" smooth="yes"/>
      <point x="23" y="281"/>
      <point x="69" y="248"/>
    </contour>
    <contour>
      <point x="227" y="314" type="curve"/>
      <point x="241" y="343" type="line"/>
      <point x="207" y="361"/>
      <point x="157" y="398"/>
      <point x="118" y="433" type="curve"/>
      <point x="158" y="380" type="line"/>
      <point x="172" y="435"/>
      <point x="217" y="467"/>
      <point x="280" y="467" type="curve" smooth="yes"/>
      <point x="307" y="467"/>
      <point x="335" y="459"/>
      <point x="367" y="442" type="curve"/>
      <point x="380" y="484" type="line"/>
      <point x="330" y="517"/>
      <point x="289" y="535"/>
      <point x="231" y="535" type="curve" smooth="yes"/>
      <point x="126" y="535"/>
      <point x="90" y="459"/>
      <point x="52" y="459" type="curve" smooth="yes"/>
      <point x="44" y="459"/>
      <point x="37" y="462"/>
      <point x="20" y="471" type="curve"/>
      <point x="7" y="453" type="line"/>
      <point x="86" y="394"/>
      <point x="163" y="346"/>
    </contour>
    <contour>
      <point x="336" y="253" type="line"/>
      <point x="277" y="267"/>
      <point x="251" y="282"/>
      <point x="251" y="309" type="curve" smooth="yes"/>
      <point x="251" y="334"/>
      <point x="274" y="349"/>
      <point x="312" y="349" type="curve" smooth="yes"/>
      <point x="332" y="349"/>
      <point x="359" y="345"/>
      <point x="381" y="340" type="curve"/>
      <point x="352" y="358" type="line"/>
      <point x="352" y="296" type="line"/>
      <point x="385" y="309" type="line"/>
      <point x="368" y="313"/>
      <point x="352" y="315"/>
      <point x="341" y="315" type="curve" smooth="yes"/>
      <point x="308" y="315"/>
      <point x="288" y="300"/>
      <point x="288" y="274" type="curve" smooth="yes"/>
      <point x="288" y="269"/>
      <point x="290" y="261"/>
      <point x="295" y="254" type="curve"/>
    </contour>
    <contour>
      <point x="209" y="352" type="curve"/>
      <point x="377" y="357" type="line"/>
      <point x="367" y="408" type="line"/>
      <point x="355" y="419"/>
      <point x="322" y="429"/>
      <point x="295" y="429" type="curve" smooth="yes"/>
      <point x="247" y="429"/>
      <point x="209" y="392"/>
    </contour>
    <contour>
      <point x="157" y="573" type="curve" smooth="yes"/>
      <point x="246" y="573"/>
      <point x="351" y="583"/>
      <point x="383" y="594" type="curve"/>
      <point x="444" y="646" type="line"/>
      <point x="435" y="654" type="line"/>
      <point x="-11" y="654" type="line"/>
      <point x="-15" y="648" type="line"/>
      <point x="4" y="599"/>
      <point x="65" y="573"/>
    </contour>
    <component base="_NaPost1" xOffset="26"/>
  </outline>
</glyph>
<glyph name="ChaRa.rj" format="2">
  <advance width="530"/>
  <anchor x="366" y="5" name="bottom"/>
  <anchor x="368" y="38" name="bottom2"/>
  <anchor x="306" y="9" name="bottom3"/>
  <anchor x="101" y="609" name="top"/>
  <anchor x="477" y="646" name="top1"/>
  <anchor x="284" y="646" name="top2"/>
  <outline>
    <contour>
      <point x="385" y="119" type="curve"/>
      <point x="477" y="162" type="line"/>
      <point x="477" y="646" type="line"/>
      <point x="379" y="589" type="line"/>
      <point x="379" y="317" type="line"/>
      <point x="396" y="320" type="line"/>
      <point x="370" y="336"/>
      <point x="334" y="346"/>
      <point x="298" y="346" type="curve" smooth="yes"/>
      <point x="234" y="346"/>
      <point x="181" y="310"/>
      <point x="181" y="266" type="curve" smooth="yes"/>
      <point x="181" y="205"/>
      <point x="239" y="163"/>
    </contour>
    <contour>
      <point x="164" y="173" type="curve" smooth="yes"/>
      <point x="201" y="173"/>
      <point x="234" y="180"/>
      <point x="265" y="195" type="curve"/>
      <point x="252" y="230" type="line"/>
      <point x="227" y="221"/>
      <point x="206" y="217"/>
      <point x="189" y="217" type="curve" smooth="yes"/>
      <point x="149" y="217"/>
      <point x="126" y="233"/>
      <point x="126" y="261" type="curve" smooth="yes"/>
      <point x="126" y="294"/>
      <point x="153" y="317"/>
      <point x="190" y="317" type="curve"/>
      <point x="149" y="383" type="line"/>
      <point x="81" y="383"/>
      <point x="33" y="339"/>
      <point x="33" y="277" type="curve" smooth="yes"/>
      <point x="33" y="216"/>
      <point x="87" y="173"/>
    </contour>
    <contour>
      <point x="325" y="162" type="curve"/>
      <point x="369" y="166" type="line"/>
      <point x="308" y="182"/>
      <point x="283" y="200"/>
      <point x="283" y="238" type="curve" smooth="yes"/>
      <point x="283" y="268"/>
      <point x="309" y="290"/>
      <point x="352" y="290" type="curve" smooth="yes"/>
      <point x="373" y="290"/>
      <point x="389" y="286"/>
      <point x="412" y="278" type="curve"/>
      <point x="382" y="305" type="line"/>
      <point x="382" y="216" type="line"/>
      <point x="416" y="235" type="line"/>
      <point x="399" y="241"/>
      <point x="383" y="245"/>
      <point x="370" y="245" type="curve" smooth="yes"/>
      <point x="339" y="245"/>
      <point x="317" y="224"/>
      <point x="317" y="194" type="curve" smooth="yes"/>
      <point x="317" y="185"/>
      <point x="319" y="174"/>
    </contour>
    <contour>
      <point x="253" y="255" type="curve"/>
      <point x="267" y="290" type="line"/>
      <point x="232" y="311"/>
      <point x="179" y="351"/>
      <point x="138" y="388" type="curve"/>
      <point x="181" y="333" type="line"/>
      <point x="190" y="392"/>
      <point x="240" y="434"/>
      <point x="301" y="434" type="curve" smooth="yes"/>
      <point x="330" y="434"/>
      <point x="358" y="425"/>
      <point x="388" y="408" type="curve"/>
      <point x="401" y="456" type="line"/>
      <point x="353" y="495"/>
      <point x="301" y="514"/>
      <point x="245" y="514" type="curve" smooth="yes"/>
      <point x="136" y="514"/>
      <point x="109" y="423"/>
      <point x="73" y="423" type="curve" smooth="yes"/>
      <point x="67" y="423"/>
      <point x="57" y="426"/>
      <point x="38" y="438" type="curve"/>
      <point x="21" y="420" type="line"/>
      <point x="102" y="350"/>
      <point x="186" y="293"/>
    </contour>
    <contour>
      <point x="232" y="292" type="curve"/>
      <point x="371" y="302" type="line"/>
      <point x="403" y="363" type="line"/>
      <point x="390" y="376"/>
      <point x="354" y="389"/>
      <point x="326" y="389" type="curve" smooth="yes"/>
      <point x="271" y="389"/>
      <point x="232" y="349"/>
    </contour>
    <contour>
      <point x="181" y="564" type="curve" smooth="yes"/>
      <point x="272" y="564"/>
      <point x="381" y="576"/>
      <point x="414" y="589" type="curve"/>
      <point x="477" y="646" type="line"/>
      <point x="468" y="654" type="line"/>
      <point x="6" y="654" type="line"/>
      <point x="2" y="646" type="line"/>
      <point x="22" y="585"/>
      <point x="85" y="564"/>
    </contour>
    <component base="_Rakar3" xOffset="-11"/>
  </outline>
</glyph>
<glyph name="ChaYa.rj" format="2">
  <advance width="601"/>
  <anchor x="446" y="59" name="bottom"/>
  <anchor x="457" y="53" name="bottom2"/>
  <anchor x="546" y="646" name="top1"/>
  <anchor x="274" y="646" name="top2"/>
  <anchor x="71" y="610" name="top_alt"/>
  <anchor x="477" y="-10" name="bottom3"/>
  <outline>
    <contour>
      <point x="287" y="-1" type="curve"/>
      <point x="299" y="4" type="line"/>
      <point x="311" y="47"/>
      <point x="346" y="72"/>
      <point x="383" y="72" type="curve" smooth="yes"/>
      <point x="412" y="72"/>
      <point x="431" y="65"/>
      <point x="457" y="53" type="curve"/>
      <point x="460" y="91" type="line"/>
      <point x="423" y="129"/>
      <point x="382" y="154"/>
      <point x="327" y="154" type="curve" smooth="yes"/>
      <point x="275" y="154"/>
      <point x="237" y="128"/>
      <point x="214" y="67" type="curve"/>
      <point x="290" y="46" type="line"/>
      <point x="237" y="79"/>
      <point x="191" y="106"/>
      <point x="132" y="146" type="curve"/>
      <point x="165" y="98" type="line"/>
      <point x="178" y="166"/>
      <point x="225" y="205"/>
      <point x="303" y="205" type="curve" smooth="yes"/>
      <point x="313" y="205"/>
      <point x="332" y="203"/>
      <point x="351" y="198" type="curve"/>
      <point x="358" y="202" type="line"/>
      <point x="329" y="230" type="line"/>
      <point x="267" y="261" type="line"/>
      <point x="176" y="275"/>
      <point x="101" y="231"/>
      <point x="65" y="143" type="curve"/>
      <point x="66" y="137" type="line"/>
      <point x="122" y="99"/>
      <point x="204" y="50"/>
    </contour>
    <contour>
      <point x="358" y="202" type="line"/>
      <point x="358" y="299" type="line"/>
      <point x="258" y="299" type="line"/>
      <point x="258" y="256" type="line"/>
    </contour>
    <component base="_ChaPre2" xOffset="-30"/>
    <component base="_Danda2" xOffset="-51"/>
  </outline>
</glyph>
<glyph name="Chandrabindu_alt.rj" format="2">
  <anchor x="113" y="646" name="_top2"/>
  <outline>
    <contour>
      <point x="86" y="774" type="curve" smooth="yes"/>
      <point x="129" y="774"/>
      <point x="156" y="793"/>
      <point x="156" y="825" type="curve" smooth="yes"/>
      <point x="156" y="873"/>
      <point x="80" y="881"/>
      <point x="80" y="898" type="curve" smooth="yes"/>
      <point x="80" y="906"/>
      <point x="98" y="915"/>
      <point x="98" y="922" type="curve" smooth="yes"/>
      <point x="98" y="930"/>
      <point x="85" y="939"/>
      <point x="85" y="945" type="curve" smooth="yes"/>
      <point x="85" y="948"/>
      <point x="87" y="950"/>
      <point x="96" y="953" type="curve"/>
      <point x="93" y="962" type="line"/>
      <point x="72" y="959"/>
      <point x="63" y="953"/>
      <point x="63" y="945" type="curve" smooth="yes"/>
      <point x="63" y="938"/>
      <point x="72" y="932"/>
      <point x="72" y="927" type="curve" smooth="yes"/>
      <point x="72" y="919"/>
      <point x="46" y="908"/>
      <point x="46" y="895" type="curve" smooth="yes"/>
      <point x="46" y="869"/>
      <point x="124" y="861"/>
      <point x="124" y="828" type="curve" smooth="yes"/>
      <point x="124" y="812"/>
      <point x="109" y="804"/>
      <point x="85" y="804" type="curve" smooth="yes"/>
      <point x="65" y="804"/>
      <point x="51" y="810"/>
      <point x="51" y="821" type="curve" smooth="yes"/>
      <point x="51" y="829"/>
      <point x="55" y="835"/>
      <point x="64" y="835" type="curve" smooth="yes"/>
      <point x="73" y="835"/>
      <point x="77" y="828"/>
      <point x="74" y="820" type="curve"/>
      <point x="81" y="817" type="line"/>
      <point x="90" y="820"/>
      <point x="94" y="826"/>
      <point x="94" y="833" type="curve" smooth="yes"/>
      <point x="94" y="847"/>
      <point x="79" y="858"/>
      <point x="58" y="858" type="curve" smooth="yes"/>
      <point x="35" y="858"/>
      <point x="19" y="841"/>
      <point x="19" y="820" type="curve" smooth="yes"/>
      <point x="19" y="793"/>
      <point x="48" y="774"/>
    </contour>
    <contour>
      <point x="122" y="722" type="curve" smooth="yes"/>
      <point x="157" y="722"/>
      <point x="187" y="732"/>
      <point x="210" y="752" type="curve"/>
      <point x="173" y="787" type="line"/>
      <point x="151" y="765"/>
      <point x="123" y="752"/>
      <point x="90" y="752" type="curve" smooth="yes"/>
      <point x="58" y="752"/>
      <point x="26" y="763"/>
      <point x="2" y="785" type="curve"/>
      <point x="-9" y="774" type="line"/>
      <point x="23" y="741"/>
      <point x="72" y="722"/>
    </contour>
  </outline>
</glyph>
<glyph name="Chandrabindu_alt2.rj" format="2">
  <anchor x="141" y="665" name="_top2"/>
  <outline>
    <contour>
      <point x="92" y="759" type="curve" smooth="yes"/>
      <point x="122" y="759"/>
      <point x="141" y="772"/>
      <point x="141" y="795" type="curve" smooth="yes"/>
      <point x="141" y="828"/>
      <point x="88" y="834"/>
      <point x="88" y="846" type="curve" smooth="yes"/>
      <point x="88" y="851"/>
      <point x="101" y="858"/>
      <point x="101" y="862" type="curve" smooth="yes"/>
      <point x="101" y="868"/>
      <point x="92" y="874"/>
      <point x="92" y="879" type="curve" smooth="yes"/>
      <point x="92" y="881"/>
      <point x="93" y="882"/>
      <point x="99" y="884" type="curve"/>
      <point x="97" y="890" type="line"/>
      <point x="82" y="888"/>
      <point x="76" y="884"/>
      <point x="76" y="879" type="curve" smooth="yes"/>
      <point x="76" y="874"/>
      <point x="82" y="869"/>
      <point x="82" y="866" type="curve" smooth="yes"/>
      <point x="82" y="860"/>
      <point x="64" y="853"/>
      <point x="64" y="844" type="curve" smooth="yes"/>
      <point x="64" y="825"/>
      <point x="119" y="820"/>
      <point x="119" y="797" type="curve" smooth="yes"/>
      <point x="119" y="785"/>
      <point x="108" y="780"/>
      <point x="92" y="780" type="curve" smooth="yes"/>
      <point x="78" y="780"/>
      <point x="68" y="784"/>
      <point x="68" y="792" type="curve" smooth="yes"/>
      <point x="68" y="797"/>
      <point x="71" y="802"/>
      <point x="77" y="802" type="curve" smooth="yes"/>
      <point x="83" y="802"/>
      <point x="86" y="797"/>
      <point x="84" y="791" type="curve"/>
      <point x="89" y="789" type="line"/>
      <point x="95" y="791"/>
      <point x="98" y="795"/>
      <point x="98" y="800" type="curve" smooth="yes"/>
      <point x="98" y="810"/>
      <point x="87" y="818"/>
      <point x="73" y="818" type="curve" smooth="yes"/>
      <point x="57" y="818"/>
      <point x="45" y="806"/>
      <point x="45" y="791" type="curve" smooth="yes"/>
      <point x="45" y="772"/>
      <point x="66" y="759"/>
    </contour>
    <contour>
      <point x="117" y="722" type="curve" smooth="yes"/>
      <point x="142" y="722"/>
      <point x="163" y="729"/>
      <point x="179" y="743" type="curve"/>
      <point x="153" y="768" type="line"/>
      <point x="138" y="753"/>
      <point x="118" y="743"/>
      <point x="95" y="743" type="curve" smooth="yes"/>
      <point x="73" y="743"/>
      <point x="50" y="751"/>
      <point x="33" y="767" type="curve"/>
      <point x="26" y="759" type="line"/>
      <point x="48" y="736"/>
      <point x="82" y="722"/>
    </contour>
    <contour>
      <point x="117" y="722" type="curve" smooth="yes"/>
      <point x="142" y="722"/>
      <point x="163" y="729"/>
      <point x="179" y="743" type="curve"/>
      <point x="153" y="768" type="line"/>
      <point x="138" y="753"/>
      <point x="118" y="743"/>
      <point x="95" y="743" type="curve" smooth="yes"/>
      <point x="73" y="743"/>
      <point x="50" y="751"/>
      <point x="33" y="767" type="curve"/>
      <point x="26" y="759" type="line"/>
      <point x="48" y="736"/>
      <point x="82" y="722"/>
    </contour>
  </outline>
</glyph>
<glyph name="DaBa.rj" format="2">
  <advance width="488"/>
  <anchor x="338" y="-11" name="bottom"/>
  <anchor x="311" y="61" name="bottom2"/>
  <anchor x="315" y="0" name="bottom3"/>
  <anchor x="97" y="613" name="top"/>
  <anchor x="433" y="646" name="top1"/>
  <anchor x="232" y="646" name="top2"/>
  <outline>
    <contour>
      <point x="433" y="206" type="line"/>
      <point x="433" y="316" type="line" smooth="yes"/>
      <point x="433" y="367"/>
      <point x="370" y="423"/>
      <point x="311" y="423" type="curve" smooth="yes"/>
      <point x="284" y="423"/>
      <point x="245" y="398"/>
      <point x="222" y="365" type="curve"/>
      <point x="272" y="323" type="line"/>
      <point x="293" y="346"/>
      <point x="322" y="364"/>
      <point x="334" y="364" type="curve" smooth="yes"/>
      <point x="342" y="364"/>
      <point x="346" y="360"/>
      <point x="346" y="353" type="curve" smooth="yes"/>
      <point x="346" y="326"/>
      <point x="305" y="298"/>
      <point x="264" y="298" type="curve" smooth="yes"/>
      <point x="205" y="298"/>
      <point x="153" y="338"/>
      <point x="135" y="383" type="curve"/>
      <point x="121" y="348" type="line"/>
      <point x="140" y="310" type="line"/>
      <point x="158" y="398"/>
      <point x="228" y="453"/>
      <point x="297" y="453" type="curve" smooth="yes"/>
      <point x="345" y="453"/>
      <point x="383" y="444"/>
      <point x="427" y="422" type="curve"/>
      <point x="433" y="427" type="line"/>
      <point x="433" y="646" type="line"/>
      <point x="333" y="610" type="line"/>
      <point x="333" y="493" type="line"/>
      <point x="396" y="467" type="line"/>
      <point x="348" y="511"/>
      <point x="301" y="529"/>
      <point x="237" y="529" type="curve" smooth="yes"/>
      <point x="137" y="529"/>
      <point x="104" y="441"/>
      <point x="64" y="441" type="curve" smooth="yes"/>
      <point x="54" y="441"/>
      <point x="45" y="450"/>
      <point x="35" y="458" type="curve"/>
      <point x="21" y="446" type="line"/>
      <point x="72" y="355"/>
      <point x="135" y="281"/>
      <point x="201" y="244" type="curve"/>
    </contour>
    <contour>
      <point x="256" y="61" type="curve"/>
      <point x="309" y="74" type="line"/>
      <point x="245" y="83"/>
      <point x="200" y="120"/>
      <point x="200" y="163" type="curve" smooth="yes"/>
      <point x="200" y="204"/>
      <point x="228" y="228"/>
      <point x="276" y="228" type="curve" smooth="yes"/>
      <point x="305" y="228"/>
      <point x="340" y="220"/>
      <point x="355" y="208" type="curve"/>
      <point x="338" y="228" type="line"/>
      <point x="338" y="145" type="line"/>
      <point x="352" y="157" type="line"/>
      <point x="341" y="163"/>
      <point x="329" y="166"/>
      <point x="311" y="166" type="curve" smooth="yes"/>
      <point x="273" y="166"/>
      <point x="246" y="139"/>
      <point x="246" y="101" type="curve" smooth="yes"/>
      <point x="246" y="89"/>
      <point x="249" y="77"/>
    </contour>
    <contour>
      <point x="498" y="-26" type="curve"/>
      <point x="504" y="-10" type="line"/>
      <point x="480" y="2" type="line" smooth="yes"/>
      <point x="441" y="22"/>
      <point x="433" y="34"/>
      <point x="433" y="76" type="curve" smooth="yes"/>
      <point x="433" y="246" type="line"/>
      <point x="366" y="223" type="line"/>
      <point x="326" y="260"/>
      <point x="270" y="276"/>
      <point x="223" y="276" type="curve" smooth="yes"/>
      <point x="141" y="276"/>
      <point x="92" y="239"/>
      <point x="92" y="178" type="curve" smooth="yes"/>
      <point x="92" y="94"/>
      <point x="173" y="55"/>
    </contour>
    <contour>
      <point x="175" y="562" type="curve" smooth="yes"/>
      <point x="232" y="562"/>
      <point x="321" y="573"/>
      <point x="365" y="591" type="curve"/>
      <point x="433" y="646" type="line"/>
      <point x="423" y="654" type="line"/>
      <point x="4" y="654" type="line"/>
      <point x="0" y="646" type="line"/>
      <point x="23" y="581"/>
      <point x="85" y="562"/>
    </contour>
  </outline>
</glyph>
<glyph name="DaBhaRa_alt_U_uu.rj" format="2">
  <advance width="498"/>
  <anchor x="343" y="5" name="bottom"/>
  <anchor x="376" y="31" name="bottom2"/>
  <anchor x="109" y="618" name="top"/>
  <anchor x="443" y="646" name="top1"/>
  <anchor x="230" y="646" name="top2"/>
  <outline>
    <contour>
      <point x="251" y="-2" type="curve"/>
      <point x="263" y="15" type="line"/>
      <point x="221" y="43"/>
      <point x="175" y="75"/>
      <point x="155" y="95" type="curve"/>
      <point x="138" y="72" type="line"/>
      <point x="169" y="52" type="line"/>
      <point x="203" y="66"/>
      <point x="236" y="77"/>
      <point x="251" y="113" type="curve" smooth="yes"/>
      <point x="263" y="141"/>
      <point x="276" y="155"/>
      <point x="303" y="155" type="curve" smooth="yes"/>
      <point x="325" y="155"/>
      <point x="342" y="143"/>
      <point x="366" y="113" type="curve"/>
      <point x="356" y="175" type="line"/>
      <point x="322" y="207"/>
      <point x="291" y="217"/>
      <point x="260" y="217" type="curve" smooth="yes"/>
      <point x="164" y="217"/>
      <point x="158" y="124"/>
      <point x="108" y="124" type="curve" smooth="yes"/>
      <point x="99" y="124"/>
      <point x="83" y="131"/>
      <point x="73" y="139" type="curve"/>
      <point x="57" y="120" type="line"/>
      <point x="107" y="78"/>
      <point x="176" y="39"/>
    </contour>
    <contour>
      <point x="534" y="-46" type="curve"/>
      <point x="437" y="11" type="line"/>
      <point x="437" y="117" type="line"/>
      <point x="383" y="114" type="line"/>
      <point x="369" y="121"/>
      <point x="357" y="124"/>
      <point x="341" y="124" type="curve" smooth="yes"/>
      <point x="322" y="124"/>
      <point x="310" y="115"/>
      <point x="307" y="90" type="curve" smooth="yes"/>
      <point x="304" y="71"/>
      <point x="300" y="66"/>
      <point x="288" y="66" type="curve" smooth="yes"/>
      <point x="281" y="66"/>
      <point x="276" y="67"/>
      <point x="265" y="71" type="curve"/>
      <point x="258" y="51" type="line"/>
      <point x="351" y="14"/>
      <point x="457" y="-22"/>
    </contour>
    <contour>
      <point x="534" y="-46" type="curve"/>
      <point x="542" y="-28" type="line"/>
      <point x="498" y="-5" type="line" smooth="yes"/>
      <point x="456" y="17"/>
      <point x="443" y="39"/>
      <point x="443" y="80" type="curve" smooth="yes"/>
      <point x="443" y="255" type="line"/>
      <point x="343" y="255" type="line"/>
      <point x="343" y="179" type="line"/>
      <point x="348" y="162" type="line"/>
      <point x="348" y="49" type="line"/>
      <point x="381" y="30"/>
      <point x="452" y="-8"/>
    </contour>
    <component base="_DaPre1" xOffset="10"/>
  </outline>
</glyph>
<glyph name="DaBhaYa.rj" format="2">
  <advance width="671"/>
  <anchor x="526" y="39" name="bottom"/>
  <anchor x="545" y="27" name="bottom2"/>
  <anchor x="569" y="-26" name="bottom3"/>
  <anchor x="616" y="646" name="top1"/>
  <anchor x="325" y="646" name="top2"/>
  <anchor x="100" y="605" name="top_alt"/>
  <outline>
    <contour>
      <point x="290" y="295" type="curve" smooth="yes"/>
      <point x="338" y="295"/>
      <point x="373" y="302"/>
      <point x="412" y="318" type="curve"/>
      <point x="436" y="336" type="line"/>
      <point x="436" y="375" type="line" smooth="yes"/>
      <point x="436" y="416"/>
      <point x="381" y="463"/>
      <point x="316" y="463" type="curve" smooth="yes"/>
      <point x="279" y="463"/>
      <point x="233" y="446"/>
      <point x="207" y="421" type="curve"/>
      <point x="265" y="382" type="line"/>
      <point x="295" y="399"/>
      <point x="326" y="412"/>
      <point x="345" y="412" type="curve" smooth="yes"/>
      <point x="353" y="412"/>
      <point x="357" y="409"/>
      <point x="357" y="403" type="curve" smooth="yes"/>
      <point x="357" y="383"/>
      <point x="311" y="362"/>
      <point x="264" y="362" type="curve" smooth="yes"/>
      <point x="202" y="362"/>
      <point x="161" y="380"/>
      <point x="123" y="426" type="curve"/>
      <point x="113" y="395" type="line"/>
      <point x="150" y="375" type="line"/>
      <point x="172" y="448"/>
      <point x="229" y="485"/>
      <point x="301" y="485" type="curve" smooth="yes"/>
      <point x="345" y="485"/>
      <point x="383" y="475"/>
      <point x="421" y="461" type="curve"/>
      <point x="427" y="465" type="line"/>
      <point x="427" y="646" type="line"/>
      <point x="327" y="614" type="line"/>
      <point x="327" y="498" type="line"/>
      <point x="395" y="496" type="line"/>
      <point x="348" y="529"/>
      <point x="290" y="545"/>
      <point x="239" y="545" type="curve" smooth="yes"/>
      <point x="133" y="545"/>
      <point x="106" y="473"/>
      <point x="62" y="473" type="curve" smooth="yes"/>
      <point x="53" y="473"/>
      <point x="44" y="477"/>
      <point x="30" y="486" type="curve"/>
      <point x="17" y="473" type="line"/>
      <point x="81" y="378"/>
      <point x="183" y="295"/>
    </contour>
    <contour>
      <point x="300" y="-69" type="curve"/>
      <point x="312" y="-52" type="line"/>
      <point x="238" y="10"/>
      <point x="167" y="70"/>
      <point x="113" y="132" type="curve"/>
      <point x="93" y="110" type="line"/>
      <point x="149" y="75" type="line"/>
      <point x="171" y="149"/>
      <point x="230" y="206"/>
      <point x="301" y="206" type="curve" smooth="yes"/>
      <point x="334" y="206"/>
      <point x="374" y="193"/>
      <point x="397" y="163" type="curve"/>
      <point x="395" y="192" type="line"/>
      <point x="358" y="247"/>
      <point x="303" y="276"/>
      <point x="248" y="276" type="curve" smooth="yes"/>
      <point x="121" y="276"/>
      <point x="107" y="167"/>
      <point x="55" y="167" type="curve" smooth="yes"/>
      <point x="44" y="167"/>
      <point x="30" y="174"/>
      <point x="16" y="186" type="curve"/>
      <point x="0" y="168" type="line"/>
      <point x="101" y="78"/>
      <point x="178" y="14"/>
    </contour>
    <contour>
      <point x="705" y="-56" type="curve"/>
      <point x="606" y="21" type="line"/>
      <point x="543" y="63"/>
      <point x="488" y="85"/>
      <point x="436" y="85" type="curve" smooth="yes"/>
      <point x="389" y="85"/>
      <point x="354" y="65"/>
      <point x="342" y="30" type="curve"/>
      <point x="396" y="11" type="line"/>
      <point x="273" y="87" type="line"/>
      <point x="300" y="54" type="line"/>
      <point x="322" y="100"/>
      <point x="356" y="122"/>
      <point x="403" y="122" type="curve" smooth="yes"/>
      <point x="412" y="122"/>
      <point x="419" y="121"/>
      <point x="430" y="119" type="curve"/>
      <point x="436" y="124" type="line"/>
      <point x="360" y="176" type="line"/>
      <point x="285" y="183"/>
      <point x="235" y="138"/>
      <point x="215" y="87" type="curve"/>
      <point x="216" y="78" type="line"/>
      <point x="273" y="44"/>
      <point x="319" y="15"/>
      <point x="403" y="-30" type="curve"/>
      <point x="419" y="-25" type="line"/>
      <point x="438" y="5"/>
      <point x="466" y="19"/>
      <point x="500" y="19" type="curve" smooth="yes"/>
      <point x="545" y="19"/>
      <point x="607" y="-8"/>
    </contour>
    <contour>
      <point x="436" y="124" type="line"/>
      <point x="436" y="343" type="line"/>
      <point x="336" y="343" type="line"/>
      <point x="336" y="134" type="line"/>
    </contour>
    <contour>
      <point x="183" y="571" type="curve" smooth="yes"/>
      <point x="257" y="571"/>
      <point x="325" y="580"/>
      <point x="365" y="595" type="curve"/>
      <point x="427" y="646" type="line"/>
      <point x="416" y="654" type="line"/>
      <point x="7" y="654" type="line"/>
      <point x="3" y="646" type="line"/>
      <point x="28" y="586"/>
      <point x="96" y="571"/>
    </contour>
    <contour>
      <point x="516" y="178" type="line"/>
      <point x="616" y="178" type="line"/>
      <point x="616" y="646" type="line"/>
      <point x="516" y="608" type="line"/>
    </contour>
    <contour>
      <point x="338" y="569" type="line"/>
      <point x="586" y="569" type="line"/>
      <point x="616" y="646" type="line"/>
      <point x="607" y="654" type="line"/>
      <point x="338" y="654" type="line"/>
    </contour>
    <component base="_terminal" xOffset="516" yOffset="-30"/>
  </outline>
</glyph>
<glyph name="DaBha_alt_U_Uu.rj" format="2">
  <advance width="498"/>
  <anchor x="343" y="-5" name="bottom"/>
  <anchor x="348" y="36" name="bottom2"/>
  <anchor x="232" y="646" name="top2"/>
  <outline>
    <contour>
      <point x="532" y="-56" type="curve"/>
      <point x="542" y="-38" type="line"/>
      <point x="498" y="-13" type="line" smooth="yes"/>
      <point x="458" y="10"/>
      <point x="443" y="31"/>
      <point x="443" y="72" type="curve" smooth="yes"/>
      <point x="443" y="255" type="line"/>
      <point x="343" y="255" type="line"/>
      <point x="343" y="36" type="line"/>
      <point x="376" y="17"/>
      <point x="450" y="-18"/>
    </contour>
    <contour>
      <point x="240" y="12" type="curve"/>
      <point x="251" y="28" type="line"/>
      <point x="213" y="55"/>
      <point x="191" y="75"/>
      <point x="164" y="101" type="curve"/>
      <point x="185" y="62" type="line"/>
      <point x="223" y="70"/>
      <point x="237" y="86"/>
      <point x="249" y="112" type="curve" smooth="yes"/>
      <point x="261" y="138"/>
      <point x="278" y="153"/>
      <point x="301" y="153" type="curve" smooth="yes"/>
      <point x="325" y="153"/>
      <point x="344" y="140"/>
      <point x="365" y="108" type="curve"/>
      <point x="353" y="167" type="line"/>
      <point x="327" y="202"/>
      <point x="299" y="219"/>
      <point x="258" y="219" type="curve" smooth="yes"/>
      <point x="168" y="219"/>
      <point x="170" y="136"/>
      <point x="121" y="136" type="curve" smooth="yes"/>
      <point x="114" y="136"/>
      <point x="105" y="140"/>
      <point x="94" y="147" type="curve"/>
      <point x="81" y="130" type="line"/>
      <point x="138" y="77"/>
      <point x="188" y="42"/>
    </contour>
    <component base="_DaPre1" xOffset="10"/>
  </outline>
</glyph>
<glyph name="DaDaYa.rj" format="2">
  <advance width="613"/>
  <anchor x="458" y="85" name="bottom"/>
  <anchor x="486" y="34" name="bottom2"/>
  <anchor x="505" y="-10" name="bottom3"/>
  <anchor x="558" y="646" name="top1"/>
  <anchor x="285" y="646" name="top2"/>
  <anchor x="90" y="606" name="top_alt"/>
  <outline>
    <contour>
      <point x="374" y="285" type="line"/>
      <point x="374" y="372" type="line" smooth="yes"/>
      <point x="374" y="412"/>
      <point x="320" y="457"/>
      <point x="269" y="457" type="curve" smooth="yes"/>
      <point x="238" y="457"/>
      <point x="201" y="437"/>
      <point x="181" y="409" type="curve"/>
      <point x="226" y="377" type="line"/>
      <point x="248" y="396"/>
      <point x="275" y="410"/>
      <point x="292" y="410" type="curve" smooth="yes"/>
      <point x="299" y="410"/>
      <point x="302" y="406"/>
      <point x="302" y="401" type="curve" smooth="yes"/>
      <point x="302" y="379"/>
      <point x="261" y="358"/>
      <point x="223" y="358" type="curve" smooth="yes"/>
      <point x="172" y="358"/>
      <point x="127" y="390"/>
      <point x="120" y="425" type="curve"/>
      <point x="105" y="398" type="line"/>
      <point x="134" y="368" type="line"/>
      <point x="150" y="437"/>
      <point x="197" y="481"/>
      <point x="257" y="481" type="curve" smooth="yes"/>
      <point x="295" y="481"/>
      <point x="322" y="473"/>
      <point x="357" y="456" type="curve"/>
      <point x="364" y="460" type="line"/>
      <point x="364" y="646" type="line"/>
      <point x="269" y="614" type="line"/>
      <point x="269" y="511" type="line"/>
      <point x="333" y="491" type="line"/>
      <point x="294" y="527"/>
      <point x="248" y="541"/>
      <point x="196" y="541" type="curve" smooth="yes"/>
      <point x="119" y="541"/>
      <point x="90" y="471"/>
      <point x="56" y="471" type="curve" smooth="yes"/>
      <point x="47" y="471"/>
      <point x="39" y="477"/>
      <point x="31" y="484" type="curve"/>
      <point x="18" y="472" type="line"/>
      <point x="66" y="401"/>
      <point x="125" y="345"/>
      <point x="174" y="315" type="curve"/>
      <point x="301" y="323" type="line"/>
    </contour>
    <contour>
      <point x="647" y="-46" type="curve"/>
      <point x="537" y="28" type="line" smooth="yes"/>
      <point x="474" y="70"/>
      <point x="414" y="92"/>
      <point x="362" y="92" type="curve" smooth="yes"/>
      <point x="313" y="92"/>
      <point x="277" y="80"/>
      <point x="245" y="32" type="curve"/>
      <point x="308" y="8" type="line"/>
      <point x="261" y="37"/>
      <point x="220" y="61"/>
      <point x="168" y="97" type="curve"/>
      <point x="210" y="50" type="line"/>
      <point x="236" y="102"/>
      <point x="275" y="127"/>
      <point x="328" y="127" type="curve" smooth="yes"/>
      <point x="336" y="127"/>
      <point x="357" y="127"/>
      <point x="374" y="125" type="curve"/>
      <point x="380" y="128" type="line"/>
      <point x="278" y="171" type="line"/>
      <point x="200" y="171"/>
      <point x="148" y="166"/>
      <point x="108" y="87" type="curve"/>
      <point x="109" y="82" type="line"/>
      <point x="166" y="48"/>
      <point x="220" y="21"/>
      <point x="309" y="-24" type="curve"/>
      <point x="325" y="-19" type="line"/>
      <point x="349" y="13"/>
      <point x="383" y="28"/>
      <point x="428" y="28" type="curve" smooth="yes"/>
      <point x="473" y="28"/>
      <point x="547" y="1"/>
    </contour>
    <contour>
      <point x="284" y="128" type="curve"/>
      <point x="287" y="150" type="line"/>
      <point x="380" y="128" type="line"/>
      <point x="380" y="198" type="line" smooth="yes"/>
      <point x="380" y="238"/>
      <point x="334" y="282"/>
      <point x="283" y="282" type="curve" smooth="yes"/>
      <point x="251" y="282"/>
      <point x="215" y="262"/>
      <point x="195" y="234" type="curve"/>
      <point x="240" y="202" type="line"/>
      <point x="263" y="221"/>
      <point x="289" y="235"/>
      <point x="307" y="235" type="curve" smooth="yes"/>
      <point x="314" y="235"/>
      <point x="317" y="231"/>
      <point x="317" y="226" type="curve" smooth="yes"/>
      <point x="317" y="205"/>
      <point x="276" y="182"/>
      <point x="238" y="182" type="curve" smooth="yes"/>
      <point x="187" y="182"/>
      <point x="142" y="215"/>
      <point x="135" y="251" type="curve"/>
      <point x="119" y="223" type="line"/>
      <point x="149" y="193" type="line"/>
      <point x="164" y="262"/>
      <point x="212" y="306"/>
      <point x="271" y="306" type="curve" smooth="yes"/>
      <point x="305" y="306"/>
      <point x="331" y="299"/>
      <point x="367" y="281" type="curve"/>
      <point x="374" y="285" type="line"/>
      <point x="324" y="343" type="line"/>
      <point x="161" y="351" type="line"/>
      <point x="114" y="331"/>
      <point x="96" y="296"/>
      <point x="70" y="296" type="curve" smooth="yes"/>
      <point x="62" y="296"/>
      <point x="53" y="303"/>
      <point x="45" y="310" type="curve"/>
      <point x="31" y="297" type="line"/>
      <point x="97" y="196"/>
      <point x="164" y="128"/>
    </contour>
    <contour>
      <point x="160" y="566" type="curve" smooth="yes"/>
      <point x="209" y="566"/>
      <point x="277" y="576"/>
      <point x="315" y="593" type="curve"/>
      <point x="364" y="646" type="line"/>
      <point x="356" y="654" type="line"/>
      <point x="4" y="654" type="line"/>
      <point x="0" y="646" type="line"/>
      <point x="20" y="584"/>
      <point x="74" y="566"/>
    </contour>
    <contour>
      <point x="458" y="191" type="line"/>
      <point x="558" y="191" type="line"/>
      <point x="558" y="646" type="line"/>
      <point x="458" y="630" type="line"/>
    </contour>
    <contour>
      <point x="291" y="574" type="line"/>
      <point x="528" y="574" type="line"/>
      <point x="558" y="646" type="line"/>
      <point x="549" y="654" type="line"/>
      <point x="291" y="654" type="line"/>
    </contour>
    <component base="_terminal" xOffset="458" yOffset="-20"/>
  </outline>
</glyph>
